SplineFontDB: 3.0
FontName: Garamond-Math
FullName: Garamond-Math
FamilyName: Garamond-Math
Weight: Regular
Copyright: Copyright (C) 2018 Yuansheng Zhao and Xiangdong Zeng
Version: 0.2
ItalicAngle: 0
UnderlinePosition: -200
UnderlineWidth: 40
Ascent: 782
Descent: 218
InvalidEm: 0
LayerCount: 2
Layer: 0 0 "Back" 1
Layer: 1 0 "Fore" 0
XUID: [1021 70 263418660 10072]
StyleMap: 0x0040
FSType: 8
OS2Version: 4
OS2_WeightWidthSlopeOnly: 0
OS2_UseTypoMetrics: 1
CreationTime: 1522080000
ModificationTime: 1524498636
PfmFamily: 17
TTFWeight: 400
TTFWidth: 5
LineGap: 200
VLineGap: 0
Panose: 2 0 5 3 0 0 0 0 0 0
OS2TypoAscent: 782
OS2TypoAOffset: 0
OS2TypoDescent: -218
OS2TypoDOffset: 0
OS2TypoLinegap: 200
OS2WinAscent: 2274
OS2WinAOffset: 0
OS2WinDescent: 1774
OS2WinDOffset: 0
HheadAscent: 782
HheadAOffset: 0
HheadDescent: -218
HheadDOffset: 0
OS2SubXSize: 650
OS2SubYSize: 699
OS2SubXOff: 0
OS2SubYOff: 140
OS2SupXSize: 650
OS2SupYSize: 699
OS2SupXOff: 0
OS2SupYOff: 479
OS2StrikeYSize: 49
OS2StrikeYPos: 258
OS2CapHeight: 662
OS2XHeight: 450
OS2Vendor: 'PfEd'
OS2CodePages: 60000193.0dd40000
OS2UnicodeRanges: a10000ef.4201f9ee.02000000.00000000
Lookup: 3 0 0 "'aalt' Access All Alternates in Mathematical Alphanumeric Symbols lookup 0" { "'aalt' Access All Alternates in Mathematical Alphanumeric Symbols lookup 0 subtable"  } ['aalt' ('math' <'dflt' > ) ]
Lookup: 1 0 0 "'dtls' Dotless Forms in Mathematical Alphanumeric Symbols lookup 1" { "'dtls' Dotless Forms in Mathematical Alphanumeric Symbols lookup 1 subtable"  } ['dtls' ('math' <'dflt' > ) ]
Lookup: 3 0 0 "'ssty' Script Style in Mathematical Alphanumeric Symbols lookup 2" { "'ssty' Script Style in Mathematical Alphanumeric Symbols lookup 2 subtable"  } ['ssty' ('math' <'dflt' > ) ]
Lookup: 258 0 0 "mkn" { "mkn-1"  } []
MarkAttachClasses: 1
DEI: 91125
LangName: 1033 "" "" "Regular" "" "" "" "" "" "" "" "" "" "" "This Font Software is licensed under the SIL Open Font License, Version 1.1." "http://scripts.sil.org/OFL"

StartChar: exclam
Encoding: 33 33 1
Width: 250
GlyphClass: 2
Flags: W
TeX: 649 14
HStem: -14 120<78.7454 171.255>
VStem: 65 120<-0.254639 92.2546> 79 92<337.922 639.994>
LayerCount: 2
Fore
SplineSet
123 205 m 0xa0
 113 205 108 215 105 244 c 0
 93 358 79 531 79 594 c 0
 79 623 99 649 126 649 c 0
 153 649 171 623 171 594 c 0
 171 531 153 357 141 244 c 0
 139 222 133 205 123 205 c 0xa0
125 -14 m 0
 92 -14 65 13 65 46 c 0
 65 79 92 106 125 106 c 0
 158 106 185 79 185 46 c 0xc0
 185 13 158 -14 125 -14 c 0
EndSplineSet
EndChar

StartChar: quotedbl
Encoding: 34 34 2
Width: 330
GlyphClass: 2
Flags: W
TeX: 676 -444
HStem: 444 232<80.2416 89.4949 210.242 219.495>
VStem: 65 73<538.333 659.629> 195 73<538.333 659.629>
LayerCount: 2
Fore
SplineSet
72 444 m 0
 67 444 65 458 65 467 c 0
 66 488 66 506 66 524 c 0
 66 560 62 619 62 620 c 0
 62 634 73 648 81 655 c 0
 97 668 108 676 124 676 c 0
 134 676 138 661 138 644 c 0
 138 592 106 505 91 469 c 0
 86 457 77 444 72 444 c 0
202 444 m 0
 197 444 195 458 195 467 c 0
 196 488 196 506 196 524 c 0
 196 560 192 619 192 620 c 0
 192 634 203 648 211 655 c 0
 227 668 238 676 254 676 c 0
 264 676 268 661 268 644 c 0
 268 592 236 505 221 469 c 0
 216 457 207 444 202 444 c 0
EndSplineSet
EndChar

StartChar: numbersign
Encoding: 35 35 3
Width: 468
GlyphClass: 2
Flags: W
TeX: 570 79
ItalicCorrection: 24
HStem: 113 60<21.8772 94 149 191> 123 60<206 248 303 368.693> 311 60<68.8772 142 198 239.5> 321 60<254.5 296 352 415.271>
LayerCount: 2
Fore
SplineSet
60 -79 m 0x50
 54 -79 50 -73 50 -67 c 2
 50 -64 l 1
 94 113 l 1
 31 110 l 2
 24 110 17 115 17 122 c 0
 17 132 20 169 41 170 c 2
 108 173 l 1
 142 311 l 1
 78 308 l 2
 71 308 64 313 64 320 c 0
 64 330 67 367 88 368 c 2
 157 371 l 1xa0
 199 542 l 2
 202 556 218 559 232 559 c 0
 237 559 240 553 240 547 c 0
 240 545 239 544 239 542 c 2
 198 373 l 1
 311 379 l 1
 354 553 l 2
 357 567 373 570 387 570 c 0
 392 570 395 564 395 558 c 0
 395 556 394 555 394 553 c 2
 352 381 l 1
 411 384 l 2
 418 384 424 380 424 373 c 0
 424 363 415 325 393 324 c 2
 337 321 l 1
 303 183 l 1
 364 186 l 2
 371 186 377 181 377 174 c 0
 377 164 368 127 346 126 c 2
 288 123 l 1
 245 -53 l 2
 242 -66 228 -68 215 -68 c 0
 209 -68 205 -62 205 -56 c 2
 205 -53 l 1
 248 121 l 1
 134 115 l 1
 90 -64 l 2
 87 -77 73 -79 60 -79 c 0x50
149 175 m 1
 263 181 l 1
 296 319 l 1
 183 313 l 1
 149 175 l 1
EndSplineSet
EndChar

StartChar: dollar
Encoding: 36 36 4
Width: 441
GlyphClass: 2
Flags: W
TeX: 712 82
HStem: 16 37<212.172 272.57> 595 37<172.311 233.894>
VStem: 40 33<132.141 185.953> 56 78<444.875 547.894> 319 79<107.954 229.529>
LayerCount: 2
Fore
SplineSet
171 -82 m 0xd8
 163 -82 154 -75 156 -62 c 2
 165 9 l 2
 166 15 161 18 158 18 c 0
 121 24 88 40 61 61 c 0
 57 66 51 72 49 79 c 0
 42 104 42 149 40 174 c 0
 40 182 48 186 58 186 c 0
 65 186 72 184 73 176 c 0xe8
 91 110 124 75 161 60 c 0
 165 58 170 58 170 62 c 2
 197 291 l 2
 198 296 197 301 185 308 c 0
 120 346 56 390 56 466 c 0
 56 552 115 625 232 632 c 0
 238 632 242 635 242 638 c 2
 249 695 l 2
 251 708 265 712 278 712 c 0
 285 712 291 704 291 697 c 2
 284 637 l 2
 284 634 285 631 290 630 c 0
 317 625 338 616 353 610 c 0
 363 607 370 597 373 588 c 0
 380 562 392 527 392 499 c 0
 392 491 385 489 378 489 c 0
 366 489 354 494 351 501 c 0
 332 546 310 575 279 588 c 0
 277 588 275 585 275 583 c 2
 251 385 l 2
 250 377 249 377 263 367 c 0
 329 329 398 284 398 194 c 0
 398 93 326 23 214 16 c 0
 209 16 206 14 205 9 c 2
 196 -67 l 2
 195 -78 182 -82 171 -82 c 0xd8
203 404 m 0
 211 400 212 403 212 405 c 2
 234 587 l 2
 234 592 232 595 227 595 c 0
 175 591 134 567 134 497 c 0xd8
 134 460 162 432 203 404 c 0
219 53 m 0
 278 57 319 95 319 158 c 0
 319 219 290 245 243 274 c 0
 239 276 236 273 236 269 c 2
 211 63 l 2
 211 55 213 53 219 53 c 0
EndSplineSet
EndChar

StartChar: percent
Encoding: 37 37 5
Width: 650
GlyphClass: 2
Flags: W
TeX: 665 62
HStem: -17 22<468.318 535.999> 263 22<118.318 185.999> 310 25<463.363 535.198> 590 25<113.363 185.198> 645 20G<532.5 544.5>
VStem: 15 60<338.06 530.813> 225 60<350.454 543.929> 365 60<58.0598 250.813> 575 60<70.4536 263.929>
LayerCount: 2
Fore
SplineSet
502 648 m 2
 511 662 524 665 541 665 c 0
 548 665 555 658 555 652 c 0
 555 651 555 649 554 648 c 2
 116 -47 l 2
 108 -60 95 -62 80 -62 c 0
 72 -62 63 -56 63 -50 c 0
 63 -49 63 -48 64 -47 c 2
 502 648 l 2
142 263 m 0
 58 263 15 354 15 438 c 0
 15 527 71 615 160 615 c 0
 241 615 285 530 285 449 c 0
 285 358 234 263 142 263 c 0
153 285 m 0
 219 285 225 371 225 437 c 0
 225 504 216 590 149 590 c 0
 87 590 75 511 75 449 c 0
 75 378 82 285 153 285 c 0
492 -17 m 0
 408 -17 365 74 365 158 c 0
 365 247 421 335 510 335 c 0
 591 335 635 250 635 169 c 0
 635 78 584 -17 492 -17 c 0
503 5 m 0
 569 5 575 91 575 157 c 0
 575 224 566 310 499 310 c 0
 437 310 425 231 425 169 c 0
 425 98 432 5 503 5 c 0
EndSplineSet
EndChar

StartChar: ampersand
Encoding: 38 38 6
Width: 756
GlyphClass: 2
Flags: W
TeX: 599 15
HStem: -15 65<162.077 296.9> -15 55<547.503 661.519> 384 28<663.601 734.198> 573 26<235.305 315.374>
VStem: 38 77<96.7848 218.101> 145 58<438.754 546.423> 347 64<418.018 543.387>
LayerCount: 2
Fore
SplineSet
212 -15 m 0xbe
 109 -15 38 45 38 127 c 0
 38 233 109 298 205 342 c 2
 225 351 l 1
 210 367 l 2
 191 389 145 425 145 484 c 0
 145 554 215 599 284 599 c 0
 370 599 411 529 411 477 c 0
 412 426 372 389 306 365 c 2
 292 360 l 1
 305 346 l 2
 356 291 395 259 435 201 c 2
 447 183 l 1
 465 202 l 2
 513 253 575 337 575 352 c 0
 575 360 564 377 547 380 c 0
 544 381 535 388 535 391 c 0
 535 401 553 402 557 402 c 0
 563 402 613 397 628 397 c 0
 658 397 700 412 724 412 c 0
 727 412 736 407 736 403 c 0
 736 395 720 385 711 384 c 0
 680 382 654 367 638 353 c 0
 625 342 459 165 459 165 c 1
 476 141 l 2
 518 80 557 40 608 40 c 0
 636 40 662 44 686 58 c 0
 691 61 697 63 703 63 c 0
 712 63 715 60 715 51 c 0
 715 34 641 -15 586 -15 c 0x7e
 511 -15 483 21 432 101 c 2
 419 122 l 1
 413 116 l 2
 350 48 305 -15 212 -15 c 0xbe
279 376 m 1
 292 382 l 2
 329 399 347 442 347 482 c 0
 347 528 325 573 279 573 c 0
 239 573 203 545 203 509 c 0
 203 469 211 448 263 393 c 2
 279 376 l 1
238 50 m 0xbe
 304 50 349 79 398 131 c 2
 407 140 l 1
 395 159 l 2
 362 210 309 259 252 321 c 2
 240 334 l 1
 219 326 l 2
 126 290 115 219 115 160 c 0
 115 99 165 50 238 50 c 0xbe
EndSplineSet
EndChar

StartChar: quotesingle
Encoding: 39 39 7
Width: 200
GlyphClass: 2
Flags: W
TeX: 676 -444
HStem: 444 232<80.2416 89.4949>
VStem: 65 73<538.333 659.629>
LayerCount: 2
Fore
SplineSet
72 444 m 0
 67 444 65 458 65 467 c 0
 66 488 66 506 66 524 c 0
 66 560 62 619 62 620 c 0
 62 634 73 648 81 655 c 0
 97 668 108 676 124 676 c 0
 134 676 138 661 138 644 c 0
 138 592 106 505 91 469 c 0
 86 457 77 444 72 444 c 0
EndSplineSet
EndChar

StartChar: parenleft
Encoding: 40 40 8
Width: 315
GlyphClass: 2
Flags: W
TeX: 810 310
GlyphVariantsVertical: parenleft parenleft.v1 parenleft.v2 parenleft.v3 parenleft.v4 parenleft.v5 parenleft.v6 parenleft.v7 parenleft.v8 parenleft.v9 parenleft.v10 parenleft.v11 parenleft.v12 parenleft.v13 parenleft.v14 parenleft.v15 parenleft.v16 parenleft.v17 parenleft.v18 parenleft.v19 parenleft.v20
GlyphCompositionVertical: 3  uni239D%0,0,250,3194 uni239C%1,500,500,500 uni239B%0,250,0,2376
VStem: 40 83<128.565 416.674>
LayerCount: 2
Fore
SplineSet
237 -210 m 0
 231 -210 225 -207 220 -202 c 0
 149 -131 40 104 40 274 c 0
 40 444 145 627 216 698 c 0
 222 704 233 710 243 710 c 0
 250 710 265 703 265 694 c 0
 265 692 254 676 252 674 c 0
 191 603 123 456 123 286 c 0
 123 116 188 -97 249 -168 c 0
 250 -170 264 -186 264 -188 c 0
 264 -202 250 -210 237 -210 c 0
EndSplineSet
EndChar

StartChar: parenright
Encoding: 41 41 9
Width: 315
GlyphClass: 2
Flags: W
TeX: 810 310
GlyphVariantsVertical: parenright parenright.v1 parenright.v2 parenright.v3 parenright.v4 parenright.v5 parenright.v6 parenright.v7 parenright.v8 parenright.v9 parenright.v10 parenright.v11 parenright.v12 parenright.v13 parenright.v14 parenright.v15 parenright.v16 parenright.v17 parenright.v18 parenright.v19 parenright.v20
GlyphCompositionVertical: 3  uni23A0%0,0,250,3194 uni239F%1,500,500,500 uni239E%0,250,0,2376
VStem: 192 83<128.565 416.674>
LayerCount: 2
Fore
SplineSet
78 -210 m 0
 65 -210 51 -202 51 -188 c 0
 51 -186 65 -170 66 -168 c 0
 127 -97 192 116 192 286 c 0
 192 456 124 603 63 674 c 0
 61 676 50 692 50 694 c 0
 50 703 65 710 72 710 c 0
 82 710 93 704 99 698 c 0
 170 627 275 444 275 274 c 0
 275 104 166 -131 95 -202 c 0
 90 -207 84 -210 78 -210 c 0
EndSplineSet
EndChar

StartChar: asterisk
Encoding: 42 42 10
Width: 340
GlyphClass: 2
Flags: W
TeX: 670 -372
TopAccentHorizontal: 221
HStem: 372 298<166.594 174.406>
VStem: 140 34<602.462 669.992> 167 34<372.008 439.538>
LayerCount: 2
Fore
SplineSet
184 372 m 0xa0
 175 372 168 381 167 390 c 2xa0
 154 482 l 1
 131 466 105 450 75 432 c 0
 72 429 68 428 64 428 c 0
 56 428 46 432 46 442 c 0
 46 448 50 454 55 459 c 2
 128 517 l 1
 102 529 77 541 46 559 c 0
 39 562 34 570 34 577 c 0
 34 591 51 593 59 590 c 0
 91 576 120 566 146 555 c 1
 143 583 141 613 140 648 c 0
 140 659 145 670 157 670 c 0
 166 670 173 661 174 652 c 2xc0
 187 560 l 1
 210 576 236 592 266 610 c 0
 269 613 273 614 277 614 c 0
 285 614 295 610 295 600 c 0
 295 594 291 588 286 583 c 2
 213 525 l 1
 239 513 264 501 295 483 c 0
 302 480 307 472 307 465 c 0
 307 451 290 449 282 452 c 0
 250 466 221 476 195 487 c 1
 198 459 200 429 201 394 c 0
 201 383 196 372 184 372 c 0xa0
EndSplineSet
EndChar

StartChar: plus
Encoding: 43 43 11
Width: 660
GlyphClass: 2
Flags: W
TeX: 505 5
HStem: -5 21G<314 327> 224 52<77.9531 304 356 582.047>
VStem: 304 52<-2.04688 224 276 502.047>
LayerCount: 2
Fore
SplineSet
554 224 m 2
 366 224 l 2
 359 224 356 221 356 214 c 2
 356 26 l 2
 356 6 337 -5 317 -5 c 0
 311 -5 304 3 304 11 c 2
 304 214 l 2
 304 221 301 224 294 224 c 2
 91 224 l 2
 83 224 75 231 75 237 c 0
 75 257 86 276 106 276 c 2
 294 276 l 2
 301 276 304 279 304 286 c 2
 304 474 l 2
 304 494 323 505 343 505 c 0
 349 505 356 497 356 489 c 2
 356 286 l 2
 356 279 359 276 366 276 c 2
 569 276 l 2
 577 276 585 269 585 263 c 0
 585 243 574 224 554 224 c 2
EndSplineSet
EndChar

StartChar: comma
Encoding: 44 44 12
Width: 230
GlyphClass: 2
Flags: W
TeX: 117 147
HStem: -147 23<20.0329 67.1406> 29 88<52.4428 122.388>
VStem: 130 52<-60.0924 49.1868>
LayerCount: 2
Fore
SplineSet
38 -147 m 0
 26 -147 20 -142 20 -136 c 0
 20 -131 25 -126 34 -124 c 0
 77 -115 130 -85 130 -15 c 0
 130 1 113 27 91 29 c 0
 62 32 44 49 44 71 c 0
 44 98 70 117 99 117 c 0
 147 117 182 76 182 20 c 0
 182 -81 89 -147 38 -147 c 0
EndSplineSet
EndChar

StartChar: hyphen
Encoding: 45 45 13
Width: 274
GlyphClass: 2
Flags: W
TeX: 255 -170
HStem: 170 85
VStem: 29 216<195.001 230.422>
LayerCount: 2
Fore
SplineSet
35 170 m 0
 30 170 29 172 29 176 c 0
 29 198 35 229 45 230 c 0
 109 239 173 248 237 255 c 0
 241 255 245 253 245 249 c 0
 245 224 240 197 224 195 c 0
 164 186 103 176 35 170 c 0
EndSplineSet
EndChar

StartChar: period
Encoding: 46 46 14
Width: 230
GlyphClass: 2
Flags: W
TeX: 96 14
HStem: -14 110<71.8467 158.153>
VStem: 60 110<-2.15331 84.1533>
LayerCount: 2
Fore
SplineSet
115 -14 m 0
 85 -14 60 11 60 41 c 0
 60 71 85 96 115 96 c 0
 145 96 170 71 170 41 c 0
 170 11 145 -14 115 -14 c 0
EndSplineSet
EndChar

StartChar: slash
Encoding: 47 47 15
Width: 466
GlyphClass: 2
Flags: W
TeX: 725 300
GlyphVariantsVertical: slash slash.v1 slash.v2 slash.v3 slash.v4 slash.v5 slash.v6 slash.v7 slash.v8 slash.v9 slash.v10 slash.v11 slash.v12 slash.v13 slash.v14 slash.v15 slash.v16 slash.v17 slash.v18 slash.v19 slash.v20
VStem: 79 308
LayerCount: 2
Fore
SplineSet
387 709 m 2
 137 -194 l 2
 131 -214 108 -225 88 -225 c 0
 81 -225 77 -217 79 -209 c 0
 329 694 l 2
 335 714 358 725 378 725 c 0
 385 725 389 717 387 709 c 2
EndSplineSet
EndChar

StartChar: zero
Encoding: 48 48 16
Width: 480
GlyphClass: 2
Flags: W
TeX: 630 14
ItalicCorrection: 4
TopAccentHorizontal: 236
HStem: -14 26<221.758 297.757> 602 28<196.962 279.117>
VStem: 45 83<156.562 452.092> 373 82<165.636 459.887>
LayerCount: 2
Fore
SplineSet
245 -14 m 0
 109 -14 45 154 45 302 c 0
 45 454 107 630 255 630 c 0
 391 630 455 461 455 316 c 0
 455 166 393 -14 245 -14 c 0
262 12 m 0
 342 12 373 148 373 298 c 0
 373 448 326 602 236 602 c 0
 156 602 128 470 128 320 c 0
 128 170 172 12 262 12 c 0
EndSplineSet
AlternateSubs2: "'ssty' Script Style in Mathematical Alphanumeric Symbols lookup 2 subtable" zero.s zero.ss
EndChar

StartChar: one
Encoding: 49 49 17
Width: 480
GlyphClass: 2
Flags: W
TeX: 637 3
TopAccentHorizontal: 256
HStem: -3 25<92.0455 153.619 349.844 417.771> 539 35<107.038 201.055>
VStem: 217 78<54.6556 526.073>
LayerCount: 2
Fore
SplineSet
107 -3 m 0
 97 -3 92 3 92 9 c 0
 92 14 99 20 107 22 c 0
 183 41 217 50 217 109 c 2
 217 491 l 2
 217 529 176 536 133 539 c 0
 120 540 107 545 107 556 c 0
 107 565 118 572 132 574 c 0
 192 583 237 591 282 636 c 0
 283 637 285 637 287 637 c 0
 293 637 300 633 299 628 c 0
 296 608 295 585 295 557 c 2
 295 97 l 2
 295 46 319 41 401 21 c 0
 409 19 418 14 418 8 c 0
 418 2 412 -3 404 -3 c 0
 347 -3 310 2 257 2 c 0
 203 2 161 -3 107 -3 c 0
EndSplineSet
AlternateSubs2: "'ssty' Script Style in Mathematical Alphanumeric Symbols lookup 2 subtable" one.s one.ss
EndChar

StartChar: two
Encoding: 50 50 18
Width: 480
GlyphClass: 2
Flags: W
TeX: 630 3
ItalicCorrection: 3
TopAccentHorizontal: 237
HStem: 3 58<128.004 417.369> 566 64<159.539 283.763>
VStem: 327 84<373.602 521.928>
LayerCount: 2
Fore
SplineSet
419 -3 m 0
 399 -3 334 3 284 3 c 0
 234 3 72 -2 52 -2 c 0
 47 -2 32 9 32 15 c 0
 32 21 34 22 40 28 c 2
 211 205 l 2
 278 274 327 364 327 452 c 0
 327 523 277 566 220 566 c 0
 165 566 116 533 88 485 c 0
 84 477 77 471 71 471 c 0
 66 471 56 483 56 501 c 0
 56 532 138 630 251 630 c 0
 351 630 411 562 411 465 c 0
 411 411 380 341 338 290 c 0
 293 236 128 76 128 71 c 0
 128 66 134 65 142 64 c 0
 164 62 193 61 230 61 c 0
 268 61 308 62 344 64 c 0
 401 67 414 71 439 111 c 0
 444 119 453 134 464 134 c 0
 470 134 471 127 471 122 c 0
 471 112 451 71 441 21 c 0
 437 0 426 -3 419 -3 c 0
EndSplineSet
AlternateSubs2: "'ssty' Script Style in Mathematical Alphanumeric Symbols lookup 2 subtable" two.s two.ss
EndChar

StartChar: three
Encoding: 51 51 19
Width: 480
GlyphClass: 2
Flags: W
TeX: 630 38
TopAccentHorizontal: 244
HStem: -38 38<149.136 267.92> 570 60<159.498 274.237>
VStem: 312 79<442.858 531.332> 354 85<108.194 238.565>
LayerCount: 2
Fore
SplineSet
161 -38 m 0xd0
 114 -38 50 -11 50 5 c 0
 50 19 79 51 94 51 c 0
 109 51 120 41 133 31 c 0
 150 16 171 0 208 0 c 0
 281 0 354 63 354 146 c 0xd0
 354 223 315 304 238 304 c 0
 223 304 196 302 173 289 c 0
 166 285 154 291 156 298 c 0
 161 315 173 326 186 332 c 0
 209 343 312 395 312 466 c 0
 312 521 272 570 218 570 c 0
 115 570 99 481 84 481 c 0
 79 481 68 490 68 500 c 0
 68 535 125 630 261 630 c 0
 327 630 391 584 391 516 c 0xe0
 391 468 364 411 286 366 c 0
 282 364 282 360 287 360 c 0
 372 360 439 288 439 203 c 0
 439 53 297 -38 161 -38 c 0xd0
EndSplineSet
AlternateSubs2: "'ssty' Script Style in Mathematical Alphanumeric Symbols lookup 2 subtable" three.s three.ss
EndChar

StartChar: four
Encoding: 52 52 20
Width: 480
GlyphClass: 2
Flags: W
TeX: 642 3
TopAccentHorizontal: 344
HStem: -3 25<192.032 258.576 397.014 452.746> 175 56<102 268.175> 185 46<102 287 368.065 477.569>
VStem: 287 80<38.5771 181.926 231.023 415.812>
LayerCount: 2
Fore
SplineSet
210 -3 m 0xb0
 203 -3 192 1 192 10 c 0
 192 17 202 21 210 22 c 0
 272 30 287 48 287 80 c 2
 287 173 l 2
 287 179 273 182 272 182 c 0
 190 182 134 176 29 175 c 0xd0
 24 175 19 181 19 185 c 0xb0
 19 186 19 187 20 188 c 0
 45 219 46 217 59 235 c 2
 323 614 l 2
 331 626 343 642 353 642 c 2
 374 642 l 2
 380 642 372 628 372 628 c 1
 102 240 l 2
 100 237 98 231 102 231 c 2xd0
 275 231 l 2
 280 231 287 235 287 239 c 2
 287 394 l 2
 287 408 288 412 296 416 c 0
 316 427 343 429 352 429 c 0
 367 429 367 407 367 365 c 2
 367 236 l 2
 367 233 369 230 372 230 c 0
 387 229 400 229 412 229 c 0
 431 229 449 230 471 231 c 0
 477 231 482 227 482 223 c 0
 482 207 465 185 461 185 c 0
 446 185 428 186 412 186 c 0
 400 186 389 185 381 184 c 0
 376 183 368 179 368 178 c 2
 368 84 l 2
 368 45 381 36 435 22 c 0
 443 20 453 14 453 8 c 0
 453 2 446 -3 438 -3 c 0
 381 -3 372 2 325 2 c 0
 274 2 264 -3 210 -3 c 0xb0
EndSplineSet
AlternateSubs2: "'ssty' Script Style in Mathematical Alphanumeric Symbols lookup 2 subtable" four.s four.ss
EndChar

StartChar: five
Encoding: 53 53 21
Width: 480
GlyphClass: 2
Flags: W
TeX: 627 38
TopAccentHorizontal: 427
HStem: -38 31<73.0547 204.271>
VStem: 341 79<110.457 244.355>
LayerCount: 2
Fore
SplineSet
109 -38 m 0
 94 -38 72 -35 72 -26 c 0
 72 -16 96 -7 108 -7 c 0
 266 -7 341 93 341 179 c 0
 341 256 278 305 101 351 c 1
 83 366 77 379 77 397 c 0
 77 433 111 512 125 556 c 0
 132 576 145 587 166 592 c 0
 227 608 295 620 373 627 c 0
 383 628 389 619 384 610 c 2
 367 577 l 2
 358 557 347 547 330 545 c 0
 278 539 188 532 158 527 c 0
 144 525 115 464 114 448 c 0
 113 439 115 432 127 429 c 0
 202 407 263 386 309 362 c 0
 383 323 420 274 420 193 c 0
 420 120 372 53 298 10 c 0
 245 -20 180 -38 109 -38 c 0
EndSplineSet
AlternateSubs2: "'ssty' Script Style in Mathematical Alphanumeric Symbols lookup 2 subtable" five.s five.ss
EndChar

StartChar: six
Encoding: 54 54 22
Width: 480
GlyphClass: 2
Flags: W
TeX: 641 16
TopAccentHorizontal: 402
HStem: -16 38<213.991 333.807> 260 53<247.125 339.463> 614 27<401.183 448.194>
VStem: 47 86<106.064 313.5> 379 78<100.208 216.742>
LayerCount: 2
Fore
SplineSet
252 -16 m 0
 149 -16 47 53 47 193 c 0
 47 342 130 439 168 477 c 0
 218 528 312 608 435 641 c 0
 447 644 455 638 453 634 c 0
 447 622 434 617 427 614 c 0
 337 575 276 529 225 456 c 0
 192 408 133 299 133 195 c 0
 135 84 210 23 276 22 c 0
 330 21 379 59 379 142 c 0
 379 203 341 260 288 260 c 0
 253 260 231 257 208 245 c 0
 196 239 194 248 201 256 c 0
 211 267 217 272 228 280 c 0
 243 291 289 313 326 313 c 0
 395 313 457 262 457 190 c 0
 457 65 349 -16 252 -16 c 0
EndSplineSet
AlternateSubs2: "'ssty' Script Style in Mathematical Alphanumeric Symbols lookup 2 subtable" six.s six.ss
EndChar

StartChar: seven
Encoding: 55 55 23
Width: 480
GlyphClass: 2
Flags: W
TeX: 626 32
TopAccentHorizontal: 263
HStem: 551 65<85.9778 405.578>
LayerCount: 2
Fore
SplineSet
127 -32 m 0
 112 -32 106 -21 106 -6 c 0
 106 -2 118 19 127 35 c 2
 410 541 l 2
 412 545 415 550 400 551 c 2
 144 551 l 2
 112 551 89 542 67 505 c 0
 63 498 53 480 43 480 c 0
 37 480 36 489 36 494 c 0
 36 501 39 511 40 516 c 0
 47 545 53 590 56 615 c 0
 57 624 63 626 66 626 c 0
 69 626 108 617 150 617 c 0
 180 617 202 616 249 616 c 0
 347 616 460 618 479 621 c 0
 482 621 485 613 485 608 c 0
 485 592 457 555 447 538 c 2
 146 -5 l 2
 140 -16 131 -32 127 -32 c 0
EndSplineSet
AlternateSubs2: "'ssty' Script Style in Mathematical Alphanumeric Symbols lookup 2 subtable" seven.s seven.ss
EndChar

StartChar: eight
Encoding: 56 56 24
Width: 480
GlyphClass: 2
Flags: W
TeX: 630 14
TopAccentHorizontal: 249
HStem: -14 29<207.281 305.721> 606 24<214.835 300.059>
VStem: 65 80<73.6789 211.84> 80 77<439.29 550.713> 344 77<432.564 563.609> 359 80<84.4373 187.8>
LayerCount: 2
Fore
SplineSet
242 -14 m 0xc4
 150 -14 65 49 65 141 c 0xe4
 65 229 148 274 199 302 c 0
 208 307 204 308 196 315 c 0
 136 366 80 404 80 489 c 0
 80 567 173 630 262 630 c 0
 342 630 421 577 421 496 c 0xd8
 421 448 391 420 368 400 c 0
 349 384 338 375 315 358 c 0
 298 346 299 344 310 337 c 0
 385 285 439 241 439 164 c 0
 439 60 340 -14 242 -14 c 0xc4
288 358 m 0
 334 396 344 442 344 503 c 0
 344 559 315 606 257 606 c 0
 211 606 157 563 157 509 c 0xd8
 157 432 204 418 274 361 c 0
 278 358 284 355 288 358 c 0
256 15 m 0
 315 15 359 65 359 124 c 0
 359 186 299 240 241 280 c 0
 233 286 227 290 221 290 c 0
 218 290 214 288 209 284 c 0
 166 249 145 221 145 157 c 0xe4
 145 87 186 15 256 15 c 0
EndSplineSet
AlternateSubs2: "'ssty' Script Style in Mathematical Alphanumeric Symbols lookup 2 subtable" eight.s eight.ss
EndChar

StartChar: nine
Encoding: 57 57 25
Width: 480
GlyphClass: 2
Flags: W
TeX: 629 31
TopAccentHorizontal: 241
HStem: -31 18<53.0803 109.994> 304 53<190.63 278.77> 593 36<190.541 288.348>
VStem: 65 75<410.459 512.556> 378 85<271.972 485.838>
LayerCount: 2
Fore
SplineSet
67 -31 m 0
 56 -31 53 -27 53 -23 c 0
 53 -16 60 -13 67 -13 c 0
 127 -13 225 52 289 134 c 0
 353 217 378 292 378 389 c 0
 378 485 311 593 238 593 c 0
 173 593 140 531 140 482 c 0
 140 421 190 357 243 357 c 0
 284 357 298 371 323 383 c 0
 328 385 332 376 330 372 c 0
 323 359 308 345 297 337 c 0
 282 326 242 304 205 304 c 0
 136 304 65 358 65 430 c 0
 65 521 150 629 271 629 c 0
 368 629 463 515 463 400 c 0
 463 275 410 186 319 87 c 0
 246 7 137 -31 67 -31 c 0
EndSplineSet
AlternateSubs2: "'ssty' Script Style in Mathematical Alphanumeric Symbols lookup 2 subtable" nine.s nine.ss
EndChar

StartChar: colon
Encoding: 58 58 26
Width: 248
GlyphClass: 2
Flags: W
TeX: 372 14
HStem: -14 110<81.8467 168.153> 262 110<81.8467 168.153>
VStem: 70 110<-2.15331 84.1533 273.847 360.153>
LayerCount: 2
Fore
SplineSet
125 262 m 0
 95 262 70 287 70 317 c 0
 70 347 95 372 125 372 c 0
 155 372 180 347 180 317 c 0
 180 287 155 262 125 262 c 0
125 -14 m 0
 95 -14 70 11 70 41 c 0
 70 71 95 96 125 96 c 0
 155 96 180 71 180 41 c 0
 180 11 155 -14 125 -14 c 0
EndSplineSet
EndChar

StartChar: semicolon
Encoding: 59 59 27
Width: 228
GlyphClass: 2
Flags: W
TeX: 373 147
HStem: -147 23<20.0329 67.1406> 29 88<52.4428 122.388> 263 110<61.8467 148.153>
VStem: 50 110<274.847 361.153> 130 52<-60.0924 49.1868>
LayerCount: 2
Fore
SplineSet
105 263 m 0xf0
 75 263 50 288 50 318 c 0
 50 348 75 373 105 373 c 0
 135 373 160 348 160 318 c 0
 160 288 135 263 105 263 c 0xf0
38 -147 m 0
 26 -147 20 -142 20 -136 c 0
 20 -131 25 -126 34 -124 c 0
 77 -115 130 -85 130 -15 c 0
 130 1 113 27 91 29 c 0
 62 32 44 49 44 71 c 0
 44 98 70 117 99 117 c 0
 147 117 182 76 182 20 c 0xe8
 182 -81 89 -147 38 -147 c 0
EndSplineSet
EndChar

StartChar: less
Encoding: 60 60 28
Width: 666
GlyphClass: 2
Flags: W
TeX: 511 11
LayerCount: 2
Fore
SplineSet
575 -10 m 2
 88 220 l 2
 81 223 75 232 75 238 c 0
 75 256 83 278 100 286 c 2
 575 510 l 2
 583 514 591 510 591 503 c 0
 591 481 580 455 560 445 c 2
 156 254 l 2
 150 251 150 249 156 246 c 2
 560 55 l 2
 580 45 591 19 591 -3 c 0
 591 -10 583 -14 575 -10 c 2
EndSplineSet
EndChar

StartChar: equal
Encoding: 61 61 29
Width: 660
GlyphClass: 2
Flags: W
TeX: 372 -128
GlyphCompositionHorizontal: 3  equal.lft%0,0,83,167 equal.ex%1,166,166,166 equal.rt%0,83,0,167
HStem: 128 52<77.9531 582.047> 320 52<77.9531 582.047>
LayerCount: 2
Fore
SplineSet
554 320 m 2
 91 320 l 2
 83 320 75 327 75 333 c 0
 75 353 86 372 106 372 c 2
 569 372 l 2
 577 372 585 365 585 359 c 0
 585 339 574 320 554 320 c 2
554 128 m 2
 91 128 l 2
 83 128 75 135 75 141 c 0
 75 161 86 180 106 180 c 2
 569 180 l 2
 577 180 585 173 585 167 c 0
 585 147 574 128 554 128 c 2
EndSplineSet
EndChar

StartChar: greater
Encoding: 62 62 30
Width: 666
GlyphClass: 2
Flags: W
TeX: 511 11
LayerCount: 2
Fore
SplineSet
566 214 m 2
 91 -10 l 2
 83 -14 75 -10 75 -3 c 0
 75 19 86 45 106 55 c 2
 510 246 l 2
 516 249 516 251 510 254 c 2
 106 445 l 2
 86 455 75 481 75 503 c 0
 75 510 83 514 91 510 c 2
 578 280 l 2
 585 277 591 268 591 262 c 0
 591 244 583 222 566 214 c 2
EndSplineSet
EndChar

StartChar: question
Encoding: 63 63 31
Width: 376
GlyphClass: 2
Flags: W
TeX: 661 14
HStem: -14 120<103.745 196.255> 573 88<78.3613 180.784>
VStem: 90 120<-0.254639 92.2546> 98 53<195.696 274.776> 260 51<415.721 503.256>
LayerCount: 2
Fore
SplineSet
136 181 m 0xd8
 129 181 118 194 114 210 c 0
 108 231 98 252 98 297 c 0
 98 331 136 355 199 387 c 0
 227 401 260 429 260 458 c 0
 260 524 227 572 159 573 c 0
 150 573 143 572 136 571 c 0
 129 570 122 569 112 569 c 0
 91 569 70 598 70 625 c 0
 70 644 93 661 110 661 c 0
 143 661 185 644 218 611 c 0
 274 555 311 469 311 418 c 0
 311 369 289 345 269 334 c 0
 225 310 215 304 183 283 c 0
 155 265 152 236 151 204 c 0
 151 194 146 181 136 181 c 0xd8
150 -14 m 0
 117 -14 90 13 90 46 c 0
 90 79 117 106 150 106 c 0
 183 106 210 79 210 46 c 0xe8
 210 13 183 -14 150 -14 c 0
EndSplineSet
EndChar

StartChar: at
Encoding: 64 64 32
Width: 749
GlyphClass: 2
Flags: W
TeX: 507 131
HStem: -131 40<285.786 481.766> 47 34<306.838 396.313 471.5 575.64> 325 30<343.972 444.313> 467 40<282.801 491.002>
VStem: 50 47<88.8546 298.864> 204 71<106.898 246.874> 652 47<148.276 316.333>
LayerCount: 2
Fore
SplineSet
382 -131 m 0
 204 -131 50 -3 50 181 c 0
 50 395 223 507 414 507 c 0
 563 507 699 384 699 235 c 0
 699 118 599 47 492 47 c 0
 451 47 448 84 438 84 c 0
 428 84 385 47 322 47 c 0
 256 47 204 86 204 156 c 0
 204 277 305 355 415 355 c 0
 435 355 468 351 480 347 c 0
 495 342 499 341 503 341 c 0
 513 341 518 360 528 360 c 0
 532 360 549 356 546 352 c 0
 537 328 527 288 524 272 c 2
 503 140 l 2
 502 131 500 122 500 113 c 0
 500 98 504 84 518 84 c 0
 588 84 652 137 652 220 c 0
 652 359 533 467 394 467 c 0
 236 467 97 360 97 191 c 0
 97 32 234 -91 393 -91 c 0
 458 -91 550 -56 600 -14 c 0
 606 -9 613 -4 618 -4 c 0
 627 -4 632 -8 632 -17 c 0
 632 -41 490 -131 382 -131 c 0
358 81 m 0
 382 81 398 89 418 103 c 0
 430 111 439 121 445 152 c 2
 464 255 l 2
 465 259 465 263 465 267 c 0
 465 304 436 325 393 325 c 0
 336 325 275 273 275 175 c 0
 275 103 320 81 358 81 c 0
EndSplineSet
EndChar

StartChar: bracketleft
Encoding: 91 91 33
Width: 331
GlyphClass: 2
Flags: W
TeX: 702 300
GlyphVariantsVertical: bracketleft bracketleft.v1 bracketleft.v2 bracketleft.v3 bracketleft.v4 bracketleft.v5 bracketleft.v6 bracketleft.v7 bracketleft.v8 bracketleft.v9 bracketleft.v10 bracketleft.v11 bracketleft.v12 bracketleft.v13 bracketleft.v14 bracketleft.v15 bracketleft.v16 bracketleft.v17 bracketleft.v18 bracketleft.v19 bracketleft.v20
GlyphCompositionVertical: 3  uni23A3%0,0,500,2359 uni23A2%1,1000,1000,1000 uni23A1%0,500,0,2357
HStem: -200 33<242.462 310.909> 673 28<206 310.916>
VStem: 110 73<-153.78 666.782>
LayerCount: 2
Fore
SplineSet
141 -200 m 2
 118 -200 110 -199 110 -175 c 2
 110 668 l 2
 110 702 116 702 148 702 c 2
 293 701 l 2
 302 701 311 698 311 688 c 0
 311 678 298 674 285 673 c 2
 206 667 l 2
 197 666 183 653 183 642 c 2
 183 -121 l 2
 183 -139 194 -152 206 -154 c 2
 285 -167 l 2
 298 -169 311 -173 311 -185 c 0
 311 -197 297 -200 285 -200 c 2
 141 -200 l 2
EndSplineSet
EndChar

StartChar: backslash
Encoding: 92 92 34
Width: 466
GlyphClass: 2
Flags: W
TeX: 725 300
GlyphVariantsVertical: backslash backslash.v1 backslash.v2 backslash.v3 backslash.v4 backslash.v5 backslash.v6 backslash.v7 backslash.v8 backslash.v9 backslash.v10 backslash.v11 backslash.v12 backslash.v13 backslash.v14 backslash.v15 backslash.v16 backslash.v17 backslash.v18 backslash.v19 backslash.v20
VStem: 79 308
LayerCount: 2
Fore
SplineSet
79 709 m 2
 77 717 81 725 88 725 c 0
 108 725 131 714 137 694 c 0
 387 -209 l 2
 389 -217 385 -225 378 -225 c 0
 358 -225 335 -214 329 -194 c 0
 79 709 l 2
EndSplineSet
EndChar

StartChar: bracketright
Encoding: 93 93 35
Width: 331
GlyphClass: 2
Flags: W
TeX: 702 300
GlyphVariantsVertical: bracketright bracketright.v1 bracketright.v2 bracketright.v3 bracketright.v4 bracketright.v5 bracketright.v6 bracketright.v7 bracketright.v8 bracketright.v9 bracketright.v10 bracketright.v11 bracketright.v12 bracketright.v13 bracketright.v14 bracketright.v15 bracketright.v16 bracketright.v17 bracketright.v18 bracketright.v19 bracketright.v20
GlyphCompositionVertical: 3  uni23A6%0,0,500,2357 uni23A5%1,1000,1000,1000 uni23A4%0,500,0,2359
HStem: -200 33<20.0906 88.5385> 673 28<20.0844 125>
VStem: 148 73<-153.78 666.782>
LayerCount: 2
Fore
SplineSet
190 -200 m 2
 46 -200 l 2
 34 -200 20 -197 20 -185 c 0
 20 -173 33 -169 46 -167 c 2
 125 -154 l 2
 137 -152 148 -139 148 -121 c 2
 148 642 l 2
 148 653 134 666 125 667 c 2
 46 673 l 2
 33 674 20 678 20 688 c 0
 20 698 29 701 38 701 c 2
 183 702 l 2
 215 702 221 702 221 668 c 2
 221 -175 l 2
 221 -199 213 -200 190 -200 c 2
EndSplineSet
EndChar

StartChar: asciicircum
Encoding: 94 94 36
Width: 500
GlyphClass: 2
Flags: W
TeX: 603 -284
ItalicCorrection: 5
HStem: 284 319
LayerCount: 2
Fore
SplineSet
57 284 m 0
 52 284 48 289 48 295 c 0
 48 298 49 302 51 305 c 2
 248 603 l 1
 251 603 l 1
 449 305 l 2
 454 297 452 284 443 284 c 0
 428 284 408 293 402 302 c 2
 254 514 l 2
 249 520 248 520 244 514 c 2
 98 303 l 2
 90 291 69 284 57 284 c 0
EndSplineSet
EndChar

StartChar: underscore
Encoding: 95 95 37
Width: 500
GlyphClass: 2
Flags: W
TeX: -132 182
ItalicCorrection: 28
HStem: -182 50<3.10421 495.543>
LayerCount: 2
Fore
SplineSet
487 -132 m 2
 493 -132 501 -137 501 -143 c 0
 501 -157 485 -182 469 -182 c 2
 14 -182 l 2
 7 -182 0 -176 0 -170 c 0
 0 -161 6 -132 24 -132 c 2
 487 -132 l 2
EndSplineSet
EndChar

StartChar: grave
Encoding: 96 96 38
Width: 200
GlyphClass: 2
Flags: W
TeX: 649 -457
TopAccentHorizontal: 128
HStem: 457 192
VStem: 22 157
LayerCount: 2
Fore
SplineSet
171 457 m 0
 164 457 154 464 140 478 c 0
 114 504 56 572 32 607 c 0
 26 616 22 620 22 628 c 0
 22 642 46 649 71 649 c 0
 81 649 92 641 98 631 c 0
 114 604 161 521 175 484 c 0
 178 476 179 470 179 466 c 0
 179 459 176 457 171 457 c 0
EndSplineSet
EndChar

StartChar: a
Encoding: 97 97 39
Width: 399
GlyphClass: 2
Flags: W
TeX: 414 14
ItalicCorrection: 26
TopAccentHorizontal: 218
HStem: -14 48<99 198.414 312.435 371.606> 365 49<153.283 253>
VStem: 37 78<42.5666 125.471 280.17 320.237> 238 68<58.3296 168.996 199.884 353.979>
LayerCount: 2
Fore
SplineSet
117 -14 m 0
 81 -14 37 35 37 72 c 0
 37 114 59 135 108 155 c 2
 210 197 l 2
 236 208 237 210 238 237 c 2
 240 301 l 2
 241 336 219 365 181 365 c 0
 161 365 139 358 126 347 c 0
 118 341 116 330 116 318 c 2
 117 300 l 2
 117 290 71 265 51 265 c 0
 44 265 40 269 40 274 c 0
 40 295 55 321 80 343 c 0
 125 384 189 414 229 414 c 0
 277 414 312 376 311 325 c 2
 306 85 l 2
 305 57 320 38 342 38 c 0
 359 38 370 41 379 49 c 0
 383 53 385 54 387 54 c 0
 393 54 398 49 398 43 c 0
 398 37 393 27 387 21 c 0
 366 0 339 -14 318 -14 c 0
 287 -14 263 3 245 38 c 1
 242 38 l 1
 198 2 160 -14 117 -14 c 0
164 34 m 0
 190 34 208 43 223 58 c 0
 230 65 235 74 236 99 c 2
 238 148 l 2
 239 163 237 169 229 169 c 0
 226 169 220 168 209 164 c 0
 138 138 115 110 115 87 c 0
 115 52 140 34 164 34 c 0
EndSplineSet
AlternateSubs2: "'ssty' Script Style in Mathematical Alphanumeric Symbols lookup 2 subtable" a.s a.ss
EndChar

StartChar: b
Encoding: 98 98 40
Width: 515
GlyphClass: 2
Flags: W
TeX: 705 14
TopAccentHorizontal: 114
HStem: -14 31<213.49 334.715> -3 21G<79 83.5> 372 42<216.535 333.647>
VStem: 75 70<69.4872 342.455 355.051 621.865> 405 75<110.853 291.063>
LayerCount: 2
Fore
SplineSet
259 -14 m 0xb8
 230 -14 199 -8 173 -1 c 0
 144 7 120 15 113 15 c 0
 105 15 97 8 91 2 c 0
 88 -1 85 -3 82 -3 c 0x78
 76 -3 68 2 68 9 c 0
 68 21 75 56 75 81 c 2
 75 566 l 2
 75 601 56 627 29 639 c 0
 23 642 16 646 16 654 c 0
 16 661 23 663 28 664 c 0
 54 669 120 696 133 702 c 0
 137 704 140 705 142 705 c 0
 145 705 148 702 148 698 c 0
 148 693 145 649 145 593 c 2
 145 388 l 2
 145 362 147 356 154 355 c 1
 195 389 256 414 300 414 c 0
 401 414 480 328 480 217 c 0
 480 80 390 -14 259 -14 c 0xb8
282 17 m 0xb8
 358 17 405 94 405 195 c 0
 405 272 362 372 267 372 c 0
 214 372 174 353 145 326 c 1
 145 132 l 2
 145 62 212 17 282 17 c 0xb8
EndSplineSet
AlternateSubs2: "'ssty' Script Style in Mathematical Alphanumeric Symbols lookup 2 subtable" b.s b.ss
EndChar

StartChar: c
Encoding: 99 99 41
Width: 407
GlyphClass: 2
Flags: W
TeX: 414 15
TopAccentHorizontal: 204
HStem: -15 60<180.332 307.274> 377 37<164.065 263.89>
VStem: 35 69<125.033 282.32>
LayerCount: 2
Fore
SplineSet
213 -15 m 0
 112 -15 35 69 35 180 c 0
 35 310 129 414 246 414 c 0
 289 414 328 402 360 379 c 0
 368 373 372 367 372 360 c 0
 372 343 346 319 329 319 c 0
 322 319 316 324 308 330 c 0
 279 352 238 377 214 377 c 0
 149 377 104 310 104 212 c 0
 104 118 171 45 256 45 c 0
 295 45 319 56 351 88 c 0
 354 91 358 93 361 93 c 0
 367 93 372 87 372 79 c 0
 372 71 367 61 357 48 c 0
 325 7 274 -15 213 -15 c 0
EndSplineSet
AlternateSubs2: "'ssty' Script Style in Mathematical Alphanumeric Symbols lookup 2 subtable" c.s c.ss
EndChar

StartChar: d
Encoding: 100 100 42
Width: 506
GlyphClass: 2
Flags: W
TeX: 704 19
ItalicCorrection: 19
TopAccentHorizontal: 382
HStem: -14 52<179.572 299.052> 21 24<433.488 502.885> 379 35<170.44 293.672> 639 25<293.013 331.248>
VStem: 35 71<114.478 287.604> 352 70<67.1094 328.417 400.004 628.241>
LayerCount: 2
Fore
SplineSet
357 -19 m 0x7c
 354 -19 346 -12 346 -9 c 0
 346 4 351 34 351 51 c 2
 351 57 l 1
 331 26 286 -14 220 -14 c 0xbc
 106 -14 35 89 35 190 c 0
 35 306 120 414 260 414 c 0
 287 414 317 408 332 403 c 0
 338 401 342 400 345 400 c 0
 348 400 352 406 352 424 c 2
 352 566 l 2
 352 620 334 633 302 639 c 0
 296 640 293 646 293 652 c 0
 293 657 295 662 301 664 c 0
 360 679 390 693 409 701 c 0
 414 703 419 704 422 704 c 0
 426 704 428 702 429 698 c 0
 429 686 422 652 422 562 c 2
 422 110 l 2
 422 64 428 45 443 45 c 0
 450 45 469 46 486 48 c 0
 499 49 504 47 504 39 c 0
 504 30 497 21 490 21 c 0
 453 16 420 7 373 -13 c 0
 362 -19 361 -19 357 -19 c 0x7c
256 38 m 0
 291 38 326 58 351 87 c 1
 352 267 l 2
 352 321 303 379 229 379 c 0
 183 379 106 346 106 213 c 0
 106 62 212 38 256 38 c 0
EndSplineSet
AlternateSubs2: "'ssty' Script Style in Mathematical Alphanumeric Symbols lookup 2 subtable" d.s d.ss
EndChar

StartChar: e
Encoding: 101 101 43
Width: 390
GlyphClass: 2
Flags: W
TeX: 414 15
ItalicCorrection: 8
TopAccentHorizontal: 198
HStem: -15 61<174.086 299.389> 257 31<109.637 284.97> 385 29<161.117 258.964>
VStem: 30 64<133.835 256.062> 294 66<277.5 358.559>
LayerCount: 2
Fore
SplineSet
213 -15 m 0
 103 -15 30 72 30 203 c 0
 30 318 118 414 223 414 c 0
 303 414 360 362 360 288 c 0
 360 267 351 257 330 257 c 2
 119 257 l 2
 100 257 94 249 94 220 c 0
 94 124 163 46 248 46 c 0
 288 46 321 62 346 91 c 0
 351 98 353 99 357 99 c 0
 362 99 365 95 365 89 c 0
 365 76 359 62 347 47 c 0
 317 8 266 -15 213 -15 c 0
121 288 m 2
 212 288 l 2
 244 288 264 289 286 293 c 0
 292 294 294 301 294 315 c 0
 294 353 255 385 208 385 c 0
 162 385 109 338 109 298 c 0
 109 291 113 288 121 288 c 2
EndSplineSet
AlternateSubs2: "'ssty' Script Style in Mathematical Alphanumeric Symbols lookup 2 subtable" e.s e.ss
EndChar

StartChar: f
Encoding: 102 102 44
Width: 318
GlyphClass: 2
Flags: W
TeX: 706 3
ItalicCorrection: 78
TopAccentHorizontal: 222
HStem: -3 27<24.2499 78.7903 173.684 248.75> 352 48<160 307.395> 665 41<228.339 333.384>
VStem: 90 70<33.4395 350 406 542.922>
LayerCount: 2
Fore
SplineSet
44 -3 m 0
 31 -3 24 0 24 8 c 0
 24 18 33 21 47 24 c 0
 78 31 90 41 90 68 c 2
 90 350 l 1
 77 350 59 350 38 352 c 0
 34 353 24 363 24 370 c 0
 24 373 29 375 31 376 c 2
 90 406 l 1
 90 637 223 706 310 706 c 0
 384 706 420 681 420 646 c 0
 420 619 404 606 386 606 c 0
 374 606 365 617 352 629 c 0
 335 646 312 665 268 665 c 0
 205 665 160 611 160 498 c 2
 160 410 l 2
 160 402 165 400 171 400 c 2
 296 400 l 2
 303 400 309 395 309 389 c 0
 309 380 307 368 303 360 c 0
 301 355 297 352 294 352 c 2
 179 352 l 2
 163 352 160 347 160 339 c 2
 160 68 l 2
 160 41 172 30 226 24 c 0
 240 22 249 18 249 8 c 0
 249 0 242 -3 229 -3 c 0
 189 -3 162 2 127 2 c 0
 92 2 84 -3 44 -3 c 0
EndSplineSet
AlternateSubs2: "'ssty' Script Style in Mathematical Alphanumeric Symbols lookup 2 subtable" f.s f.ss
EndChar

StartChar: g
Encoding: 103 103 45
Width: 435
GlyphClass: 2
Flags: W
TeX: 416 290
TopAccentHorizontal: 206
HStem: -290 40<135.317 276.047> 106 35<159.887 251.359> 349 39<366.1 440.191> 386 30<158.849 244.218>
VStem: 11 75<-208.451 -105.888> 40 66<25 79.9028 198.608 332.983> 295 65<201.982 340.571> 357 61<-155.235 -68.0179>
LayerCount: 2
Fore
SplineSet
428 388 m 0xe4
 435 388 441 382 441 373 c 0
 441 368 437 360 431 354 c 0
 428 351 425 349 423 349 c 2
 396 349 l 2
 378 349 368 346 366 341 c 0
 363 332 360 313 360 295 c 0
 360 193 287 106 201 106 c 0
 183 106 165 109 148 116 c 1
 124 104 106 86 106 74 c 0xe6
 106 46 151 29 236 24 c 0
 359 17 418 -16 418 -77 c 0
 418 -180 303 -290 195 -290 c 0
 81 -290 11 -244 11 -170 c 0xe9
 11 -135 21 -113 44 -95 c 0
 63 -79 96 -54 128 -28 c 1
 64 -16 40 6 40 44 c 0
 40 57 47 68 63 81 c 0
 102 110 111 117 119 129 c 1
 73 156 39 205 39 258 c 0
 39 351 122 416 213 416 c 0xd4
 252 416 278 403 306 395 c 0
 338 386 353 385 373 385 c 0
 389 385 418 388 428 388 c 0xe4
207 141 m 0
 257 141 295 199 295 275 c 0
 295 333 249 386 200 386 c 0xd2
 153 386 111 331 111 270 c 0
 111 200 155 141 207 141 c 0
357 -109 m 0xc9
 357 -65 313 -44 207 -37 c 0
 191 -36 177 -35 164 -33 c 1
 106 -72 86 -104 86 -155 c 0
 86 -208 140 -250 209 -250 c 0
 249 -250 280 -241 304 -223 c 0
 337 -198 357 -155 357 -109 c 0xc9
EndSplineSet
AlternateSubs2: "'ssty' Script Style in Mathematical Alphanumeric Symbols lookup 2 subtable" g.s g.ss
EndChar

StartChar: h
Encoding: 104 104 46
Width: 515
GlyphClass: 2
Flags: W
TeX: 705 3
ItalicCorrection: 15
TopAccentHorizontal: 122
HStem: -3 27<19.291 71.3797 166.714 215.629 296.286 344.612 441.734 491.586> 362 52<228.455 321.254>
VStem: 85 70<32.0327 335.273 351.42 626.703> 358 70<31.9098 325.919>
LayerCount: 2
Fore
SplineSet
39 -3 m 0
 27 -3 19 0 19 8 c 0
 19 16 25 19 42 24 c 0
 62 30 84 38 85 65 c 2
 85 566 l 2
 85 602 75 632 41 638 c 0
 35 639 32 644 32 652 c 0
 32 658 34 662 40 664 c 0
 68 673 118 689 151 703 c 0
 153 704 155 705 157 705 c 0
 161 705 164 702 164 698 c 0
 164 686 155 669 155 562 c 2
 155 388 l 2
 155 367 157 360 162 351 c 1
 193 374 251 414 314 414 c 0
 379 414 428 356 428 278 c 2
 428 68 l 2
 428 41 449 30 469 24 c 0
 483 20 492 16 492 8 c 0
 492 0 486 -3 472 -3 c 0
 432 -3 429 2 394 2 c 0
 359 2 356 -3 316 -3 c 0
 302 -3 296 0 296 8 c 0
 296 17 304 19 319 24 c 0
 339 31 358 41 358 68 c 2
 358 272 l 2
 358 322 308 362 265 362 c 0
 240 362 201 355 182 340 c 0
 161 323 155 309 155 268 c 2
 155 65 l 2
 156 38 174 30 194 24 c 0
 208 20 216 16 216 8 c 0
 216 0 211 -3 196 -3 c 0
 156 -3 155 2 120 2 c 0
 85 2 79 -3 39 -3 c 0
EndSplineSet
AlternateSubs2: "'ssty' Script Style in Mathematical Alphanumeric Symbols lookup 2 subtable" h.s h.ss
EndChar

StartChar: i
Encoding: 105 105 47
Width: 245
GlyphClass: 2
Flags: W
TeX: 617 3
ItalicCorrection: 3
TopAccentHorizontal: 125
HStem: -3 27<24.3057 79.6694 171.375 225.674> 516 101<83.1171 165.823>
VStem: 74 101<525.117 607.823> 90 70<31.0813 341.886>
LayerCount: 2
Fore
SplineSet
124 516 m 0xe0
 96 516 74 538 74 566 c 0
 74 595 96 617 124 617 c 0
 153 617 175 595 175 566 c 0
 175 538 153 516 124 516 c 0xe0
44 -3 m 0
 32 -3 24 0 24 8 c 0
 24 18 36 21 47 24 c 0
 75 31 90 38 90 62 c 2
 90 279 l 2
 90 315 79 347 45 352 c 0
 38 353 35 357 35 365 c 0
 35 372 38 376 44 377 c 0
 97 389 132 413 149 427 c 0
 154 431 159 434 163 434 c 0
 167 434 169 432 169 429 c 0
 169 413 160 339 160 294 c 2
 160 62 l 2xd0
 160 39 176 31 203 24 c 0
 214 21 226 18 226 8 c 0
 226 0 219 -3 206 -3 c 0
 168 -3 160 2 125 2 c 0
 90 2 83 -3 44 -3 c 0
EndSplineSet
Substitution2: "'dtls' Dotless Forms in Mathematical Alphanumeric Symbols lookup 1 subtable" dotlessi
AlternateSubs2: "'ssty' Script Style in Mathematical Alphanumeric Symbols lookup 2 subtable" i.s i.ss
EndChar

StartChar: j
Encoding: 106 106 48
Width: 226
GlyphClass: 2
Flags: W
TeX: 617 287
TopAccentHorizontal: 116
HStem: -287 27<-19.3848 18.4884> 516 101<75.1171 157.823>
VStem: 66 101<525.117 607.823> 89 70<-125.075 340.129>
LayerCount: 2
Fore
SplineSet
116 516 m 0xe0
 88 516 66 538 66 566 c 0
 66 595 88 617 116 617 c 0
 145 617 167 595 167 566 c 0
 167 538 145 516 116 516 c 0xe0
1 -287 m 0
 -6 -287 -20 -284 -20 -277 c 0
 -20 -269 -11 -261 -9 -260 c 0
 15 -254 38 -237 57 -197 c 0
 86 -136 89 0 89 69 c 2
 89 279 l 2
 89 315 77 345 43 352 c 0
 38 353 35 359 35 365 c 0
 35 370 38 376 42 377 c 0
 92 389 127 415 146 427 c 0
 153 431 157 434 159 434 c 0
 163 434 166 432 166 429 c 0
 162 388 159 320 159 275 c 2
 159 91 l 2xd0
 159 29 158 -72 129 -152 c 0
 104 -220 41 -287 1 -287 c 0
EndSplineSet
Substitution2: "'dtls' Dotless Forms in Mathematical Alphanumeric Symbols lookup 1 subtable" dotlessj
AlternateSubs2: "'ssty' Script Style in Mathematical Alphanumeric Symbols lookup 2 subtable" j.s j.ss
EndChar

StartChar: k
Encoding: 107 107 49
Width: 469
GlyphClass: 2
Flags: W
TeX: 705 3
ItalicCorrection: 33
TopAccentHorizontal: 121
HStem: -3 27<19.3057 71.766 164.421 212.685 254.143 293.768 423.515 478.593> 206 19<155 171.891> 378 22<273.093 309.401> 384 28<389.323 447.893>
VStem: 85 70<32.0327 205.999 225.002 627.924>
LayerCount: 2
Fore
SplineSet
42 -3 m 0xd8
 27 -3 19 0 19 8 c 0
 19 18 31 20 42 24 c 0
 62 30 85 38 85 65 c 2
 85 566 l 2
 85 613 73 631 40 639 c 0
 34 640 31 646 31 652 c 0
 31 658 34 663 39 664 c 0
 90 676 119 689 149 702 c 0
 153 704 155 705 158 705 c 0
 162 705 164 702 164 696 c 0
 164 682 155 647 155 562 c 2
 155 234 l 2
 155 228 157 225 160 225 c 0
 168 225 181 232 196 245 c 0
 250 292 289 333 302 348 c 0
 309 356 311 360 311 363 c 0
 311 370 297 375 285 378 c 0
 276 380 273 382 273 388 c 0
 273 395 281 400 295 400 c 2
 344 400 l 2xe8
 375 400 416 412 435 412 c 0
 444 412 449 408 449 402 c 0
 449 394 438 388 424 384 c 0
 399 377 376 364 358 353 c 0
 345 345 278 289 230 247 c 0
 226 243 224 240 224 237 c 0
 224 235 225 232 227 230 c 0
 278 166 353 91 374 72 c 0
 396 51 429 33 449 26 c 0
 463 21 479 18 479 8 c 0
 479 -1 471 -3 459 -3 c 0
 407 -3 340 0 272 0 c 0
 258 0 254 4 254 9 c 0
 254 17 262 22 271 25 c 0
 286 30 298 36 298 48 c 0
 298 52 295 57 291 62 c 2
 170 199 l 2
 166 204 164 206 160 206 c 0
 157 206 155 204 155 199 c 0
 154 180 154 158 154 135 c 0
 154 112 154 88 155 65 c 0
 155 38 170 30 190 24 c 0
 201 20 213 18 213 8 c 0
 213 -2 195 -3 190 -3 c 0
 151 -3 155 2 120 2 c 0
 85 2 81 -3 42 -3 c 0xd8
EndSplineSet
AlternateSubs2: "'ssty' Script Style in Mathematical Alphanumeric Symbols lookup 2 subtable" k.s k.ss
EndChar

StartChar: l
Encoding: 108 108 50
Width: 240
GlyphClass: 2
Flags: W
TeX: 705 3
ItalicCorrection: 7
TopAccentHorizontal: 120
HStem: -3 27<20.0556 73.9702 166.03 219.944>
VStem: 85 70<31.1488 627.687>
LayerCount: 2
Fore
SplineSet
39 -3 m 0
 32 -3 19 -2 19 6 c 0
 19 16 31 20 42 24 c 0
 62 30 85 35 85 62 c 2
 85 566 l 2
 85 605 72 632 39 639 c 0
 34 640 31 646 31 652 c 0
 31 658 34 663 38 664 c 0
 89 676 119 691 151 703 c 0
 153 704 155 705 157 705 c 0
 160 705 162 701 162 698 c 0
 162 686 155 652 155 562 c 2
 155 62 l 2
 155 35 178 30 198 24 c 0
 209 20 221 16 221 6 c 0
 221 -2 208 -3 201 -3 c 0
 162 -3 155 2 120 2 c 0
 85 2 78 -3 39 -3 c 0
EndSplineSet
AlternateSubs2: "'ssty' Script Style in Mathematical Alphanumeric Symbols lookup 2 subtable" l.s l.ss
EndChar

StartChar: m
Encoding: 109 109 51
Width: 778
GlyphClass: 2
Flags: W
TeX: 430 3
ItalicCorrection: 25
TopAccentHorizontal: 390
HStem: -3 27<24.3497 78.6472 171.03 225.694 287.314 342.563 435.843 491.65 553.282 608.293 700.03 754.65> 367 47<229.814 347 496.451 621.5>
VStem: 90 70<31.1488 335.036> 354 70<31.541 334.103> 619 70<31.1488 332.312>
LayerCount: 2
Fore
SplineSet
44 -3 m 0
 33 -3 24 -1 24 8 c 0
 24 17 34 20 47 24 c 0
 66 30 90 35 90 62 c 2
 90 277 l 2
 90 313 86 343 52 349 c 0
 46 350 43 354 43 362 c 0
 43 370 46 373 51 374 c 0
 105 387 117 403 153 426 c 0
 155 427 158 430 162 430 c 0
 165 430 168 427 168 423 c 0
 168 414 163 378 163 359 c 0
 163 353 164 348 165 347 c 2
 167 347 l 1
 197 376 246 414 323 414 c 0
 371 414 402 396 423 345 c 1
 426 345 l 1
 469 383 524 414 589 414 c 0
 654 414 689 345 689 275 c 2
 689 62 l 2
 689 35 712 30 732 24 c 0
 745 20 755 17 755 8 c 0
 755 0 750 -3 735 -3 c 0
 695 -3 691 2 656 2 c 0
 621 2 613 -3 573 -3 c 0
 561 -3 553 0 553 8 c 0
 553 18 563 21 576 24 c 0
 597 29 619 35 619 62 c 2
 619 272 l 2
 619 320 582 367 539 367 c 0
 505 367 477 360 452 340 c 0
 434 326 424 303 424 268 c 2
 424 62 l 2
 424 35 449 29 469 24 c 0
 482 21 492 17 492 8 c 0
 492 0 485 -3 472 -3 c 0
 432 -3 425 2 390 2 c 0
 355 2 347 -3 307 -3 c 0
 296 -3 287 0 287 8 c 0
 287 18 299 20 310 24 c 0
 330 30 354 35 354 62 c 2
 354 272 l 2
 354 320 317 367 274 367 c 0
 240 367 212 360 187 340 c 0
 168 326 160 302 160 268 c 2
 160 62 l 2
 160 35 183 30 203 24 c 0
 214 20 226 18 226 8 c 0
 226 0 218 -3 206 -3 c 0
 166 -3 160 2 125 2 c 0
 90 2 84 -3 44 -3 c 0
EndSplineSet
AlternateSubs2: "'ssty' Script Style in Mathematical Alphanumeric Symbols lookup 2 subtable" m.s m.ss
EndChar

StartChar: n
Encoding: 110 110 52
Width: 528
GlyphClass: 2
Flags: W
TeX: 430 3
ItalicCorrection: 13
TopAccentHorizontal: 264
HStem: -3 27<24.2101 78.9702 171.03 225.668 304.056 357.97 450.03 504.003> 366 48<228.999 338.812>
VStem: 90 70<30.7063 325.762> 369 70<31.1488 335.799>
LayerCount: 2
Fore
SplineSet
44 -3 m 0
 32 -3 24 0 24 8 c 0
 24 18 32 20 47 24 c 0
 67 29 90 35 90 62 c 2
 90 277 l 2
 90 313 87 340 53 349 c 0
 47 351 43 354 43 362 c 0
 43 369 46 373 52 374 c 0
 98 386 124 404 152 425 c 0
 156 428 159 430 163 430 c 0
 166 430 168 427 168 423 c 0
 168 414 163 378 163 359 c 0
 163 353 164 348 165 347 c 0
 212 392 263 414 326 414 c 0
 391 414 439 353 439 275 c 2
 439 62 l 2
 439 35 462 30 482 24 c 0
 493 20 505 16 505 6 c 0
 505 -2 493 -3 485 -3 c 0
 445 -3 440 2 405 2 c 0
 370 2 363 -3 323 -3 c 0
 316 -3 303 -2 303 6 c 0
 303 16 315 20 326 24 c 0
 346 30 369 35 369 62 c 2
 369 272 l 2
 369 330 333 365 279 366 c 0
 231 366 196 349 168 326 c 0
 163 321 160 311 160 303 c 2
 160 62 l 2
 160 35 183 29 203 24 c 0
 219 20 226 16 226 8 c 0
 226 0 219 -3 206 -3 c 0
 166 -3 160 2 125 2 c 0
 90 2 84 -3 44 -3 c 0
EndSplineSet
AlternateSubs2: "'ssty' Script Style in Mathematical Alphanumeric Symbols lookup 2 subtable" n.s n.ss
EndChar

StartChar: o
Encoding: 111 111 53
Width: 495
GlyphClass: 2
Flags: W
TeX: 414 14
TopAccentHorizontal: 248
HStem: -14 30<203.025 317.686> 383 31<177.889 291.342>
VStem: 35 82<109.934 279.37> 378 82<111.572 289.08>
LayerCount: 2
Fore
SplineSet
234 -14 m 0
 122 -14 35 70 35 187 c 0
 35 298 131 414 254 414 c 0
 370 414 460 321 460 213 c 0
 460 96 384 -14 234 -14 c 0
255 16 m 0
 300 16 338 32 358 71 c 0
 374 102 378 150 378 189 c 0
 378 284 322 383 237 383 c 0
 201 383 173 374 149 343 c 0
 122 309 117 258 117 210 c 0
 117 111 175 16 255 16 c 0
EndSplineSet
AlternateSubs2: "'ssty' Script Style in Mathematical Alphanumeric Symbols lookup 2 subtable" o.s o.ss
EndChar

StartChar: p
Encoding: 112 112 54
Width: 519
GlyphClass: 2
Flags: W
TeX: 426 285
TopAccentHorizontal: 252
HStem: -285 27<19.9975 73.9702 172.131 235.003> -14 31<227.473 322.672> 369 45<232.033 339.995>
VStem: 85 70<-246.875 17.9674 86.2615 336.424> 404 80<127.023 298.226>
LayerCount: 2
Fore
SplineSet
40 -285 m 0
 33 -285 19 -284 19 -276 c 0
 19 -266 31 -262 42 -258 c 0
 62 -252 85 -247 85 -220 c 2
 85 287 l 2
 85 302 72 353 39 360 c 0
 34 361 31 367 31 373 c 0
 31 379 34 384 38 385 c 0
 89 397 122 412 154 425 c 0
 155 425 155 426 156 426 c 0
 159 426 162 421 162 417 c 0
 162 405 157 373 157 357 c 0
 157 353 157 349 158 348 c 1
 177 367 257 414 320 414 c 0
 423 414 484 319 484 225 c 0
 484 106 385 -14 259 -14 c 0
 231 -14 179 0 159 18 c 0
 156 18 155 -27 155 -33 c 2
 155 -220 l 2
 155 -247 193 -252 213 -258 c 0
 224 -262 236 -266 236 -276 c 0
 236 -284 222 -285 214 -285 c 0
 175 -285 155 -280 120 -280 c 0
 85 -280 79 -285 40 -285 c 0
274 17 m 0
 313 17 404 59 404 193 c 0
 404 347 311 369 268 369 c 0
 220 369 158 331 158 317 c 0
 158 259 155 190 155 166 c 0
 155 85 220 17 274 17 c 0
EndSplineSet
AlternateSubs2: "'ssty' Script Style in Mathematical Alphanumeric Symbols lookup 2 subtable" p.s p.ss
EndChar

StartChar: q
Encoding: 113 113 55
Width: 522
GlyphClass: 2
Flags: W
TeX: 421 285
ItalicCorrection: 16
TopAccentHorizontal: 278
HStem: -285 27<312.056 365.97 461.69 521.003> -14 53<191.053 311.347> 382 32<198.653 318.636>
VStem: 35 82<112.735 280.438> 377 70<-248.32 42.9948 62.939 335.223>
LayerCount: 2
Fore
SplineSet
331 -285 m 0
 324 -285 311 -284 311 -276 c 0
 311 -266 323 -262 334 -258 c 0
 354 -252 377 -247 377 -220 c 2
 377 13 l 2
 377 36 375 43 371 43 c 0
 368 43 365 44 362 41 c 0
 345 26 288 -14 235 -14 c 0
 131 -14 35 54 35 178 c 0
 35 319 135 414 282 414 c 0
 350 414 405 392 410 392 c 0
 424 392 429 402 436 417 c 0
 437 418 440 421 443 421 c 0
 449 421 459 416 459 411 c 0
 459 398 447 352 447 295 c 2
 447 -220 l 2
 447 -247 479 -252 499 -258 c 0
 510 -262 522 -266 522 -276 c 0
 522 -284 510 -285 502 -285 c 0
 462 -285 448 -280 412 -280 c 0
 377 -280 371 -285 331 -285 c 0
272 39 m 0
 316 39 361 61 378 80 c 1
 378 116 378 250 377 275 c 0
 375 335 323 382 257 382 c 0
 185 382 117 320 117 205 c 0
 117 72 212 39 272 39 c 0
EndSplineSet
AlternateSubs2: "'ssty' Script Style in Mathematical Alphanumeric Symbols lookup 2 subtable" q.s q.ss
EndChar

StartChar: r
Encoding: 114 114 56
Width: 334
GlyphClass: 2
Flags: W
TeX: 430 3
ItalicCorrection: 30
TopAccentHorizontal: 179
HStem: -3 27<29.2179 79.1431 179.701 236.682> 348 66<217.503 308.124>
VStem: 90 71<35.8108 329.917>
LayerCount: 2
Fore
SplineSet
49 -3 m 0
 35 -3 29 0 29 8 c 0
 29 18 37 20 52 24 c 0
 77 30 90 43 90 62 c 2
 90 277 l 2
 90 313 82 342 49 349 c 0
 44 350 39 356 39 362 c 0
 39 368 44 373 48 374 c 0
 83 385 126 410 147 423 c 0
 155 428 159 430 162 430 c 0
 165 430 167 427 167 423 c 0
 167 416 166 380 164 348 c 0
 164 347 165 346 166 346 c 0
 198 385 242 414 281 414 c 0
 309 414 329 400 329 382 c 0
 329 362 310 330 290 330 c 0
 282 330 272 334 262 339 c 0
 251 343 240 348 230 348 c 0
 198 348 161 331 161 264 c 2
 161 62 l 2
 161 44 181 34 214 24 c 0
 228 20 237 17 237 8 c 0
 237 0 231 -3 217 -3 c 0
 177 -3 165 2 130 2 c 0
 95 2 89 -3 49 -3 c 0
EndSplineSet
AlternateSubs2: "'ssty' Script Style in Mathematical Alphanumeric Symbols lookup 2 subtable" r.s r.ss
EndChar

StartChar: s
Encoding: 115 115 57
Width: 323
GlyphClass: 2
Flags: W
TeX: 414 14
TopAccentHorizontal: 160
HStem: -14 27<106.123 194.213> 386 28<129.148 214.037>
VStem: 47 60<278.853 366.281> 223 68<40.6028 130.779>
LayerCount: 2
Fore
SplineSet
144 -14 m 0
 103 -14 65 -1 40 22 c 1
 33 36 30 79 29 102 c 0
 29 108 35 111 42 111 c 0
 47 111 53 109 54 104 c 0
 71 38 114 13 153 13 c 0
 192 13 223 42 223 81 c 0
 223 117 202 138 142 175 c 0
 74 217 47 249 47 299 c 0
 47 363 92 414 182 414 c 0
 222 414 249 404 262 395 c 1
 272 380 281 344 281 316 c 0
 281 311 276 309 271 309 c 0
 263 309 254 313 252 318 c 0
 234 362 209 386 171 386 c 0
 138 386 107 365 107 327 c 0
 107 296 122 276 176 245 c 0
 253 201 291 170 291 108 c 0
 291 36 231 -14 144 -14 c 0
EndSplineSet
AlternateSubs2: "'ssty' Script Style in Mathematical Alphanumeric Symbols lookup 2 subtable" s.s s.ss
EndChar

StartChar: t
Encoding: 116 116 58
Width: 314
GlyphClass: 2
Flags: W
TeX: 475 14
ItalicCorrection: 29
TopAccentHorizontal: 170
HStem: -14 55<173.591 262.431> 352 48<156.312 303.775>
VStem: 85 70<58.7654 351.595>
LayerCount: 2
Fore
SplineSet
189 -14 m 0
 124 -14 85 26 85 105 c 2
 85 337 l 2
 85 348 79 352 53 352 c 2
 47 352 l 2
 40 352 35 362 35 372 c 0
 35 375 40 382 42 383 c 0
 81 410 113 441 131 463 c 0
 137 470 141 475 148 475 c 0
 154 475 162 473 161 464 c 2
 156 419 l 2
 154 404 163 400 180 400 c 2
 294 400 l 2
 299 400 304 390 304 378 c 0
 304 366 299 352 294 352 c 2
 195 352 l 2
 161 352 155 351 155 324 c 2
 155 127 l 2
 155 73 178 41 221 41 c 0
 260 41 278 47 295 59 c 0
 296 60 298 61 299 61 c 0
 304 61 306 54 306 47 c 0
 306 36 250 -14 189 -14 c 0
EndSplineSet
AlternateSubs2: "'ssty' Script Style in Mathematical Alphanumeric Symbols lookup 2 subtable" t.s t.ss
EndChar

StartChar: u
Encoding: 117 117 59
Width: 527
GlyphClass: 2
Flags: W
TeX: 415 19
ItalicCorrection: 7
TopAccentHorizontal: 273
HStem: -19 56<186.992 285.45> 21 27<456.48 516.994> 365 32<280.029 350.896>
VStem: 85 70<71.1627 353.726> 368 70<45.8513 57 77.7796 352.364>
LayerCount: 2
Fore
SplineSet
366 -19 m 0xb8
 361 -19 359 -16 359 -11 c 0
 359 2 364 34 364 51 c 2
 364 57 l 1
 312 6 261 -14 199 -14 c 0
 134 -14 85 27 85 105 c 2
 85 308 l 2
 85 337 72 353 42 365 c 0
 35 367 29 370 29 381 c 0
 29 393 36 396 44 397 c 0
 89 400 106 404 143 413 c 0
 147 414 148 414 151 414 c 0
 157 414 162 411 161 400 c 0
 157 369 155 353 155 323 c 2
 155 128 l 2
 155 80 196 37 239 37 c 0xb8
 273 37 298 38 323 57 c 0
 338 68 368 91 368 132 c 2
 368 315 l 2
 368 356 321 365 301 365 c 0
 289 365 280 368 280 382 c 0
 280 394 290 397 301 397 c 0
 362 398 388 403 424 413 c 0
 427 414 431 415 434 415 c 0
 441 415 447 411 447 404 c 0
 447 402 446 399 445 395 c 0
 443 388 438 342 438 326 c 2
 438 95 l 2
 438 59 446 45 456 45 c 0
 466 45 492 48 502 48 c 0
 509 48 517 47 517 35 c 0
 517 24 511 22 503 21 c 0x78
 451 14 415 -1 386 -13 c 0
 382 -15 372 -19 366 -19 c 0xb8
EndSplineSet
AlternateSubs2: "'ssty' Script Style in Mathematical Alphanumeric Symbols lookup 2 subtable" u.s u.ss
EndChar

StartChar: v
Encoding: 118 118 60
Width: 438
GlyphClass: 2
Flags: W
TeX: 405 21
ItalicCorrection: 5
TopAccentHorizontal: 224
HStem: 378 27<155.71 192.076 271.785 313.345 397.433 442.165>
VStem: 320 123<330.5 400>
LayerCount: 2
Fore
SplineSet
214 -21 m 2
 209 -21 199 8 196 17 c 0
 187 39 179 65 171 87 c 0
 141 170 106 247 74 329 c 0
 64 353 43 374 23 380 c 0
 12 384 5 387 5 396 c 0
 5 404 18 405 25 405 c 0
 64 405 63 400 98 400 c 0
 133 400 134 405 173 405 c 0
 180 405 193 404 193 396 c 0
 193 386 182 382 170 378 c 0
 156 373 150 356 150 337 c 0
 150 328 151 318 154 310 c 2
 233 100 l 2
 234 99 235 99 236 100 c 2
 312 295 l 2
 317 308 320 325 320 336 c 0
 320 362 312 371 294 378 c 0
 277 384 271 387 271 396 c 0
 271 404 282 405 291 405 c 0
 306 405 329 400 364 400 c 0
 399 400 404 405 423 405 c 0
 433 405 443 404 443 396 c 0
 443 387 436 383 420 378 c 0
 400 372 372 344 358 311 c 2
 280 123 l 2
 275 112 242 24 242 24 c 1
 242 24 227 -12 220 -21 c 1
 214 -21 l 2
EndSplineSet
AlternateSubs2: "'ssty' Script Style in Mathematical Alphanumeric Symbols lookup 2 subtable" v.s v.ss
EndChar

StartChar: w
Encoding: 119 119 61
Width: 685
GlyphClass: 2
Flags: W
TeX: 405 23
TopAccentHorizontal: 348
HStem: 378 27<6.05563 53.3292 162.927 199.997 252.997 299.151 402.984 449.944 518.056 561.145 647.56 689.003>
VStem: 326 68<275.812 361.27> 575 115<329.5 400>
LayerCount: 2
Fore
SplineSet
226 -23 m 0
 223 -23 220 -20 219 -16 c 2
 80 329 l 2
 70 355 48 372 28 378 c 0
 17 382 5 386 5 396 c 0
 5 404 18 405 25 405 c 0
 50 405 72 400 98 400 c 0
 126 400 153 405 181 405 c 0
 186 405 201 404 201 396 c 0
 201 386 189 382 178 378 c 0
 164 374 157 357 157 338 c 0
 157 329 159 320 162 312 c 2
 240 111 l 2
 241 108 243 107 245 107 c 0
 247 107 249 108 250 111 c 2
 318 273 l 2
 325 290 326 306 326 321 c 0
 326 350 298 369 275 378 c 0
 264 382 252 386 252 396 c 0
 252 404 264 405 272 405 c 0
 290 405 310 400 347 400 c 0
 384 400 409 405 431 405 c 0
 438 405 451 404 451 396 c 0
 451 386 439 382 428 378 c 0
 413 373 394 366 394 342 c 0
 394 334 396 324 401 312 c 2
 476 119 l 2
 479 112 482 108 484 108 c 0
 487 108 489 111 492 118 c 2
 568 295 l 2
 573 306 575 325 575 334 c 0
 575 358 555 373 540 378 c 0
 529 382 517 386 517 396 c 0
 517 404 530 405 537 405 c 0
 566 405 576 400 612 400 c 0
 649 400 648 405 670 405 c 0
 678 405 690 404 690 396 c 0
 690 386 678 382 667 378 c 0
 647 372 627 342 614 312 c 2
 477 -16 l 2
 475 -20 472 -23 468 -23 c 0
 465 -23 462 -20 460 -16 c 2
 356 242 l 2
 354 247 352 250 350 251 c 0
 348 251 346 248 343 241 c 2
 234 -16 l 2
 232 -20 229 -23 226 -23 c 0
EndSplineSet
AlternateSubs2: "'ssty' Script Style in Mathematical Alphanumeric Symbols lookup 2 subtable" w.s w.ss
EndChar

StartChar: x
Encoding: 120 120 62
Width: 430
GlyphClass: 2
Flags: W
TeX: 405 4
ItalicCorrection: 7
TopAccentHorizontal: 218
HStem: -4 27<10.8293 59.5132 225.072 269.25 376 424.171> 378 27<28.6054 74.1812 165.28 203.839 357.953 411.003>
LayerCount: 2
Fore
SplineSet
30 -4 m 0
 22 -4 10 -3 10 5 c 0
 10 16 22 20 33 23 c 0
 53 29 72 41 100 80 c 2
 177 187 l 2
 186 198 184 202 179 210 c 2
 97 335 l 2
 81 361 71 371 51 377 c 0
 40 380 28 384 28 395 c 0
 28 405 46 404 51 404 c 0
 90 404 81 400 130 400 c 0
 154 400 158 402 181 402 c 0
 186 402 204 403 204 393 c 0
 204 385 195 382 186 379 c 0
 176 376 165 373 165 362 c 0
 165 355 170 343 178 330 c 2
 224 261 l 2
 227 256 230 257 233 261 c 2
 284 338 l 2
 289 345 292 353 292 360 c 0
 292 367 289 373 279 376 c 0
 268 380 256 384 256 394 c 0
 256 404 274 403 279 403 c 0
 289 403 313 400 329 400 c 0
 366 400 375 405 392 405 c 0
 400 405 412 404 412 396 c 0
 412 386 400 382 389 378 c 0
 369 372 337 358 318 331 c 2
 255 236 l 2
 253 233 252 228 256 223 c 2
 353 65 l 2
 369 39 382 29 402 23 c 0
 413 20 425 16 425 5 c 0
 425 -3 413 -4 405 -4 c 0
 364 -4 371 0 321 0 c 0
 297 0 271 -2 248 -2 c 0
 231 -2 225 3 225 8 c 0
 225 20 234 24 250 28 c 0
 264 32 278 38 278 52 c 0
 278 57 276 63 272 70 c 2
 213 166 l 2
 212 167 208 167 207 166 c 2
 141 67 l 2
 139 64 136 56 136 48 c 0
 136 39 140 29 150 26 c 0
 161 22 173 18 173 8 c 0
 173 -2 155 -1 150 -1 c 0
 139 -1 113 1 97 1 c 0
 60 1 48 -4 30 -4 c 0
EndSplineSet
AlternateSubs2: "'ssty' Script Style in Mathematical Alphanumeric Symbols lookup 2 subtable" x.s x.ss
EndChar

StartChar: y
Encoding: 121 121 63
Width: 438
GlyphClass: 2
Flags: W
TeX: 405 285
ItalicCorrection: 3
TopAccentHorizontal: 224
HStem: -285 86<17.5102 114.448> 378 27<6.05563 49.8994 152.137 193.546 399.046 441.944>
VStem: 13 116<-271.156 -206.881> 322 121<327 400>
LayerCount: 2
Fore
SplineSet
64 -285 m 0
 38 -285 13 -274 13 -244 c 0
 13 -220 25 -199 46 -199 c 0
 61 -199 75 -205 86 -205 c 0
 94 -205 100 -202 105 -194 c 0
 127 -159 161 -93 190 -16 c 0
 192 -10 193 -2 193 7 c 0
 193 18 192 28 189 36 c 2
 73 329 l 2
 63 353 48 372 28 378 c 0
 17 382 5 386 5 396 c 0
 5 404 18 405 25 405 c 0
 65 405 63 400 98 400 c 0
 133 400 134 405 174 405 c 0
 182 405 194 402 194 394 c 0
 194 384 176 375 165 372 c 0
 151 368 145 359 145 340 c 0
 145 332 150 319 153 312 c 2
 234 112 l 2
 235 109 237 106 240 106 c 0
 242 106 244 109 245 112 c 2
 314 295 l 2
 318 304 322 322 322 332 c 0
 322 357 314 365 302 370 c 0
 291 375 273 384 273 394 c 0
 273 402 286 405 293 405 c 0
 311 405 327 400 364 400 c 0
 401 400 401 405 423 405 c 0
 430 405 443 404 443 396 c 0
 443 386 431 382 420 378 c 0
 400 372 374 343 361 311 c 2
 225 -13 l 2
 221 -22 170 -148 129 -244 c 0
 117 -271 93 -285 64 -285 c 0
EndSplineSet
AlternateSubs2: "'ssty' Script Style in Mathematical Alphanumeric Symbols lookup 2 subtable" y.s y.ss
EndChar

StartChar: z
Encoding: 122 122 64
Width: 377
GlyphClass: 2
Flags: W
TeX: 416 5
TopAccentHorizontal: 200
HStem: -5 38<124.728 292.781> 368 33<101.002 246.22>
VStem: 35 22<291.683 308.547>
LayerCount: 2
Fore
SplineSet
39 -5 m 0
 34 -5 25 7 25 12 c 0
 25 17 48 51 62 70 c 0
 129 166 180 242 253 358 c 0
 256 362 259 368 244 368 c 2
 145 371 l 2
 126 372 109 360 101 352 c 0
 86 337 71 312 57 294 c 0
 49 286 31 293 35 304 c 0
 41 322 54 373 54 398 c 0
 54 408 65 416 69 416 c 0
 72 416 78 412 84 407 c 0
 90 402 109 401 127 401 c 0
 142 401 156 402 165 402 c 0
 234 402 290 403 351 405 c 0
 356 405 361 397 358 393 c 0
 344 376 333 363 320 343 c 2
 125 48 l 2
 119 38 125 33 134 33 c 2
 252 33 l 2
 267 33 282 41 297 56 c 0
 313 72 332 100 352 129 c 0
 358 138 374 133 374 122 c 0
 374 114 349 25 344 9 c 0
 342 0 336 -5 328 -5 c 0
 299 -5 228 0 119 0 c 0
 91 0 56 -5 39 -5 c 0
EndSplineSet
AlternateSubs2: "'ssty' Script Style in Mathematical Alphanumeric Symbols lookup 2 subtable" z.s z.ss
EndChar

StartChar: braceleft
Encoding: 123 123 65
Width: 396
GlyphClass: 2
Flags: W
TeX: 683 300
GlyphVariantsVertical: braceleft braceleft.v1 braceleft.v2 braceleft.v3 braceleft.v4 braceleft.v5 braceleft.v6 braceleft.v7 braceleft.v8 braceleft.v9 braceleft.v10 braceleft.v11 braceleft.v12 braceleft.v13 braceleft.v14 braceleft.v15 braceleft.v16 braceleft.v17 braceleft.v18 braceleft.v19 braceleft.v20
GlyphCompositionVertical: 5  uni23A9%0,0,400,1734 braceleft.ex%1,800,800,800 uni23A8%0,400,400,3464 braceleft.ex%1,800,800,800 uni23A7%0,400,0,1737
HStem: 654 29<262.143 345.974>
VStem: 133 85<-117.689 118.197 379.803 615.561> 146 85<-51.7816 174.392 323.542 549.782>
LayerCount: 2
Fore
SplineSet
325 -184 m 0xc0
 231 -178 133 -146 133 -52 c 0xc0
 133 18 146 64 146 126 c 0
 146 184 102 224 59 234 c 0
 50 236 40 242 40 250 c 0
 40 256 46 266 61 270 c 0
 114 284 146 314 146 372 c 0xa0
 146 434 133 480 133 550 c 0
 133 644 234 679 328 683 c 0
 337 683 346 677 346 668 c 0
 346 657 331 655 320 654 c 0
 256 646 218 629 218 556 c 0xc0
 218 488 231 440 231 382 c 0
 231 316 155 269 113 252 c 0
 109 250 112 249 115 248 c 0
 148 239 231 182 231 116 c 0xa0
 231 58 218 10 218 -58 c 0
 218 -131 253 -151 317 -157 c 0
 328 -158 343 -157 343 -168 c 0
 343 -177 334 -185 325 -184 c 0xc0
EndSplineSet
EndChar

StartChar: bar
Encoding: 124 124 66
Width: 204
GlyphClass: 2
Flags: W
TeX: 725 300
GlyphVariantsVertical: bar divides.v1 divides.v2 divides.v3 divides.v4 divides.v5 divides.v6 divides.v7 divides.v8 divides.v9 divides.v10 divides.v11 divides.v12 divides.v13 divides.v14 divides.v15 divides.v16 divides.v17 divides.v18 divides.v19 divides.v20
GlyphCompositionVertical: 3  divides.bt%0,0,1000,2375 divides.ex%1,500,500,500 divides.tp%0,1000,0,2375
VStem: 76 52<-222.047 722.047>
LayerCount: 2
Fore
SplineSet
128 -209 m 2
 128 -217 121 -225 115 -225 c 0
 95 -225 76 -214 76 -194 c 2
 76 709 l 2
 76 717 83 725 89 725 c 0
 109 725 128 714 128 694 c 2
 128 -209 l 2
EndSplineSet
EndChar

StartChar: braceright
Encoding: 125 125 67
Width: 396
GlyphClass: 2
Flags: W
TeX: 683 300
GlyphVariantsVertical: braceright braceright.v1 braceright.v2 braceright.v3 braceright.v4 braceright.v5 braceright.v6 braceright.v7 braceright.v8 braceright.v9 braceright.v10 braceright.v11 braceright.v12 braceright.v13 braceright.v14 braceright.v15 braceright.v16 braceright.v17 braceright.v18 braceright.v19 braceright.v20
GlyphCompositionVertical: 5  uni23AD%0,0,400,1734 braceright.ex%1,800,800,800 uni23AC%0,400,400,3464 braceright.ex%1,800,800,800 uni23AB%0,400,0,1737
HStem: -184 27<53.3112 132.194> 654 29<50.0261 133.857>
VStem: 165 85<-51.7816 174.392 323.542 549.782> 178 85<-117.689 118.197 379.803 615.561>
LayerCount: 2
Fore
SplineSet
71 -184 m 0xd0
 62 -185 53 -177 53 -168 c 0
 53 -157 68 -158 79 -157 c 0
 143 -151 178 -131 178 -58 c 0xd0
 178 10 165 58 165 116 c 0
 165 182 248 239 281 248 c 0
 284 249 287 250 283 252 c 0
 241 269 165 316 165 382 c 0xe0
 165 440 178 488 178 556 c 0
 178 629 140 646 76 654 c 0
 65 655 50 657 50 668 c 0
 50 677 59 683 68 683 c 0
 162 679 263 644 263 550 c 0xd0
 263 480 250 434 250 372 c 0
 250 314 282 284 335 270 c 0
 350 266 356 256 356 250 c 0
 356 242 346 236 337 234 c 0
 294 224 250 184 250 126 c 0xe0
 250 64 263 18 263 -52 c 0
 263 -146 165 -178 71 -184 c 0xd0
EndSplineSet
EndChar

StartChar: asciitilde
Encoding: 126 126 68
Width: 541
GlyphClass: 2
Flags: W
TeX: 320 -186
HStem: 186 66<301.467 435.406> 254 66<106.594 240.533>
LayerCount: 2
Fore
SplineSet
500 269 m 0
 455 207 424 186 379 186 c 0
 334 186 316 193 227 240 c 0
 210 249 189 254 168 254 c 0
 157 254 147 252 138 248 c 0
 113 236 75 214 48 214 c 0
 37 214 34 225 42 237 c 0
 87 299 118 320 163 320 c 0
 208 320 226 313 315 266 c 0
 332 257 353 252 374 252 c 0
 385 252 395 254 404 258 c 0
 429 270 467 292 494 292 c 0
 505 292 508 281 500 269 c 0
EndSplineSet
EndChar

StartChar: exclamdown
Encoding: 161 161 70
Width: 250
GlyphClass: 2
Flags: W
TeX: 494 169
HStem: 374 120<78.7454 171.255>
VStem: 65 120<387.745 480.255> 79 92<-159.994 142.078>
LayerCount: 2
Fore
SplineSet
125 494 m 0xc0
 158 494 185 467 185 434 c 0
 185 401 158 374 125 374 c 0
 92 374 65 401 65 434 c 0
 65 467 92 494 125 494 c 0xc0
123 275 m 0
 133 275 139 258 141 236 c 0
 153 123 171 -51 171 -114 c 0
 171 -143 153 -169 126 -169 c 0
 99 -169 79 -143 79 -114 c 0xa0
 79 -51 93 122 105 236 c 0
 108 265 113 275 123 275 c 0
EndSplineSet
EndChar

StartChar: cent
Encoding: 162 162 71
Width: 422
GlyphClass: 2
Flags: W
TeX: 579 13
HStem: -13 21G<197.5 206.5> 76 59<235.234 317.67> 474 28<184.969 235>
VStem: 35 67<214.871 372.833>
LayerCount: 2
Fore
SplineSet
202 -13 m 0
 193 -13 185 -7 186 2 c 2
 194 78 l 1
 109 93 35 179 35 278 c 0
 35 391 119 491 238 502 c 1
 242 562 l 2
 243 573 253 579 264 579 c 0
 272 579 278 570 277 562 c 2
 273 503 l 1
 312 501 353 488 380 455 c 0
 383 451 384 447 384 443 c 0
 384 430 361 409 347 409 c 0
 338 409 329 413 326 419 c 0
 312 444 296 462 269 469 c 1
 235 136 l 1
 240 135 245 135 250 135 c 0
 292 135 340 140 365 178 c 0
 367 181 370 183 374 183 c 0
 381 183 387 177 387 171 c 0
 387 170 387 168 386 167 c 0
 349 105 300 78 228 76 c 1
 221 2 l 2
 220 -7 211 -13 202 -13 c 0
200 143 m 1
 235 474 l 1
 233 474 l 2
 153 474 102 387 102 312 c 0
 102 225 142 165 200 143 c 1
EndSplineSet
EndChar

StartChar: sterling
Encoding: 163 163 72
Width: 490
GlyphClass: 2
Flags: W
TeX: 629 36
ItalicCorrection: 18
HStem: -36 68<286.635 396.3> 600 29<290.273 368.665>
VStem: 128 87<215.293 303 342 454.031> 395 55<498.208 580.552> 434 41<44.3526 153.83>
LayerCount: 2
Fore
SplineSet
435 167 m 0xe8
 461 167 475 139 475 111 c 0xe8
 475 40 405 -36 319 -36 c 0
 257 -36 219 -12 164 26 c 0
 142 42 110 55 100 55 c 0
 94 55 70 32 56 6 c 0
 45 -14 28 -25 13 -24 c 0
 0 -24 -10 -14 -10 6 c 0
 -10 47 35 81 86 91 c 0
 92 92 94 97 97 103 c 0
 114 135 123 220 128 303 c 1
 45 297 l 2
 38 297 31 303 31 309 c 0
 31 318 42 330 55 331 c 2
 130 336 l 1
 130 341 l 1
 137 474 199 629 350 629 c 0
 418 629 450 586 450 549 c 0
 450 518 434 491 406 491 c 0
 396 491 394 496 394 505 c 0
 394 511 395 519 395 527 c 0xf0
 394 565 369 600 332 600 c 0
 262 600 232 512 218 342 c 1
 351 351 l 2
 358 351 364 344 364 339 c 0
 364 332 348 318 333 317 c 2
 215 309 l 1
 204 218 161 124 135 102 c 0
 132 100 132 93 139 93 c 0
 193 93 233 76 271 60 c 0
 305 46 338 32 375 32 c 0
 413 32 434 53 434 77 c 0
 434 102 418 134 418 148 c 0
 418 157 425 167 435 167 c 0xe8
EndSplineSet
EndChar

StartChar: currency
Encoding: 164 164 73
Width: 506
GlyphClass: 2
Flags: W
TeX: 483 -57
ItalicCorrection: 50
HStem: 75 50<178.617 327.383> 415 50<179.424 327.383>
VStem: 61 50<194.664 345.223> 395 50<194.664 345.336>
LayerCount: 2
Fore
SplineSet
70 57 m 0
 57 57 40 74 40 87 c 0
 40 90 41 93 43 95 c 2
 100 152 l 1
 75 185 61 226 61 270 c 0
 61 314 75 355 100 387 c 1
 43 444 l 2
 41 446 40 448 40 451 c 0
 40 464 58 482 71 482 c 0
 74 482 77 481 79 479 c 2
 134 424 l 1
 167 449 208 465 253 465 c 0
 298 465 339 450 371 424 c 1
 427 480 l 2
 429 482 432 483 435 483 c 0
 447 483 465 467 465 453 c 0
 465 449 464 446 461 443 c 2
 406 388 l 1
 431 355 445 314 445 270 c 0
 445 226 431 185 406 152 c 1
 463 95 l 2
 465 93 466 91 466 88 c 0
 466 75 448 57 435 57 c 0
 432 57 429 58 427 60 c 2
 371 116 l 1
 339 90 298 75 253 75 c 0
 208 75 167 90 135 116 c 1
 78 60 l 2
 76 58 73 57 70 57 c 0
253 125 m 0
 332 125 395 191 395 270 c 0
 395 349 332 415 253 415 c 0
 174 415 111 349 111 270 c 0
 111 191 174 125 253 125 c 0
EndSplineSet
EndChar

StartChar: yen
Encoding: 165 165 74
Width: 570
GlyphClass: 2
Flags: W
TeX: 653 5
ItalicCorrection: 40
HStem: -5 29<153.692 226.247 382.753 455.308> 197 35<126.286 265 345 481.881> 280 35<126.286 255 350 482.881> 620 33<1.64938 58.7163 198.279 253.781 385.06 437.621 547.286 611.313>
VStem: 0 194<584 646> 265 80<51.375 197 232 280>
LayerCount: 2
Fore
SplineSet
182 -5 m 0
 165 -5 153 -2 153 6 c 0
 153 15 163 20 186 24 c 0
 236 33 264 60 264 108 c 2
 265 197 l 1
 139 197 l 2
 132 197 125 203 125 209 c 0
 125 218 136 232 149 232 c 2
 265 232 l 1
 265 256 l 2
 265 265 264 273 263 280 c 1
 139 280 l 2
 132 280 125 286 125 292 c 0
 125 301 136 315 149 315 c 2
 255 315 l 1
 122 522 l 2
 102 552 64 611 33 620 c 0
 11 627 0 633 0 642 c 0
 0 650 12 653 29 653 c 0
 59 653 100 650 146 650 c 0
 177 650 205 652 226 652 c 0
 243 652 255 649 255 641 c 0
 255 632 244 628 222 621 c 0
 211 617 194 608 194 588 c 0
 194 580 196 571 203 560 c 2
 296 395 l 2
 311 369 319 356 326 356 c 0
 334 356 342 370 357 395 c 2
 357 395 413 477 440 534 c 0
 445 545 447 557 447 568 c 0
 447 593 436 615 417 620 c 0
 403 624 384 631 384 640 c 0
 384 648 396 651 413 651 c 0
 443 651 459 650 488 650 c 0
 525 650 561 653 584 653 c 0
 601 653 613 650 613 642 c 0
 613 633 603 627 580 622 c 0
 545 615 501 557 480 526 c 0
 426 444 368 346 368 346 c 2
 360 334 353 323 350 315 c 1
 472 315 l 2
 479 315 485 310 485 304 c 0
 485 294 469 280 454 280 c 2
 345 280 l 1
 345 232 l 1
 471 232 l 2
 478 232 484 229 484 221 c 0
 484 211 468 197 453 197 c 2
 345 197 l 1
 345 108 l 2
 345 63 373 33 423 24 c 0
 446 20 456 15 456 6 c 0
 456 -2 444 -5 427 -5 c 0
 373 -5 356 0 310 0 c 0
 260 0 236 -5 182 -5 c 0
EndSplineSet
EndChar

StartChar: brokenbar
Encoding: 166 166 75
Width: 260
GlyphClass: 2
Flags: W
TeX: 705 290
VStem: 100 60<-286.107 171.668 282.519 698.117>
LayerCount: 2
Fore
SplineSet
112 276 m 0
 106 276 100 289 100 299 c 2
 100 674 l 2
 100 696 140 705 146 705 c 0
 153 705 160 699 160 692 c 2
 160 297 l 2
 160 287 121 276 112 276 c 0
112 -290 m 0
 106 -290 100 -283 100 -276 c 2
 100 156 l 2
 100 166 140 179 146 179 c 0
 153 179 160 167 160 157 c 2
 160 -266 l 2
 160 -287 121 -290 112 -290 c 0
EndSplineSet
EndChar

StartChar: degree
Encoding: 176 176 76
Width: 290
GlyphClass: 2
Flags: W
TeX: 645 -402
HStem: 402 42<94.6126 195.387> 602 43<93.9189 196.081>
VStem: 25 43<470.324 577.244> 222 43<469.771 576.766>
LayerCount: 2
Fore
SplineSet
145 402 m 0
 82 402 25 462 25 526 c 0
 25 590 82 645 145 645 c 0
 208 645 265 592 265 528 c 0
 265 464 208 402 145 402 c 0
145 444 m 0
 187 444 222 481 222 523 c 0
 222 567 187 602 145 602 c 0
 103 602 68 567 68 523 c 0
 68 481 103 444 145 444 c 0
EndSplineSet
EndChar

StartChar: acute
Encoding: 180 180 77
Width: 200
GlyphClass: 2
Flags: W
TeX: 649 -457
ItalicCorrection: 12
TopAccentHorizontal: 205
HStem: 457 192
VStem: 22 157
LayerCount: 2
Fore
SplineSet
30 457 m 0
 25 457 22 459 22 466 c 0
 22 470 23 476 26 484 c 0
 40 521 87 604 103 631 c 0
 109 641 120 649 130 649 c 0
 155 649 179 642 179 628 c 0
 179 620 175 616 169 607 c 0
 145 572 87 504 61 478 c 0
 47 464 37 457 30 457 c 0
EndSplineSet
EndChar

StartChar: cedilla
Encoding: 184 184 78
Width: 200
GlyphClass: 2
Flags: W
TeX: 8 274
HStem: -274 49<30.6023 108.545>
VStem: 128 50<-205.712 -133.987>
LayerCount: 2
Fore
SplineSet
53 -274 m 0
 32 -274 23 -264 23 -233 c 0
 23 -221 28 -214 36 -214 c 0
 46 -214 58 -225 89 -225 c 0
 115 -225 128 -206 128 -180 c 0
 128 -141 101 -123 69 -123 c 0
 56 -123 50 -129 43 -129 c 0
 36 -129 25 -123 25 -114 c 0
 25 -111 27 -107 30 -103 c 2
 118 8 l 1
 149 8 l 1
 111 -42 l 2
 108 -46 106 -49 106 -52 c 0
 106 -56 110 -60 117 -63 c 0
 149 -77 178 -106 178 -139 c 0
 178 -219 89 -274 53 -274 c 0
EndSplineSet
EndChar

StartChar: guillemotright
Encoding: 187 187 79
Width: 595
GlyphClass: 2
Flags: W
TeX: 400 -19
LayerCount: 2
Fore
SplineSet
71 19 m 0
 66 19 62 25 62 31 c 0
 62 34 63 37 65 40 c 0
 121 125 173 169 217 203 c 0
 225 209 225 211 217 217 c 0
 173 251 121 291 65 376 c 0
 62 381 60 386 60 391 c 0
 60 396 62 400 66 400 c 0
 78 400 90 387 95 382 c 0
 164 316 219 279 321 218 c 0
 323 217 324 214 324 211 c 0
 324 202 316 187 306 182 c 0
 247 155 170 104 101 37 c 0
 96 32 84 19 71 19 c 0
282 19 m 0
 277 19 273 25 273 31 c 0
 273 34 274 37 276 40 c 0
 332 125 384 169 428 203 c 0
 436 209 436 211 428 217 c 0
 384 251 332 291 276 376 c 0
 273 381 271 386 271 391 c 0
 271 396 273 400 277 400 c 0
 289 400 301 387 306 382 c 0
 375 316 430 279 532 218 c 0
 534 217 535 214 535 211 c 0
 535 202 527 187 517 182 c 0
 458 155 381 104 312 37 c 0
 307 32 295 19 282 19 c 0
EndSplineSet
EndChar

StartChar: multiply
Encoding: 215 215 80
Width: 550
GlyphClass: 2
Flags: W
TeX: 442 -57
LayerCount: 2
Fore
SplineSet
462 100 m 2
 481 81 448 65 435 65 c 0
 428 65 422 67 416 73 c 2
 282 206 l 2
 277 211 273 211 268 206 c 2
 125 63 l 2
 106 44 90 78 90 91 c 0
 90 98 93 104 99 110 c 2
 231 243 l 2
 236 248 236 252 231 257 c 2
 88 400 l 2
 69 419 103 435 116 435 c 0
 123 435 130 432 136 426 c 2
 268 294 l 2
 273 289 277 289 282 294 c 2
 426 437 l 2
 445 456 460 422 460 410 c 0
 460 403 458 396 452 390 c 2
 319 257 l 2
 314 252 314 248 319 243 c 2
 462 100 l 2
EndSplineSet
EndChar

StartChar: germandbls
Encoding: 223 223 81
Width: 504
GlyphClass: 2
Flags: W
TeX: 706 15
HStem: -15 56<300.315 389.166> -3 27<24.9975 73.9714 174.029 223.003> 352 24<27.0248 63.1752> 665 41<230.108 347.683>
VStem: 89 70<32.4474 350 389.856 539.479> 245 79<320.457 382.572> 391 63<503.629 624.193> 422 52<68.0071 149.356>
LayerCount: 2
Fore
SplineSet
314 -15 m 0xbd
 277 -15 241 -1 241 33 c 0
 241 59 247 81 265 81 c 0
 273 81 288 72 296 66 c 0
 320 46 334 41 365 41 c 0
 391 41 422 58 422 98 c 0xbd
 422 134 398 156 334 217 c 0
 256 292 245 302 245 336 c 0
 245 383 304 410 350 458 c 0
 373 482 391 519 391 555 c 0
 391 616 356 665 272 665 c 0
 206 665 159 613 159 475 c 2
 159 69 l 2
 159 41 181 30 201 24 c 0
 212 20 224 16 224 6 c 0
 224 -4 206 -3 201 -3 c 0
 162 -3 160 2 125 2 c 0
 90 2 86 -3 47 -3 c 0
 42 -3 24 -4 24 6 c 0
 24 16 36 20 47 24 c 0
 67 30 89 41 89 69 c 2
 89 350 l 1
 76 350 58 350 37 352 c 0
 33 353 26 362 26 369 c 0
 26 372 28 375 30 376 c 0
 60 384 71 392 89 402 c 1
 89 633 220 706 318 706 c 0
 397 706 454 644 454 572 c 0x7e
 454 528 437 497 375 443 c 0
 342 414 324 401 324 364 c 0
 324 336 339 327 401 266 c 0
 463 205 474 179 474 140 c 0
 474 58 391 -15 314 -15 c 0xbd
EndSplineSet
EndChar

StartChar: agrave
Encoding: 224 224 82
Width: 399
GlyphClass: 2
Flags: W
TeX: 649 14
ItalicCorrection: 26
HStem: -14 48<99 198.414 312.435 371.606> 365 49<153.283 253> 457 21G<220.5 226.5>
VStem: 37 78<42.5666 125.471 280.17 320.237> 238 68<58.3296 168.996 199.884 353.979>
LayerCount: 2
Fore
SplineSet
224 457 m 0
 217 457 207 464 193 478 c 0
 167 504 109 572 85 607 c 0
 79 616 75 620 75 628 c 0
 75 642 99 649 124 649 c 0
 134 649 145 641 151 631 c 0
 167 604 214 521 228 484 c 0
 231 476 232 470 232 466 c 0
 232 459 229 457 224 457 c 0
117 -14 m 0
 81 -14 37 35 37 72 c 0
 37 114 59 135 108 155 c 2
 210 197 l 2
 236 208 237 210 238 237 c 2
 240 301 l 2
 241 336 219 365 181 365 c 0
 161 365 139 358 126 347 c 0
 118 341 116 330 116 318 c 2
 117 300 l 2
 117 290 71 265 51 265 c 0
 44 265 40 269 40 274 c 0
 40 295 55 321 80 343 c 0
 125 384 189 414 229 414 c 0
 277 414 312 376 311 325 c 2
 306 85 l 2
 305 57 320 38 342 38 c 0
 359 38 370 41 379 49 c 0
 383 53 385 54 387 54 c 0
 393 54 398 49 398 43 c 0
 398 37 393 27 387 21 c 0
 366 0 339 -14 318 -14 c 0
 287 -14 263 3 245 38 c 1
 242 38 l 1
 198 2 160 -14 117 -14 c 0
164 34 m 0
 190 34 208 43 223 58 c 0
 230 65 235 74 236 99 c 2
 238 148 l 2
 239 163 237 169 229 169 c 0
 226 169 220 168 209 164 c 0
 138 138 115 110 115 87 c 0
 115 52 140 34 164 34 c 0
EndSplineSet
EndChar

StartChar: aacute
Encoding: 225 225 83
Width: 399
GlyphClass: 2
Flags: W
TeX: 649 14
ItalicCorrection: 26
HStem: -14 48<99 198.414 312.435 371.606> 365 49<153.283 253> 457 21G<174.5 180.5>
VStem: 37 78<42.5666 125.471 280.17 320.237> 238 68<58.3296 168.996 199.884 353.979>
LayerCount: 2
Fore
SplineSet
177 457 m 0
 172 457 169 459 169 466 c 0
 169 470 170 476 173 484 c 0
 187 521 234 604 250 631 c 0
 256 641 267 649 277 649 c 0
 302 649 326 642 326 628 c 0
 326 620 322 616 316 607 c 0
 292 572 234 504 208 478 c 0
 194 464 184 457 177 457 c 0
117 -14 m 0
 81 -14 37 35 37 72 c 0
 37 114 59 135 108 155 c 2
 210 197 l 2
 236 208 237 210 238 237 c 2
 240 301 l 2
 241 336 219 365 181 365 c 0
 161 365 139 358 126 347 c 0
 118 341 116 330 116 318 c 2
 117 300 l 2
 117 290 71 265 51 265 c 0
 44 265 40 269 40 274 c 0
 40 295 55 321 80 343 c 0
 125 384 189 414 229 414 c 0
 277 414 312 376 311 325 c 2
 306 85 l 2
 305 57 320 38 342 38 c 0
 359 38 370 41 379 49 c 0
 383 53 385 54 387 54 c 0
 393 54 398 49 398 43 c 0
 398 37 393 27 387 21 c 0
 366 0 339 -14 318 -14 c 0
 287 -14 263 3 245 38 c 1
 242 38 l 1
 198 2 160 -14 117 -14 c 0
164 34 m 0
 190 34 208 43 223 58 c 0
 230 65 235 74 236 99 c 2
 238 148 l 2
 239 163 237 169 229 169 c 0
 226 169 220 168 209 164 c 0
 138 138 115 110 115 87 c 0
 115 52 140 34 164 34 c 0
EndSplineSet
EndChar

StartChar: acircumflex
Encoding: 226 226 84
Width: 399
GlyphClass: 2
Flags: W
TeX: 648 14
ItalicCorrection: 26
HStem: -14 48<99 198.414 312.435 371.606> 365 49<153.283 253> 455 21G<97.5 106 296 304.5>
VStem: 37 78<42.5666 125.471 280.17 320.237> 238 68<58.3296 168.996 199.884 353.979>
LayerCount: 2
Fore
SplineSet
201 648 m 0
 209 648 216 638 221 630 c 0
 241 599 309 481 309 468 c 0
 309 459 309 455 300 455 c 0
 292 455 279 468 271 477 c 0
 258 492 227 532 205 562 c 0
 202 566 201 566 198 562 c 0
 176 532 145 492 132 477 c 0
 124 468 110 455 102 455 c 0
 93 455 93 459 93 468 c 0
 93 481 161 599 181 630 c 0
 186 638 193 648 201 648 c 0
117 -14 m 0
 81 -14 37 35 37 72 c 0
 37 114 59 135 108 155 c 2
 210 197 l 2
 236 208 237 210 238 237 c 2
 240 301 l 2
 241 336 219 365 181 365 c 0
 161 365 139 358 126 347 c 0
 118 341 116 330 116 318 c 2
 117 300 l 2
 117 290 71 265 51 265 c 0
 44 265 40 269 40 274 c 0
 40 295 55 321 80 343 c 0
 125 384 189 414 229 414 c 0
 277 414 312 376 311 325 c 2
 306 85 l 2
 305 57 320 38 342 38 c 0
 359 38 370 41 379 49 c 0
 383 53 385 54 387 54 c 0
 393 54 398 49 398 43 c 0
 398 37 393 27 387 21 c 0
 366 0 339 -14 318 -14 c 0
 287 -14 263 3 245 38 c 1
 242 38 l 1
 198 2 160 -14 117 -14 c 0
164 34 m 0
 190 34 208 43 223 58 c 0
 230 65 235 74 236 99 c 2
 238 148 l 2
 239 163 237 169 229 169 c 0
 226 169 220 168 209 164 c 0
 138 138 115 110 115 87 c 0
 115 52 140 34 164 34 c 0
EndSplineSet
EndChar

StartChar: atilde
Encoding: 227 227 85
Width: 399
GlyphClass: 2
Flags: W
TeX: 605 14
ItalicCorrection: 26
HStem: -14 48<99 198.414 312.435 371.606> 365 49<153.283 253> 458 21G<81 88> 492 66<157.363 293.992> 500 67<129.209 264.188>
VStem: 37 78<42.5666 125.471 280.17 320.237> 238 68<58.3296 168.996 199.884 353.979>
LayerCount: 2
Fore
SplineSet
86 458 m 0xee
 76 458 70 463 70 473 c 0
 70 483 139 567 164 567 c 0xee
 186 567 196 564 215 562 c 0
 237 560 253 558 271 558 c 0
 286 558 300 567 310 577 c 0
 324 591 334 605 338 605 c 0
 348 605 357 598 357 588 c 0
 357 584 349 576 335 562 c 0
 319 547 301 522 288 506 c 0
 280 496 263 492 259 492 c 0xf6
 243 492 184 500 148 500 c 0
 134 500 120 488 109 478 c 0
 100 470 90 458 86 458 c 0xee
117 -14 m 0
 81 -14 37 35 37 72 c 0
 37 114 59 135 108 155 c 2
 210 197 l 2
 236 208 237 210 238 237 c 2
 240 301 l 2
 241 336 219 365 181 365 c 0
 161 365 139 358 126 347 c 0
 118 341 116 330 116 318 c 2
 117 300 l 2
 117 290 71 265 51 265 c 0
 44 265 40 269 40 274 c 0
 40 295 55 321 80 343 c 0
 125 384 189 414 229 414 c 0
 277 414 312 376 311 325 c 2
 306 85 l 2
 305 57 320 38 342 38 c 0
 359 38 370 41 379 49 c 0
 383 53 385 54 387 54 c 0
 393 54 398 49 398 43 c 0
 398 37 393 27 387 21 c 0
 366 0 339 -14 318 -14 c 0
 287 -14 263 3 245 38 c 1
 242 38 l 1
 198 2 160 -14 117 -14 c 0
164 34 m 0
 190 34 208 43 223 58 c 0
 230 65 235 74 236 99 c 2
 238 148 l 2
 239 163 237 169 229 169 c 0
 226 169 220 168 209 164 c 0
 138 138 115 110 115 87 c 0
 115 52 140 34 164 34 c 0
EndSplineSet
EndChar

StartChar: adieresis
Encoding: 228 228 86
Width: 399
GlyphClass: 2
Flags: W
TeX: 608 14
ItalicCorrection: 26
HStem: -14 48<99 198.414 312.435 371.606> 365 49<153.283 253> 508 100<73.7018 152.298 250.702 329.298>
VStem: 37 78<42.5666 125.471 280.17 320.237> 63 100<518.702 597.298> 238 68<58.3296 168.996 199.884 353.979> 240 100<518.702 597.298>
LayerCount: 2
Fore
SplineSet
113 508 m 0xe8
 88 508 63 533 63 558 c 0
 63 583 88 608 113 608 c 0
 138 608 163 583 163 558 c 0
 163 533 138 508 113 508 c 0xe8
290 508 m 0
 265 508 240 533 240 558 c 0
 240 583 265 608 290 608 c 0
 315 608 340 583 340 558 c 0xe2
 340 533 315 508 290 508 c 0
117 -14 m 0
 81 -14 37 35 37 72 c 0
 37 114 59 135 108 155 c 2
 210 197 l 2
 236 208 237 210 238 237 c 2xf4
 240 301 l 2xe2
 241 336 219 365 181 365 c 0
 161 365 139 358 126 347 c 0
 118 341 116 330 116 318 c 2
 117 300 l 2
 117 290 71 265 51 265 c 0
 44 265 40 269 40 274 c 0
 40 295 55 321 80 343 c 0
 125 384 189 414 229 414 c 0
 277 414 312 376 311 325 c 2
 306 85 l 2xe4
 305 57 320 38 342 38 c 0
 359 38 370 41 379 49 c 0
 383 53 385 54 387 54 c 0
 393 54 398 49 398 43 c 0
 398 37 393 27 387 21 c 0
 366 0 339 -14 318 -14 c 0
 287 -14 263 3 245 38 c 1
 242 38 l 1
 198 2 160 -14 117 -14 c 0
164 34 m 0
 190 34 208 43 223 58 c 0
 230 65 235 74 236 99 c 2
 238 148 l 2
 239 163 237 169 229 169 c 0
 226 169 220 168 209 164 c 0
 138 138 115 110 115 87 c 0
 115 52 140 34 164 34 c 0
EndSplineSet
EndChar

StartChar: aring
Encoding: 229 229 87
Width: 399
GlyphClass: 2
Flags: W
TeX: 647 14
ItalicCorrection: 26
HStem: -14 48<99 198.414 312.435 371.606> 365 49<153.283 253> 480 26<176.043 232.692> 620 27<167.879 224.359>
VStem: 37 78<42.5666 125.471 280.17 320.237> 117 41<517.159 614.013> 238 68<58.3296 168.996 199.884 353.979> 244 41<512.696 608.205>
LayerCount: 2
Fore
SplineSet
198 480 m 0xfd
 154 480 117 519 117 563 c 0
 117 607 160 647 204 647 c 0
 248 647 285 613 285 569 c 0
 285 517 242 480 198 480 c 0xfd
205 506 m 0
 235 506 244 530 244 562 c 0
 244 590 223 620 195 620 c 0
 167 620 158 596 158 568 c 0
 158 535 177 506 205 506 c 0
117 -14 m 0
 81 -14 37 35 37 72 c 0
 37 114 59 135 108 155 c 2
 210 197 l 2
 236 208 237 210 238 237 c 2
 240 301 l 2
 241 336 219 365 181 365 c 0
 161 365 139 358 126 347 c 0
 118 341 116 330 116 318 c 2
 117 300 l 2
 117 290 71 265 51 265 c 0
 44 265 40 269 40 274 c 0
 40 295 55 321 80 343 c 0
 125 384 189 414 229 414 c 0
 277 414 312 376 311 325 c 2
 306 85 l 2xfe
 305 57 320 38 342 38 c 0
 359 38 370 41 379 49 c 0
 383 53 385 54 387 54 c 0
 393 54 398 49 398 43 c 0
 398 37 393 27 387 21 c 0
 366 0 339 -14 318 -14 c 0
 287 -14 263 3 245 38 c 1
 242 38 l 1
 198 2 160 -14 117 -14 c 0
164 34 m 0
 190 34 208 43 223 58 c 0
 230 65 235 74 236 99 c 2
 238 148 l 2
 239 163 237 169 229 169 c 0
 226 169 220 168 209 164 c 0
 138 138 115 110 115 87 c 0
 115 52 140 34 164 34 c 0
EndSplineSet
EndChar

StartChar: ae
Encoding: 230 230 88
Width: 557
GlyphClass: 2
Flags: W
TeX: 414 14
HStem: -14 60<333.028 456.182> -14 46<102.5 203.473> 365 49<155.551 241> 378 35<341.067 435.224>
VStem: 37 80<42.662 121.582 278.95 316.037> 243 69<67.832 171.994 243.909 350.475> 461 69<289.173 355.967>
LayerCount: 2
Fore
SplineSet
123 -14 m 0x4e
 82 -14 37 26 37 65 c 0
 37 107 61 133 110 155 c 2
 214 202 l 2
 240 214 243 217 243 233 c 2
 243 299 l 2
 243 334 220 365 183 365 c 0
 159 365 130 346 122 332 c 0
 119 327 118 320 118 313 c 0
 118 308 119 304 119 299 c 0
 119 285 63 264 50 264 c 0
 44 264 42 270 42 273 c 0
 42 294 57 320 82 342 c 0
 113 370 178 414 231 414 c 0x6e
 251 414 286 395 294 381 c 0
 296 378 297 376 299 376 c 0
 300 376 303 378 306 380 c 0
 330 397 380 413 413 413 c 0
 465 413 530 383 530 318 c 0
 530 296 520 291 506 284 c 0
 493 277 356 218 322 203 c 0
 316 200 311 190 311 185 c 2
 311 129 l 2
 311 63 355 46 399 46 c 0
 439 46 478 57 510 94 c 0
 513 97 516 98 519 98 c 0
 526 98 532 93 532 87 c 0
 532 86 532 84 531 83 c 0
 487 19 444 -14 368 -14 c 0x9e
 329 -14 290 0 259 26 c 0
 256 29 248 38 246 38 c 0
 244 38 241 37 238 34 c 0
 222 22 191 -13 123 -14 c 0x4e
327 244 m 0
 376 264 435 284 454 292 c 0
 460 294 461 300 461 306 c 0
 461 344 430 378 387 378 c 0x1e
 370 378 313 356 312 321 c 2
 312 254 l 2
 312 244 322 242 327 244 c 0
166 32 m 0x4e
 192 32 212 45 228 59 c 0
 235 65 242 71 242 96 c 2
 242 148 l 2
 242 164 242 172 234 172 c 0
 231 172 226 171 219 169 c 0
 186 160 119 130 117 87 c 0
 117 49 147 32 166 32 c 0x4e
EndSplineSet
EndChar

StartChar: ccedilla
Encoding: 231 231 89
Width: 407
GlyphClass: 2
Flags: W
TeX: 414 274
HStem: -274 49<139.602 217.545> -15 60<181.831 209> 377 37<164.065 263.89>
VStem: 35 69<125.46 282.32> 237 50<-205.712 -133.987>
LayerCount: 2
Fore
SplineSet
361 93 m 0
 367 93 372 87 372 79 c 0
 372 71 367 61 357 48 c 0
 330 14 290 -7 242 -13 c 1
 220 -42 l 2
 217 -46 215 -49 215 -52 c 0
 215 -56 219 -60 226 -63 c 0
 258 -77 287 -106 287 -139 c 0
 287 -219 198 -274 162 -274 c 0
 141 -274 132 -264 132 -233 c 0
 132 -221 137 -214 145 -214 c 0
 155 -214 167 -225 198 -225 c 0
 224 -225 237 -206 237 -180 c 0
 237 -141 210 -123 178 -123 c 0
 165 -123 159 -129 152 -129 c 0
 145 -129 134 -123 134 -114 c 0
 134 -111 136 -107 139 -103 c 2
 209 -15 l 1
 110 -13 35 71 35 180 c 0
 35 310 129 414 246 414 c 0
 289 414 328 402 360 379 c 0
 368 373 372 367 372 360 c 0
 372 343 346 319 329 319 c 0
 322 319 316 324 308 330 c 0
 279 352 238 377 214 377 c 0
 149 377 104 310 104 212 c 0
 104 118 171 45 256 45 c 0
 295 45 319 56 351 88 c 0
 354 91 358 93 361 93 c 0
EndSplineSet
EndChar

StartChar: egrave
Encoding: 232 232 90
Width: 390
GlyphClass: 2
Flags: W
TeX: 649 15
ItalicCorrection: 8
HStem: -15 61<174.086 299.389> 257 31<109.637 284.97> 385 29<161.117 258.964> 457 21G<241.5 247.5>
VStem: 30 64<133.835 256.062> 294 66<277.5 358.559>
LayerCount: 2
Fore
SplineSet
245 457 m 0
 238 457 228 464 214 478 c 0
 188 504 130 572 106 607 c 0
 100 616 96 620 96 628 c 0
 96 642 120 649 145 649 c 0
 155 649 166 641 172 631 c 0
 188 604 235 521 249 484 c 0
 252 476 253 470 253 466 c 0
 253 459 250 457 245 457 c 0
213 -15 m 0
 103 -15 30 72 30 203 c 0
 30 318 118 414 223 414 c 0
 303 414 360 362 360 288 c 0
 360 267 351 257 330 257 c 2
 119 257 l 2
 100 257 94 249 94 220 c 0
 94 124 163 46 248 46 c 0
 288 46 321 62 346 91 c 0
 351 98 353 99 357 99 c 0
 362 99 365 95 365 89 c 0
 365 76 359 62 347 47 c 0
 317 8 266 -15 213 -15 c 0
121 288 m 2
 212 288 l 2
 244 288 264 289 286 293 c 0
 292 294 294 301 294 315 c 0
 294 353 255 385 208 385 c 0
 162 385 109 338 109 298 c 0
 109 291 113 288 121 288 c 2
EndSplineSet
EndChar

StartChar: eacute
Encoding: 233 233 91
Width: 390
GlyphClass: 2
Flags: W
TeX: 649 15
ItalicCorrection: 8
HStem: -15 61<174.086 299.389> 257 31<109.637 284.97> 385 29<161.117 258.964> 457 21G<195.5 201.5>
VStem: 30 64<133.835 256.062> 294 66<277.5 358.559>
LayerCount: 2
Fore
SplineSet
198 457 m 0
 193 457 190 459 190 466 c 0
 190 470 191 476 194 484 c 0
 208 521 255 604 271 631 c 0
 277 641 288 649 298 649 c 0
 323 649 347 642 347 628 c 0
 347 620 343 616 337 607 c 0
 313 572 255 504 229 478 c 0
 215 464 205 457 198 457 c 0
213 -15 m 0
 103 -15 30 72 30 203 c 0
 30 318 118 414 223 414 c 0
 303 414 360 362 360 288 c 0
 360 267 351 257 330 257 c 2
 119 257 l 2
 100 257 94 249 94 220 c 0
 94 124 163 46 248 46 c 0
 288 46 321 62 346 91 c 0
 351 98 353 99 357 99 c 0
 362 99 365 95 365 89 c 0
 365 76 359 62 347 47 c 0
 317 8 266 -15 213 -15 c 0
121 288 m 2
 212 288 l 2
 244 288 264 289 286 293 c 0
 292 294 294 301 294 315 c 0
 294 353 255 385 208 385 c 0
 162 385 109 338 109 298 c 0
 109 291 113 288 121 288 c 2
EndSplineSet
EndChar

StartChar: ecircumflex
Encoding: 234 234 92
Width: 390
GlyphClass: 2
Flags: W
TeX: 648 15
ItalicCorrection: 8
HStem: -15 61<174.086 299.389> 257 31<109.637 284.97> 385 29<161.117 258.964> 455 21G<118.5 127 317 325.5>
VStem: 30 64<133.835 256.062> 294 66<277.5 358.559>
LayerCount: 2
Fore
SplineSet
222 648 m 0
 230 648 237 638 242 630 c 0
 262 599 330 481 330 468 c 0
 330 459 330 455 321 455 c 0
 313 455 300 468 292 477 c 0
 279 492 248 532 226 562 c 0
 223 566 222 566 219 562 c 0
 197 532 166 492 153 477 c 0
 145 468 131 455 123 455 c 0
 114 455 114 459 114 468 c 0
 114 481 182 599 202 630 c 0
 207 638 214 648 222 648 c 0
213 -15 m 0
 103 -15 30 72 30 203 c 0
 30 318 118 414 223 414 c 0
 303 414 360 362 360 288 c 0
 360 267 351 257 330 257 c 2
 119 257 l 2
 100 257 94 249 94 220 c 0
 94 124 163 46 248 46 c 0
 288 46 321 62 346 91 c 0
 351 98 353 99 357 99 c 0
 362 99 365 95 365 89 c 0
 365 76 359 62 347 47 c 0
 317 8 266 -15 213 -15 c 0
121 288 m 2
 212 288 l 2
 244 288 264 289 286 293 c 0
 292 294 294 301 294 315 c 0
 294 353 255 385 208 385 c 0
 162 385 109 338 109 298 c 0
 109 291 113 288 121 288 c 2
EndSplineSet
EndChar

StartChar: edieresis
Encoding: 235 235 93
Width: 390
GlyphClass: 2
Flags: W
TeX: 608 15
ItalicCorrection: 8
HStem: -15 61<174.086 299.389> 257 31<109.637 284.97> 385 29<161.117 258.964> 508 100<94.7018 173.298 271.702 350.298>
VStem: 30 64<133.835 256.062> 84 100<518.702 597.298> 261 100<518.702 597.298> 294 66<277.5 358.559>
LayerCount: 2
Fore
SplineSet
134 508 m 0xf4
 109 508 84 533 84 558 c 0
 84 583 109 608 134 608 c 0
 159 608 184 583 184 558 c 0
 184 533 159 508 134 508 c 0xf4
311 508 m 0
 286 508 261 533 261 558 c 0
 261 583 286 608 311 608 c 0
 336 608 361 583 361 558 c 0xf2
 361 533 336 508 311 508 c 0
213 -15 m 0
 103 -15 30 72 30 203 c 0
 30 318 118 414 223 414 c 0
 303 414 360 362 360 288 c 0
 360 267 351 257 330 257 c 2
 119 257 l 2
 100 257 94 249 94 220 c 0xf9
 94 124 163 46 248 46 c 0
 288 46 321 62 346 91 c 0
 351 98 353 99 357 99 c 0
 362 99 365 95 365 89 c 0
 365 76 359 62 347 47 c 0
 317 8 266 -15 213 -15 c 0
121 288 m 2
 212 288 l 2
 244 288 264 289 286 293 c 0
 292 294 294 301 294 315 c 0
 294 353 255 385 208 385 c 0
 162 385 109 338 109 298 c 0
 109 291 113 288 121 288 c 2
EndSplineSet
EndChar

StartChar: igrave
Encoding: 236 236 94
Width: 245
GlyphClass: 2
Flags: W
TeX: 649 3
ItalicCorrection: 3
HStem: -3 27<24.3057 79.6694 171.375 225.674> 457 21G<143.5 149.5>
VStem: 90 70<31.0813 341.886>
LayerCount: 2
Fore
SplineSet
147 457 m 0
 140 457 130 464 116 478 c 0
 90 504 32 572 8 607 c 0
 2 616 -2 620 -2 628 c 0
 -2 642 22 649 47 649 c 0
 57 649 68 641 74 631 c 0
 90 604 137 521 151 484 c 0
 154 476 155 470 155 466 c 0
 155 459 152 457 147 457 c 0
44 -3 m 0
 32 -3 24 0 24 8 c 0
 24 18 36 21 47 24 c 0
 75 31 90 38 90 62 c 2
 90 279 l 2
 90 315 79 347 45 352 c 0
 38 353 35 357 35 365 c 0
 35 372 38 376 44 377 c 0
 97 389 132 413 149 427 c 0
 154 431 159 434 163 434 c 0
 167 434 169 432 169 429 c 0
 169 413 160 339 160 294 c 2
 160 62 l 2
 160 39 176 31 203 24 c 0
 214 21 226 18 226 8 c 0
 226 0 219 -3 206 -3 c 0
 168 -3 160 2 125 2 c 0
 90 2 83 -3 44 -3 c 0
EndSplineSet
EndChar

StartChar: iacute
Encoding: 237 237 95
Width: 245
GlyphClass: 2
Flags: W
TeX: 649 3
ItalicCorrection: 38
HStem: -3 27<24.3057 79.6694 171.375 225.674> 457 21G<97.5 103.5>
VStem: 90 70<31.0813 341.886>
LayerCount: 2
Fore
SplineSet
100 457 m 0
 95 457 92 459 92 466 c 0
 92 470 93 476 96 484 c 0
 110 521 157 604 173 631 c 0
 179 641 190 649 200 649 c 0
 225 649 249 642 249 628 c 0
 249 620 245 616 239 607 c 0
 215 572 157 504 131 478 c 0
 117 464 107 457 100 457 c 0
44 -3 m 0
 32 -3 24 0 24 8 c 0
 24 18 36 21 47 24 c 0
 75 31 90 38 90 62 c 2
 90 279 l 2
 90 315 79 347 45 352 c 0
 38 353 35 357 35 365 c 0
 35 372 38 376 44 377 c 0
 97 389 132 413 149 427 c 0
 154 431 159 434 163 434 c 0
 167 434 169 432 169 429 c 0
 169 413 160 339 160 294 c 2
 160 62 l 2
 160 39 176 31 203 24 c 0
 214 21 226 18 226 8 c 0
 226 0 219 -3 206 -3 c 0
 168 -3 160 2 125 2 c 0
 90 2 83 -3 44 -3 c 0
EndSplineSet
EndChar

StartChar: icircumflex
Encoding: 238 238 96
Width: 245
GlyphClass: 2
Flags: W
TeX: 648 3
ItalicCorrection: 43
HStem: -3 27<24.3057 79.6694 171.375 225.674> 455 21G<20.5 29 219 227.5>
VStem: 90 70<31.0813 341.886>
LayerCount: 2
Fore
SplineSet
124 648 m 0
 132 648 139 638 144 630 c 0
 164 599 232 481 232 468 c 0
 232 459 232 455 223 455 c 0
 215 455 202 468 194 477 c 0
 181 492 150 532 128 562 c 0
 125 566 124 566 121 562 c 0
 99 532 68 492 55 477 c 0
 47 468 33 455 25 455 c 0
 16 455 16 459 16 468 c 0
 16 481 84 599 104 630 c 0
 109 638 116 648 124 648 c 0
44 -3 m 0
 32 -3 24 0 24 8 c 0
 24 18 36 21 47 24 c 0
 75 31 90 38 90 62 c 2
 90 279 l 2
 90 315 79 347 45 352 c 0
 38 353 35 357 35 365 c 0
 35 372 38 376 44 377 c 0
 97 389 132 413 149 427 c 0
 154 431 159 434 163 434 c 0
 167 434 169 432 169 429 c 0
 169 413 160 339 160 294 c 2
 160 62 l 2
 160 39 176 31 203 24 c 0
 214 21 226 18 226 8 c 0
 226 0 219 -3 206 -3 c 0
 168 -3 160 2 125 2 c 0
 90 2 83 -3 44 -3 c 0
EndSplineSet
EndChar

StartChar: idieresis
Encoding: 239 239 97
Width: 245
GlyphClass: 2
Flags: W
TeX: 608 3
ItalicCorrection: 37
HStem: -3 27<24.3057 79.6694 171.375 225.674> 508 100<-3.29825 75.2982 173.702 252.298>
VStem: -14 100<518.702 597.298> 90 70<31.0813 341.886> 163 100<518.702 597.298>
LayerCount: 2
Fore
SplineSet
36 508 m 0
 11 508 -14 533 -14 558 c 0
 -14 583 11 608 36 608 c 0
 61 608 86 583 86 558 c 0
 86 533 61 508 36 508 c 0
213 508 m 0
 188 508 163 533 163 558 c 0
 163 583 188 608 213 608 c 0
 238 608 263 583 263 558 c 0
 263 533 238 508 213 508 c 0
44 -3 m 0
 32 -3 24 0 24 8 c 0
 24 18 36 21 47 24 c 0
 75 31 90 38 90 62 c 2
 90 279 l 2
 90 315 79 347 45 352 c 0
 38 353 35 357 35 365 c 0
 35 372 38 376 44 377 c 0
 97 389 132 413 149 427 c 0
 154 431 159 434 163 434 c 0
 167 434 169 432 169 429 c 0
 169 413 160 339 160 294 c 2
 160 62 l 2
 160 39 176 31 203 24 c 0
 214 21 226 18 226 8 c 0
 226 0 219 -3 206 -3 c 0
 168 -3 160 2 125 2 c 0
 90 2 83 -3 44 -3 c 0
EndSplineSet
EndChar

StartChar: eth
Encoding: 240 240 98
Width: 487
GlyphClass: 2
Flags: W
TeX: 705 14
HStem: -14 30<199.521 297.095> 380 34<177.791 300.116> 678 27<64.1382 126.55>
VStem: 25 83<113.216 278.98> 378 78<137.076 313.765>
LayerCount: 2
Fore
SplineSet
231 -14 m 0
 119 -14 25 66 25 186 c 0
 25 310 133 414 256 414 c 0
 288 414 315 406 343 391 c 0
 352 387 353 390 351 400 c 0
 335 459 313 516 283 552 c 1
 128 472 l 2
 120 468 114 475 114 480 c 0
 114 489 114 511 122 515 c 2
 254 584 l 1
 199 636 134 667 84 678 c 0
 76 680 64 683 64 693 c 0
 64 702 76 705 90 705 c 0
 151 705 236 671 309 612 c 1
 410 665 l 2
 418 670 435 674 435 664 c 0
 435 646 433 630 417 622 c 2
 342 583 l 1
 399 522 456 427 456 250 c 0
 456 133 381 -14 231 -14 c 0
252 16 m 0
 322 16 378 111 378 219 c 0
 378 265 369 304 345 329 c 0
 317 359 277 380 236 380 c 0
 151 380 108 293 108 210 c 0
 108 111 172 16 252 16 c 0
EndSplineSet
EndChar

StartChar: ntilde
Encoding: 241 241 99
Width: 528
GlyphClass: 2
Flags: W
TeX: 605 3
ItalicCorrection: 13
HStem: -3 27<24.2101 78.9702 171.03 225.668 304.056 357.97 450.03 504.003> 366 48<228.999 338.812> 458 21G<137 144> 492 66<213.363 349.992> 500 67<185.209 320.188>
VStem: 90 70<30.7063 325.762> 369 70<31.1488 335.799>
LayerCount: 2
Fore
SplineSet
142 458 m 0xee
 132 458 126 463 126 473 c 0
 126 483 195 567 220 567 c 0xee
 242 567 252 564 271 562 c 0
 293 560 309 558 327 558 c 0
 342 558 356 567 366 577 c 0
 380 591 390 605 394 605 c 0
 404 605 413 598 413 588 c 0
 413 584 405 576 391 562 c 0
 375 547 357 522 344 506 c 0
 336 496 319 492 315 492 c 0xf6
 299 492 240 500 204 500 c 0
 190 500 176 488 165 478 c 0
 156 470 146 458 142 458 c 0xee
44 -3 m 0
 32 -3 24 0 24 8 c 0
 24 18 32 20 47 24 c 0
 67 29 90 35 90 62 c 2
 90 277 l 2
 90 313 87 340 53 349 c 0
 47 351 43 354 43 362 c 0
 43 369 46 373 52 374 c 0
 98 386 124 404 152 425 c 0
 156 428 159 430 163 430 c 0
 166 430 168 427 168 423 c 0
 168 414 163 378 163 359 c 0
 163 353 164 348 165 347 c 0
 212 392 263 414 326 414 c 0
 391 414 439 353 439 275 c 2
 439 62 l 2
 439 35 462 30 482 24 c 0
 493 20 505 16 505 6 c 0
 505 -2 493 -3 485 -3 c 0
 445 -3 440 2 405 2 c 0
 370 2 363 -3 323 -3 c 0
 316 -3 303 -2 303 6 c 0
 303 16 315 20 326 24 c 0
 346 30 369 35 369 62 c 2
 369 272 l 2
 369 330 333 365 279 366 c 0
 231 366 196 349 168 326 c 0
 163 321 160 311 160 303 c 2
 160 62 l 2
 160 35 183 29 203 24 c 0
 219 20 226 16 226 8 c 0
 226 0 219 -3 206 -3 c 0
 166 -3 160 2 125 2 c 0
 90 2 84 -3 44 -3 c 0
EndSplineSet
EndChar

StartChar: ograve
Encoding: 242 242 100
Width: 495
GlyphClass: 2
Flags: W
TeX: 649 14
HStem: -14 30<203.025 317.686> 383 31<177.889 291.342> 457 21G<273.5 279.5>
VStem: 35 82<109.934 279.37> 378 82<111.572 289.08>
LayerCount: 2
Fore
SplineSet
277 457 m 0
 270 457 260 464 246 478 c 0
 220 504 162 572 138 607 c 0
 132 616 128 620 128 628 c 0
 128 642 152 649 177 649 c 0
 187 649 198 641 204 631 c 0
 220 604 267 521 281 484 c 0
 284 476 285 470 285 466 c 0
 285 459 282 457 277 457 c 0
234 -14 m 0
 122 -14 35 70 35 187 c 0
 35 298 131 414 254 414 c 0
 370 414 460 321 460 213 c 0
 460 96 384 -14 234 -14 c 0
255 16 m 0
 300 16 338 32 358 71 c 0
 374 102 378 150 378 189 c 0
 378 284 322 383 237 383 c 0
 201 383 173 374 149 343 c 0
 122 309 117 258 117 210 c 0
 117 111 175 16 255 16 c 0
EndSplineSet
EndChar

StartChar: oacute
Encoding: 243 243 101
Width: 495
GlyphClass: 2
Flags: W
TeX: 649 14
HStem: -14 30<203.025 317.686> 383 31<177.889 291.342> 457 21G<227.5 233.5>
VStem: 35 82<109.934 279.37> 378 82<111.572 289.08>
LayerCount: 2
Fore
SplineSet
230 457 m 0
 225 457 222 459 222 466 c 0
 222 470 223 476 226 484 c 0
 240 521 287 604 303 631 c 0
 309 641 320 649 330 649 c 0
 355 649 379 642 379 628 c 0
 379 620 375 616 369 607 c 0
 345 572 287 504 261 478 c 0
 247 464 237 457 230 457 c 0
234 -14 m 0
 122 -14 35 70 35 187 c 0
 35 298 131 414 254 414 c 0
 370 414 460 321 460 213 c 0
 460 96 384 -14 234 -14 c 0
255 16 m 0
 300 16 338 32 358 71 c 0
 374 102 378 150 378 189 c 0
 378 284 322 383 237 383 c 0
 201 383 173 374 149 343 c 0
 122 309 117 258 117 210 c 0
 117 111 175 16 255 16 c 0
EndSplineSet
EndChar

StartChar: ocircumflex
Encoding: 244 244 102
Width: 495
GlyphClass: 2
Flags: W
TeX: 648 14
HStem: -14 30<203.025 317.686> 383 31<177.889 291.342> 455 21G<150.5 159 349 357.5>
VStem: 35 82<109.934 279.37> 378 82<111.572 289.08>
LayerCount: 2
Fore
SplineSet
254 648 m 0
 262 648 269 638 274 630 c 0
 294 599 362 481 362 468 c 0
 362 459 362 455 353 455 c 0
 345 455 332 468 324 477 c 0
 311 492 280 532 258 562 c 0
 255 566 254 566 251 562 c 0
 229 532 198 492 185 477 c 0
 177 468 163 455 155 455 c 0
 146 455 146 459 146 468 c 0
 146 481 214 599 234 630 c 0
 239 638 246 648 254 648 c 0
234 -14 m 0
 122 -14 35 70 35 187 c 0
 35 298 131 414 254 414 c 0
 370 414 460 321 460 213 c 0
 460 96 384 -14 234 -14 c 0
255 16 m 0
 300 16 338 32 358 71 c 0
 374 102 378 150 378 189 c 0
 378 284 322 383 237 383 c 0
 201 383 173 374 149 343 c 0
 122 309 117 258 117 210 c 0
 117 111 175 16 255 16 c 0
EndSplineSet
EndChar

StartChar: otilde
Encoding: 245 245 103
Width: 495
GlyphClass: 2
Flags: W
TeX: 605 14
HStem: -14 30<203.025 317.686> 383 31<177.889 291.342> 458 21G<120 127> 492 66<196.363 332.992> 500 67<168.209 303.188>
VStem: 35 82<109.934 279.37> 378 82<111.572 289.08>
LayerCount: 2
Fore
SplineSet
125 458 m 0xee
 115 458 109 463 109 473 c 0
 109 483 178 567 203 567 c 0xee
 225 567 235 564 254 562 c 0
 276 560 292 558 310 558 c 0
 325 558 339 567 349 577 c 0
 363 591 373 605 377 605 c 0
 387 605 396 598 396 588 c 0
 396 584 388 576 374 562 c 0
 358 547 340 522 327 506 c 0
 319 496 302 492 298 492 c 0xf6
 282 492 223 500 187 500 c 0
 173 500 159 488 148 478 c 0
 139 470 129 458 125 458 c 0xee
234 -14 m 0
 122 -14 35 70 35 187 c 0
 35 298 131 414 254 414 c 0
 370 414 460 321 460 213 c 0
 460 96 384 -14 234 -14 c 0
255 16 m 0
 300 16 338 32 358 71 c 0
 374 102 378 150 378 189 c 0
 378 284 322 383 237 383 c 0
 201 383 173 374 149 343 c 0
 122 309 117 258 117 210 c 0
 117 111 175 16 255 16 c 0
EndSplineSet
EndChar

StartChar: odieresis
Encoding: 246 246 104
Width: 495
GlyphClass: 2
Flags: W
TeX: 608 14
HStem: -14 30<203.025 317.686> 383 31<177.889 291.342> 508 100<126.702 205.298 303.702 382.298>
VStem: 35 82<109.934 279.37> 116 100<518.702 597.298> 293 100<518.702 597.298> 378 82<111.572 289.08>
LayerCount: 2
Fore
SplineSet
166 508 m 0xe8
 141 508 116 533 116 558 c 0
 116 583 141 608 166 608 c 0
 191 608 216 583 216 558 c 0
 216 533 191 508 166 508 c 0xe8
343 508 m 0
 318 508 293 533 293 558 c 0
 293 583 318 608 343 608 c 0
 368 608 393 583 393 558 c 0xe4
 393 533 368 508 343 508 c 0
234 -14 m 0
 122 -14 35 70 35 187 c 0
 35 298 131 414 254 414 c 0
 370 414 460 321 460 213 c 0xf2
 460 96 384 -14 234 -14 c 0
255 16 m 0
 300 16 338 32 358 71 c 0
 374 102 378 150 378 189 c 0
 378 284 322 383 237 383 c 0
 201 383 173 374 149 343 c 0
 122 309 117 258 117 210 c 0
 117 111 175 16 255 16 c 0
EndSplineSet
EndChar

StartChar: divide
Encoding: 247 247 105
Width: 660
GlyphClass: 2
Flags: W
TeX: 488 -12
HStem: 12 112<285.922 374.078> 224 52<77.9531 582.047> 376 112<285.922 374.078>
VStem: 274 112<23.9218 112.078 387.922 476.078>
CounterMasks: 1 e0
LayerCount: 2
Fore
SplineSet
554 224 m 2
 91 224 l 2
 83 224 75 231 75 237 c 0
 75 257 86 276 106 276 c 2
 569 276 l 2
 577 276 585 269 585 263 c 0
 585 243 574 224 554 224 c 2
386 432 m 0
 386 401 361 376 330 376 c 0
 299 376 274 401 274 432 c 0
 274 463 299 488 330 488 c 0
 361 488 386 463 386 432 c 0
386 68 m 0
 386 37 361 12 330 12 c 0
 299 12 274 37 274 68 c 0
 274 99 299 124 330 124 c 0
 361 124 386 99 386 68 c 0
EndSplineSet
EndChar

StartChar: oslash
Encoding: 248 248 106
Width: 485
GlyphClass: 2
Flags: W
TeX: 415 15
HStem: -14 30<202.883 317.686> 383 31<177.889 291.787>
VStem: 35 82<119.845 279.37> 378 82<111.572 283.081>
LayerCount: 2
Fore
SplineSet
452 374 m 2
 415 338 l 1
 443 303 460 259 460 213 c 0
 460 96 384 -14 234 -14 c 0
 183 -14 138 3 103 33 c 1
 57 -12 l 2
 55 -14 53 -15 50 -15 c 0
 38 -15 26 -4 26 5 c 0
 26 12 30 20 36 25 c 2
 75 63 l 1
 50 96 35 139 35 187 c 0
 35 298 131 414 254 414 c 0
 306 414 353 395 389 364 c 1
 438 411 l 2
 441 414 445 415 449 415 c 0
 459 415 463 408 463 400 c 0
 463 391 459 380 452 374 c 2
117 210 m 0
 117 178 123 147 134 119 c 1
 342 318 l 1
 317 357 281 383 237 383 c 0
 201 383 173 374 149 343 c 0
 122 309 117 258 117 210 c 0
378 189 m 0
 378 221 371 254 359 284 c 1
 152 81 l 1
 177 42 213 16 255 16 c 0
 300 16 338 32 358 71 c 0
 374 102 378 150 378 189 c 0
EndSplineSet
EndChar

StartChar: ugrave
Encoding: 249 249 107
Width: 527
GlyphClass: 2
Flags: W
TeX: 649 19
ItalicCorrection: 7
HStem: -19 56<186.992 285.45> 21 27<456.48 516.994> 365 32<280.029 350.896> 457 21G<271.5 277.5>
VStem: 85 70<71.1627 353.726> 368 70<45.8513 57 77.7796 352.364>
LayerCount: 2
Fore
SplineSet
275 457 m 0x3c
 268 457 258 464 244 478 c 0
 218 504 160 572 136 607 c 0
 130 616 126 620 126 628 c 0
 126 642 150 649 175 649 c 0
 185 649 196 641 202 631 c 0
 218 604 265 521 279 484 c 0
 282 476 283 470 283 466 c 0
 283 459 280 457 275 457 c 0x3c
366 -19 m 0xbc
 361 -19 359 -16 359 -11 c 0
 359 2 364 34 364 51 c 2
 364 57 l 1
 312 6 261 -14 199 -14 c 0
 134 -14 85 27 85 105 c 2
 85 308 l 2
 85 337 72 353 42 365 c 0
 35 367 29 370 29 381 c 0
 29 393 36 396 44 397 c 0
 89 400 106 404 143 413 c 0
 147 414 148 414 151 414 c 0
 157 414 162 411 161 400 c 0
 157 369 155 353 155 323 c 2
 155 128 l 2
 155 80 196 37 239 37 c 0xbc
 273 37 298 38 323 57 c 0
 338 68 368 91 368 132 c 2
 368 315 l 2
 368 356 321 365 301 365 c 0
 289 365 280 368 280 382 c 0
 280 394 290 397 301 397 c 0
 362 398 388 403 424 413 c 0
 427 414 431 415 434 415 c 0
 441 415 447 411 447 404 c 0
 447 402 446 399 445 395 c 0
 443 388 438 342 438 326 c 2
 438 95 l 2
 438 59 446 45 456 45 c 0
 466 45 492 48 502 48 c 0
 509 48 517 47 517 35 c 0
 517 24 511 22 503 21 c 0x7c
 451 14 415 -1 386 -13 c 0
 382 -15 372 -19 366 -19 c 0xbc
EndSplineSet
EndChar

StartChar: uacute
Encoding: 250 250 108
Width: 527
GlyphClass: 2
Flags: W
TeX: 649 19
ItalicCorrection: 7
HStem: -19 56<186.992 285.45> 21 27<456.48 516.994> 365 32<280.029 350.896> 457 21G<225.5 231.5>
VStem: 85 70<71.1627 353.726> 368 70<45.8513 57 77.7796 352.364>
LayerCount: 2
Fore
SplineSet
228 457 m 0x3c
 223 457 220 459 220 466 c 0
 220 470 221 476 224 484 c 0
 238 521 285 604 301 631 c 0
 307 641 318 649 328 649 c 0
 353 649 377 642 377 628 c 0
 377 620 373 616 367 607 c 0
 343 572 285 504 259 478 c 0
 245 464 235 457 228 457 c 0x3c
366 -19 m 0xbc
 361 -19 359 -16 359 -11 c 0
 359 2 364 34 364 51 c 2
 364 57 l 1
 312 6 261 -14 199 -14 c 0
 134 -14 85 27 85 105 c 2
 85 308 l 2
 85 337 72 353 42 365 c 0
 35 367 29 370 29 381 c 0
 29 393 36 396 44 397 c 0
 89 400 106 404 143 413 c 0
 147 414 148 414 151 414 c 0
 157 414 162 411 161 400 c 0
 157 369 155 353 155 323 c 2
 155 128 l 2
 155 80 196 37 239 37 c 0xbc
 273 37 298 38 323 57 c 0
 338 68 368 91 368 132 c 2
 368 315 l 2
 368 356 321 365 301 365 c 0
 289 365 280 368 280 382 c 0
 280 394 290 397 301 397 c 0
 362 398 388 403 424 413 c 0
 427 414 431 415 434 415 c 0
 441 415 447 411 447 404 c 0
 447 402 446 399 445 395 c 0
 443 388 438 342 438 326 c 2
 438 95 l 2
 438 59 446 45 456 45 c 0
 466 45 492 48 502 48 c 0
 509 48 517 47 517 35 c 0
 517 24 511 22 503 21 c 0x7c
 451 14 415 -1 386 -13 c 0
 382 -15 372 -19 366 -19 c 0xbc
EndSplineSet
EndChar

StartChar: ucircumflex
Encoding: 251 251 109
Width: 527
GlyphClass: 2
Flags: W
TeX: 648 19
ItalicCorrection: 7
HStem: -19 56<186.992 285.45> 21 27<456.48 516.994> 365 32<280.029 350.896> 455 21G<148.5 157 347 355.5>
VStem: 85 70<71.1627 353.726> 368 70<45.8513 57 77.7796 352.364>
LayerCount: 2
Fore
SplineSet
252 648 m 0x3c
 260 648 267 638 272 630 c 0
 292 599 360 481 360 468 c 0
 360 459 360 455 351 455 c 0
 343 455 330 468 322 477 c 0
 309 492 278 532 256 562 c 0
 253 566 252 566 249 562 c 0
 227 532 196 492 183 477 c 0
 175 468 161 455 153 455 c 0
 144 455 144 459 144 468 c 0
 144 481 212 599 232 630 c 0
 237 638 244 648 252 648 c 0x3c
366 -19 m 0xbc
 361 -19 359 -16 359 -11 c 0
 359 2 364 34 364 51 c 2
 364 57 l 1
 312 6 261 -14 199 -14 c 0
 134 -14 85 27 85 105 c 2
 85 308 l 2
 85 337 72 353 42 365 c 0
 35 367 29 370 29 381 c 0
 29 393 36 396 44 397 c 0
 89 400 106 404 143 413 c 0
 147 414 148 414 151 414 c 0
 157 414 162 411 161 400 c 0
 157 369 155 353 155 323 c 2
 155 128 l 2
 155 80 196 37 239 37 c 0xbc
 273 37 298 38 323 57 c 0
 338 68 368 91 368 132 c 2
 368 315 l 2
 368 356 321 365 301 365 c 0
 289 365 280 368 280 382 c 0
 280 394 290 397 301 397 c 0
 362 398 388 403 424 413 c 0
 427 414 431 415 434 415 c 0
 441 415 447 411 447 404 c 0
 447 402 446 399 445 395 c 0
 443 388 438 342 438 326 c 2
 438 95 l 2
 438 59 446 45 456 45 c 0
 466 45 492 48 502 48 c 0
 509 48 517 47 517 35 c 0
 517 24 511 22 503 21 c 0x7c
 451 14 415 -1 386 -13 c 0
 382 -15 372 -19 366 -19 c 0xbc
EndSplineSet
EndChar

StartChar: udieresis
Encoding: 252 252 110
Width: 527
GlyphClass: 2
Flags: W
TeX: 608 19
ItalicCorrection: 7
HStem: -19 56<186.992 285.45> 21 27<456.48 516.994> 365 32<280.029 350.896> 508 100<124.702 203.298 301.702 380.298>
VStem: 85 70<71.1627 353.726> 114 100<518.702 597.298> 291 100<518.702 597.298> 368 70<45.8513 57 77.7796 352.364>
LayerCount: 2
Fore
SplineSet
164 508 m 0x34
 139 508 114 533 114 558 c 0
 114 583 139 608 164 608 c 0
 189 608 214 583 214 558 c 0
 214 533 189 508 164 508 c 0x34
341 508 m 0
 316 508 291 533 291 558 c 0
 291 583 316 608 341 608 c 0
 366 608 391 583 391 558 c 0x32
 391 533 366 508 341 508 c 0
366 -19 m 0xb9
 361 -19 359 -16 359 -11 c 0
 359 2 364 34 364 51 c 2
 364 57 l 1
 312 6 261 -14 199 -14 c 0
 134 -14 85 27 85 105 c 2
 85 308 l 2
 85 337 72 353 42 365 c 0
 35 367 29 370 29 381 c 0
 29 393 36 396 44 397 c 0
 89 400 106 404 143 413 c 0
 147 414 148 414 151 414 c 0
 157 414 162 411 161 400 c 0
 157 369 155 353 155 323 c 2
 155 128 l 2
 155 80 196 37 239 37 c 0xb9
 273 37 298 38 323 57 c 0
 338 68 368 91 368 132 c 2
 368 315 l 2
 368 356 321 365 301 365 c 0
 289 365 280 368 280 382 c 0
 280 394 290 397 301 397 c 0
 362 398 388 403 424 413 c 0
 427 414 431 415 434 415 c 0
 441 415 447 411 447 404 c 0
 447 402 446 399 445 395 c 0
 443 388 438 342 438 326 c 2
 438 95 l 2
 438 59 446 45 456 45 c 0
 466 45 492 48 502 48 c 0
 509 48 517 47 517 35 c 0
 517 24 511 22 503 21 c 0x79
 451 14 415 -1 386 -13 c 0
 382 -15 372 -19 366 -19 c 0xb9
EndSplineSet
EndChar

StartChar: yacute
Encoding: 253 253 111
Width: 438
GlyphClass: 2
Flags: W
TeX: 649 285
ItalicCorrection: 3
HStem: -285 86<17.5102 114.448> 378 27<6.05563 49.8994 152.137 193.546 399.046 441.944> 457 21G<215.5 221.5>
VStem: 13 116<-271.156 -206.881> 322 121<327 400>
LayerCount: 2
Fore
SplineSet
218 457 m 0
 213 457 210 459 210 466 c 0
 210 470 211 476 214 484 c 0
 228 521 275 604 291 631 c 0
 297 641 308 649 318 649 c 0
 343 649 367 642 367 628 c 0
 367 620 363 616 357 607 c 0
 333 572 275 504 249 478 c 0
 235 464 225 457 218 457 c 0
64 -285 m 0
 38 -285 13 -274 13 -244 c 0
 13 -220 25 -199 46 -199 c 0
 61 -199 75 -205 86 -205 c 0
 94 -205 100 -202 105 -194 c 0
 127 -159 161 -93 190 -16 c 0
 192 -10 193 -2 193 7 c 0
 193 18 192 28 189 36 c 2
 73 329 l 2
 63 353 48 372 28 378 c 0
 17 382 5 386 5 396 c 0
 5 404 18 405 25 405 c 0
 65 405 63 400 98 400 c 0
 133 400 134 405 174 405 c 0
 182 405 194 402 194 394 c 0
 194 384 176 375 165 372 c 0
 151 368 145 359 145 340 c 0
 145 332 150 319 153 312 c 2
 234 112 l 2
 235 109 237 106 240 106 c 0
 242 106 244 109 245 112 c 2
 314 295 l 2
 318 304 322 322 322 332 c 0
 322 357 314 365 302 370 c 0
 291 375 273 384 273 394 c 0
 273 402 286 405 293 405 c 0
 311 405 327 400 364 400 c 0
 401 400 401 405 423 405 c 0
 430 405 443 404 443 396 c 0
 443 386 431 382 420 378 c 0
 400 372 374 343 361 311 c 2
 225 -13 l 2
 221 -22 170 -148 129 -244 c 0
 117 -271 93 -285 64 -285 c 0
EndSplineSet
EndChar

StartChar: thorn
Encoding: 254 254 112
Width: 505
GlyphClass: 2
Flags: W
TeX: 705 285
HStem: -285 27<16.9975 72.75 164.81 217.003> -14 31<192.371 319.672> 369 45<229.222 336.995>
VStem: 85 70<-249.996 17.9674 43.7392 338.399 348.056 626.571> 401 80<127.023 298.226>
LayerCount: 2
Fore
SplineSet
39 -285 m 0
 30 -285 16 -285 16 -276 c 0
 16 -266 28 -262 39 -258 c 0
 59 -252 85 -247 85 -219 c 2
 85 566 l 2
 85 599 72 632 39 639 c 0
 34 640 31 646 31 652 c 0
 31 658 34 663 38 664 c 0
 89 676 122 692 154 704 c 0
 155 704 155 705 156 705 c 0
 159 705 162 701 162 698 c 0
 162 686 156 652 155 562 c 2
 155 386 l 2
 155 363 156 349 157 348 c 1
 176 367 254 414 317 414 c 0
 420 414 481 319 481 225 c 0
 481 106 382 -14 256 -14 c 0
 228 -14 178 0 158 18 c 0
 155 18 155 -27 155 -33 c 2
 155 -219 l 2
 155 -247 175 -252 195 -258 c 0
 206 -262 218 -266 218 -276 c 0
 218 -285 204 -285 195 -285 c 0
 156 -285 152 -280 117 -280 c 0
 82 -280 78 -285 39 -285 c 0
271 17 m 0
 310 17 401 59 401 193 c 0
 401 347 308 369 265 369 c 0
 231 369 204 359 179 340 c 0
 164 329 155 310 155 269 c 2
 155 115 l 2
 155 96 159 60 178 42 c 0
 193 28 227 17 271 17 c 0
EndSplineSet
EndChar

StartChar: ydieresis
Encoding: 255 255 113
Width: 438
GlyphClass: 2
Flags: W
TeX: 608 285
ItalicCorrection: 3
HStem: -285 86<17.5102 114.448> 378 27<6.05563 49.8994 152.137 193.546 399.046 441.944> 508 100<114.702 193.298 291.702 370.298>
VStem: 13 116<-271.156 -206.881> 104 100<518.702 597.298> 281 100<518.702 597.298> 322 121<327 400>
LayerCount: 2
Fore
SplineSet
154 508 m 0xe8
 129 508 104 533 104 558 c 0
 104 583 129 608 154 608 c 0
 179 608 204 583 204 558 c 0
 204 533 179 508 154 508 c 0xe8
331 508 m 0
 306 508 281 533 281 558 c 0
 281 583 306 608 331 608 c 0
 356 608 381 583 381 558 c 0xe4
 381 533 356 508 331 508 c 0
64 -285 m 0
 38 -285 13 -274 13 -244 c 0
 13 -220 25 -199 46 -199 c 0
 61 -199 75 -205 86 -205 c 0
 94 -205 100 -202 105 -194 c 0
 127 -159 161 -93 190 -16 c 0
 192 -10 193 -2 193 7 c 0
 193 18 192 28 189 36 c 2
 73 329 l 2
 63 353 48 372 28 378 c 0
 17 382 5 386 5 396 c 0
 5 404 18 405 25 405 c 0
 65 405 63 400 98 400 c 0
 133 400 134 405 174 405 c 0
 182 405 194 402 194 394 c 0
 194 384 176 375 165 372 c 0
 151 368 145 359 145 340 c 0
 145 332 150 319 153 312 c 2
 234 112 l 2
 235 109 237 106 240 106 c 0
 242 106 244 109 245 112 c 2
 314 295 l 2
 318 304 322 322 322 332 c 0
 322 357 314 365 302 370 c 0
 291 375 273 384 273 394 c 0
 273 402 286 405 293 405 c 0
 311 405 327 400 364 400 c 0
 401 400 401 405 423 405 c 0
 430 405 443 404 443 396 c 0
 443 386 431 382 420 378 c 0
 400 372 374 343 361 311 c 2
 225 -13 l 2
 221 -22 170 -148 129 -244 c 0xf2
 117 -271 93 -285 64 -285 c 0
EndSplineSet
EndChar

StartChar: Amacron
Encoding: 256 256 114
Width: 692
GlyphClass: 2
Flags: W
TeX: 777 5
ItalicCorrection: 12
HStem: -5 36<-0.573315 70.1888 195.015 266.525 395.098 475.898 612.158 694.277> 249 33<240.006 429.907> 723 54<220.625 512.251>
VStem: -2 178<4 93.5> 489 208<1 90.5>
LayerCount: 2
Fore
SplineSet
231 723 m 2
 224 723 217 729 217 735 c 0
 217 744 222 777 241 777 c 2
 504 777 l 2
 510 777 517 771 517 765 c 0
 517 745 502 723 486 723 c 2
 231 723 l 2
27 -5 m 0
 10 -5 -2 0 -2 8 c 0
 -2 17 9 24 31 31 c 0
 65 41 95 58 117 108 c 0
 192 279 236 393 304 578 c 0
 311 597 316 615 318 636 c 1
 330 640 342 643 354 651 c 0
 366 659 369 679 373 685 c 0
 374 686 377 686 378 684 c 0
 381 678 382 670 385 662 c 0
 449 459 530 223 563 128 c 0
 591 48 624 35 664 28 c 0
 687 24 697 14 697 5 c 0
 697 -3 685 -5 668 -5 c 0
 640 -5 574 1 529 1 c 0
 490 1 448 0 424 0 c 0
 407 0 395 4 395 12 c 0
 395 21 410 28 428 31 c 0
 472 38 489 54 489 76 c 0
 489 105 465 188 450 238 c 0
 447 248 441 249 423 249 c 2
 234 249 l 2
 228 249 222 245 217 231 c 0
 208 205 176 100 176 87 c 0
 176 58 202 38 234 30 c 0
 257 24 267 19 267 10 c 0
 267 2 255 -1 238 -1 c 0
 220 -1 184 1 147 1 c 0
 103 1 60 -5 27 -5 c 0
261 282 m 2
 416 282 l 2
 426 282 430 282 430 287 c 0
 430 289 429 293 428 297 c 2
 350 541 l 2
 346 553 344 559 341 559 c 0
 339 559 337 553 333 542 c 2
 242 297 l 2
 241 294 240 291 240 289 c 0
 240 282 248 282 261 282 c 2
EndSplineSet
EndChar

StartChar: amacron
Encoding: 257 257 115
Width: 399
GlyphClass: 2
Flags: W
TeX: 555 14
ItalicCorrection: 26
HStem: -14 48<99 198.414 312.435 371.606> 365 49<153.283 253> 500 55<84.6605 317.414>
VStem: 37 78<42.5666 125.471 280.17 320.237> 238 68<58.3296 168.996 199.884 353.979>
LayerCount: 2
Fore
SplineSet
95 500 m 2
 88 500 81 506 81 512 c 0
 81 521 86 555 105 555 c 2
 308 555 l 2
 314 555 321 549 321 543 c 0
 321 521 311 500 290 500 c 2
 95 500 l 2
117 -14 m 0
 81 -14 37 35 37 72 c 0
 37 114 59 135 108 155 c 2
 210 197 l 2
 236 208 237 210 238 237 c 2
 240 301 l 2
 241 336 219 365 181 365 c 0
 161 365 139 358 126 347 c 0
 118 341 116 330 116 318 c 2
 117 300 l 2
 117 290 71 265 51 265 c 0
 44 265 40 269 40 274 c 0
 40 295 55 321 80 343 c 0
 125 384 189 414 229 414 c 0
 277 414 312 376 311 325 c 2
 306 85 l 2
 305 57 320 38 342 38 c 0
 359 38 370 41 379 49 c 0
 383 53 385 54 387 54 c 0
 393 54 398 49 398 43 c 0
 398 37 393 27 387 21 c 0
 366 0 339 -14 318 -14 c 0
 287 -14 263 3 245 38 c 1
 242 38 l 1
 198 2 160 -14 117 -14 c 0
164 34 m 0
 190 34 208 43 223 58 c 0
 230 65 235 74 236 99 c 2
 238 148 l 2
 239 163 237 169 229 169 c 0
 226 169 220 168 209 164 c 0
 138 138 115 110 115 87 c 0
 115 52 140 34 164 34 c 0
EndSplineSet
EndChar

StartChar: Abreve
Encoding: 258 258 116
Width: 692
GlyphClass: 2
Flags: W
TeX: 820 5
ItalicCorrection: 12
HStem: -5 36<-0.573315 70.1888 195.015 266.525 395.098 475.898 612.158 694.277> 249 33<240.006 429.907> 692 60<287.503 438.497>
VStem: -2 178<4 93.5> 489 208<1 90.5>
LayerCount: 2
Fore
SplineSet
363 692 m 0
 278 692 226 756 226 796 c 0
 226 809 230 820 236 820 c 0
 246 820 254 807 260 799 c 0
 287 767 320 752 363 752 c 0
 406 752 439 767 466 799 c 0
 472 807 480 820 490 820 c 0
 500 820 500 809 500 796 c 0
 500 756 448 692 363 692 c 0
27 -5 m 0
 10 -5 -2 0 -2 8 c 0
 -2 17 9 24 31 31 c 0
 65 41 95 58 117 108 c 0
 192 279 236 393 304 578 c 0
 311 597 316 615 318 636 c 1
 330 640 342 643 354 651 c 0
 366 659 369 679 373 685 c 0
 374 686 377 686 378 684 c 0
 381 678 382 670 385 662 c 0
 449 459 530 223 563 128 c 0
 591 48 624 35 664 28 c 0
 687 24 697 14 697 5 c 0
 697 -3 685 -5 668 -5 c 0
 640 -5 574 1 529 1 c 0
 490 1 448 0 424 0 c 0
 407 0 395 4 395 12 c 0
 395 21 410 28 428 31 c 0
 472 38 489 54 489 76 c 0
 489 105 465 188 450 238 c 0
 447 248 441 249 423 249 c 2
 234 249 l 2
 228 249 222 245 217 231 c 0
 208 205 176 100 176 87 c 0
 176 58 202 38 234 30 c 0
 257 24 267 19 267 10 c 0
 267 2 255 -1 238 -1 c 0
 220 -1 184 1 147 1 c 0
 103 1 60 -5 27 -5 c 0
261 282 m 2
 416 282 l 2
 426 282 430 282 430 287 c 0
 430 289 429 293 428 297 c 2
 350 541 l 2
 346 553 344 559 341 559 c 0
 339 559 337 553 333 542 c 2
 242 297 l 2
 241 294 240 291 240 289 c 0
 240 282 248 282 261 282 c 2
EndSplineSet
EndChar

StartChar: abreve
Encoding: 259 259 117
Width: 399
GlyphClass: 2
Flags: W
TeX: 608 14
ItalicCorrection: 26
HStem: -14 48<99 198.414 312.435 371.606> 365 49<153.283 253> 478 60<138.4 263.6>
VStem: 37 78<42.5666 125.471 280.17 320.237> 94 30<560.36 607.992> 238 68<58.3296 168.996 199.884 353.979> 278 30<560.36 607.992>
LayerCount: 2
Fore
SplineSet
201 478 m 0xea
 131 478 94 534 94 584 c 0
 94 597 99 608 109 608 c 0
 119 608 122 597 124 587 c 0
 129 562 151 538 201 538 c 0
 251 538 273 562 278 587 c 0
 280 597 283 608 293 608 c 0
 303 608 308 597 308 584 c 0
 308 534 271 478 201 478 c 0xea
117 -14 m 0
 81 -14 37 35 37 72 c 0
 37 114 59 135 108 155 c 2
 210 197 l 2
 236 208 237 210 238 237 c 2
 240 301 l 2
 241 336 219 365 181 365 c 0
 161 365 139 358 126 347 c 0
 118 341 116 330 116 318 c 2
 117 300 l 2
 117 290 71 265 51 265 c 0
 44 265 40 269 40 274 c 0
 40 295 55 321 80 343 c 0
 125 384 189 414 229 414 c 0
 277 414 312 376 311 325 c 2
 306 85 l 2xf4
 305 57 320 38 342 38 c 0
 359 38 370 41 379 49 c 0
 383 53 385 54 387 54 c 0
 393 54 398 49 398 43 c 0
 398 37 393 27 387 21 c 0
 366 0 339 -14 318 -14 c 0
 287 -14 263 3 245 38 c 1
 242 38 l 1
 198 2 160 -14 117 -14 c 0
164 34 m 0
 190 34 208 43 223 58 c 0
 230 65 235 74 236 99 c 2
 238 148 l 2
 239 163 237 169 229 169 c 0
 226 169 220 168 209 164 c 0
 138 138 115 110 115 87 c 0
 115 52 140 34 164 34 c 0
EndSplineSet
EndChar

StartChar: Aogonek
Encoding: 260 260 118
Width: 692
GlyphClass: 2
Flags: W
TeX: 685 287
ItalicCorrection: 12
HStem: -287 71<497.439 575.053> -5 36<-0.573315 70.1888 195.015 266.525 395.098 475.898 612.158 694.277> 249 33<240.006 429.907>
VStem: -2 178<4 93.5> 396 85<-199.668 -110.362> 489 208<1 90.5>
LayerCount: 2
Fore
SplineSet
664 28 m 0
 687 24 697 14 697 5 c 0
 697 -3 685 -5 668 -5 c 0
 648 -5 607 -2 569 0 c 1
 536 -28 481 -85 481 -155 c 0
 481 -190 512 -216 547 -216 c 0
 582 -216 620 -181 629 -176 c 0
 634 -173 641 -174 641 -182 c 0
 641 -225 564 -287 510 -287 c 0
 447 -287 396 -237 396 -174 c 0
 396 -99 490 -30 538 1 c 1
 529 1 l 2
 490 1 448 0 424 0 c 0
 407 0 395 4 395 12 c 0
 395 21 410 28 428 31 c 0
 472 38 489 54 489 76 c 0
 489 105 465 188 450 238 c 0
 447 248 441 249 423 249 c 2
 234 249 l 2
 228 249 222 245 217 231 c 0
 208 205 176 100 176 87 c 0
 176 58 202 38 234 30 c 0
 257 24 267 19 267 10 c 0
 267 2 255 -1 238 -1 c 0
 220 -1 184 1 147 1 c 0
 103 1 60 -5 27 -5 c 0
 10 -5 -2 0 -2 8 c 0
 -2 17 9 24 31 31 c 0
 65 41 95 58 117 108 c 0
 192 279 236 393 304 578 c 0
 311 597 316 615 318 636 c 1
 330 640 342 643 354 651 c 0
 366 659 369 679 373 685 c 0
 374 686 377 686 378 684 c 0
 381 678 382 670 385 662 c 0
 449 459 530 223 563 128 c 0
 591 48 624 35 664 28 c 0
416 282 m 2
 426 282 430 282 430 287 c 0
 430 289 429 293 428 297 c 2
 350 541 l 2
 346 553 344 559 341 559 c 0
 339 559 337 553 333 542 c 2
 242 297 l 2
 241 294 240 291 240 289 c 0
 240 282 248 282 261 282 c 2
 416 282 l 2
EndSplineSet
EndChar

StartChar: aogonek
Encoding: 261 261 119
Width: 399
GlyphClass: 2
Flags: W
TeX: 414 287
ItalicCorrection: 26
HStem: -287 66<294.324 363.883> -14 48<99 198.414> 365 49<153.283 253>
VStem: 37 78<42.5666 125.471 280.17 320.237> 205 74<-206.017 -105.896> 238 68<58.3296 168.996 199.884 353.979>
LayerCount: 2
Fore
SplineSet
398 -200 m 0xf8
 402 -200 406 -201 406 -207 c 0
 406 -226 362 -287 306 -287 c 0xf4
 248 -287 205 -253 205 -179 c 0xf8
 205 -110 266 -49 309 -14 c 1
 282 -11 261 6 245 38 c 1
 242 38 l 1
 198 2 160 -14 117 -14 c 0
 81 -14 37 35 37 72 c 0
 37 114 59 135 108 155 c 2
 210 197 l 2
 236 208 237 210 238 237 c 2
 240 301 l 2
 241 336 219 365 181 365 c 0
 161 365 139 358 126 347 c 0
 118 341 116 330 116 318 c 2
 117 300 l 2
 117 290 71 265 51 265 c 0
 44 265 40 269 40 274 c 0
 40 295 55 321 80 343 c 0
 125 384 189 414 229 414 c 0
 277 414 312 376 311 325 c 2
 306 85 l 2xf4
 305 57 320 38 342 38 c 0
 359 38 370 41 379 49 c 0
 383 53 385 54 387 54 c 0
 393 54 398 49 398 43 c 0
 398 37 393 27 387 21 c 0
 381 15 374 9 366 4 c 0
 325 -36 279 -81 279 -152 c 0
 279 -196 305 -221 339 -221 c 0
 374 -221 393 -200 398 -200 c 0xf8
238 148 m 2
 239 163 237 169 229 169 c 0
 226 169 220 168 209 164 c 0
 138 138 115 110 115 87 c 0
 115 52 140 34 164 34 c 0
 190 34 208 43 223 58 c 0
 230 65 235 74 236 99 c 2
 238 148 l 2
EndSplineSet
EndChar

StartChar: Cacute
Encoding: 262 262 120
Width: 710
GlyphClass: 2
Flags: W
TeX: 838 15
HStem: -15 31<339.76 506.413> 632 31<330.78 512.297>
VStem: 46 101<225.428 434.419> 614 34<476.228 539.064>
LayerCount: 2
Fore
SplineSet
368 685 m 0
 364 685 362 688 362 691 c 0
 362 695 364 701 367 706 c 0
 391 746 417 786 444 825 c 0
 451 835 460 838 471 838 c 0
 485 838 529 829 529 815 c 0
 529 808 525 804 516 796 c 0
 477 761 425 725 386 694 c 0
 377 687 371 685 368 685 c 0
407 -15 m 0
 220 -15 46 119 46 323 c 0
 46 517 227 663 432 663 c 0
 509 663 542 654 610 637 c 0
 630 632 637 621 639 603 c 0
 642 572 646 540 648 488 c 0
 649 473 620 464 614 487 c 0
 601 538 587 574 552 598 c 0
 519 620 470 632 415 632 c 0
 259 632 147 494 147 347 c 0
 147 184 256 16 422 16 c 0
 518 16 577 62 621 141 c 0
 630 158 655 159 655 138 c 0
 655 122 640 70 628 41 c 0
 618 22 617 21 596 14 c 0
 547 -6 472 -15 407 -15 c 0
EndSplineSet
EndChar

StartChar: cacute
Encoding: 263 263 121
Width: 407
GlyphClass: 2
Flags: W
TeX: 649 15
HStem: -15 60<180.332 307.274> 377 37<164.065 263.89> 457 21G<210.5 216.5>
VStem: 35 69<125.033 282.32>
LayerCount: 2
Fore
SplineSet
213 457 m 0
 208 457 205 459 205 466 c 0
 205 470 206 476 209 484 c 0
 223 521 270 604 286 631 c 0
 292 641 303 649 313 649 c 0
 338 649 362 642 362 628 c 0
 362 620 358 616 352 607 c 0
 328 572 270 504 244 478 c 0
 230 464 220 457 213 457 c 0
213 -15 m 0
 112 -15 35 69 35 180 c 0
 35 310 129 414 246 414 c 0
 289 414 328 402 360 379 c 0
 368 373 372 367 372 360 c 0
 372 343 346 319 329 319 c 0
 322 319 316 324 308 330 c 0
 279 352 238 377 214 377 c 0
 149 377 104 310 104 212 c 0
 104 118 171 45 256 45 c 0
 295 45 319 56 351 88 c 0
 354 91 358 93 361 93 c 0
 367 93 372 87 372 79 c 0
 372 71 367 61 357 48 c 0
 325 7 274 -15 213 -15 c 0
EndSplineSet
EndChar

StartChar: Ccircumflex
Encoding: 264 264 122
Width: 710
GlyphClass: 2
Flags: W
TeX: 823 15
HStem: -15 31<339.76 506.413> 632 31<330.78 512.297>
VStem: 46 101<225.428 434.419> 614 34<476.228 539.064>
LayerCount: 2
Fore
SplineSet
270 696 m 0
 261 696 255 700 255 706 c 0
 255 710 257 714 262 718 c 2
 360 801 l 2
 379 817 386 823 401 823 c 0
 416 823 423 817 442 801 c 2
 540 718 l 2
 545 714 546 710 546 706 c 0
 546 700 541 695 532 695 c 0
 519 695 437 736 411 751 c 0
 402 756 400 756 391 751 c 0
 365 736 283 696 270 696 c 0
407 -15 m 0
 220 -15 46 119 46 323 c 0
 46 517 227 663 432 663 c 0
 509 663 542 654 610 637 c 0
 630 632 637 621 639 603 c 0
 642 572 646 540 648 488 c 0
 649 473 620 464 614 487 c 0
 601 538 587 574 552 598 c 0
 519 620 470 632 415 632 c 0
 259 632 147 494 147 347 c 0
 147 184 256 16 422 16 c 0
 518 16 577 62 621 141 c 0
 630 158 655 159 655 138 c 0
 655 122 640 70 628 41 c 0
 618 22 617 21 596 14 c 0
 547 -6 472 -15 407 -15 c 0
EndSplineSet
EndChar

StartChar: ccircumflex
Encoding: 265 265 123
Width: 407
GlyphClass: 2
Flags: W
TeX: 648 15
HStem: -15 60<180.332 307.274> 377 37<164.065 263.89> 455 21G<133.5 142 332 340.5>
VStem: 35 69<125.033 282.32>
LayerCount: 2
Fore
SplineSet
237 648 m 0
 245 648 252 638 257 630 c 0
 277 599 345 481 345 468 c 0
 345 459 345 455 336 455 c 0
 328 455 315 468 307 477 c 0
 294 492 263 532 241 562 c 0
 238 566 237 566 234 562 c 0
 212 532 181 492 168 477 c 0
 160 468 146 455 138 455 c 0
 129 455 129 459 129 468 c 0
 129 481 197 599 217 630 c 0
 222 638 229 648 237 648 c 0
213 -15 m 0
 112 -15 35 69 35 180 c 0
 35 310 129 414 246 414 c 0
 289 414 328 402 360 379 c 0
 368 373 372 367 372 360 c 0
 372 343 346 319 329 319 c 0
 322 319 316 324 308 330 c 0
 279 352 238 377 214 377 c 0
 149 377 104 310 104 212 c 0
 104 118 171 45 256 45 c 0
 295 45 319 56 351 88 c 0
 354 91 358 93 361 93 c 0
 367 93 372 87 372 79 c 0
 372 71 367 61 357 48 c 0
 325 7 274 -15 213 -15 c 0
EndSplineSet
EndChar

StartChar: Cdotaccent
Encoding: 266 266 124
Width: 710
GlyphClass: 2
Flags: W
TeX: 805 15
HStem: -15 31<339.76 506.413> 632 31<330.78 512.297> 695 110<357.847 444.153>
VStem: 46 101<225.428 434.419> 346 110<706.847 793.153> 614 34<476.228 539.064>
LayerCount: 2
Fore
SplineSet
401 695 m 0
 371 695 346 720 346 750 c 0
 346 780 371 805 401 805 c 0
 431 805 456 780 456 750 c 0
 456 720 431 695 401 695 c 0
407 -15 m 0
 220 -15 46 119 46 323 c 0
 46 517 227 663 432 663 c 0
 509 663 542 654 610 637 c 0
 630 632 637 621 639 603 c 0
 642 572 646 540 648 488 c 0
 649 473 620 464 614 487 c 0
 601 538 587 574 552 598 c 0
 519 620 470 632 415 632 c 0
 259 632 147 494 147 347 c 0
 147 184 256 16 422 16 c 0
 518 16 577 62 621 141 c 0
 630 158 655 159 655 138 c 0
 655 122 640 70 628 41 c 0
 618 22 617 21 596 14 c 0
 547 -6 472 -15 407 -15 c 0
EndSplineSet
EndChar

StartChar: cdotaccent
Encoding: 267 267 125
Width: 407
GlyphClass: 2
Flags: W
TeX: 617 15
HStem: -15 60<180.332 307.274> 377 37<164.065 263.89> 516 101<196.117 278.823>
VStem: 35 69<125.033 282.32> 187 101<525.117 607.823>
LayerCount: 2
Fore
SplineSet
237 516 m 0
 209 516 187 538 187 566 c 0
 187 595 209 617 237 617 c 0
 266 617 288 595 288 566 c 0
 288 538 266 516 237 516 c 0
213 -15 m 0
 112 -15 35 69 35 180 c 0
 35 310 129 414 246 414 c 0
 289 414 328 402 360 379 c 0
 368 373 372 367 372 360 c 0
 372 343 346 319 329 319 c 0
 322 319 316 324 308 330 c 0
 279 352 238 377 214 377 c 0
 149 377 104 310 104 212 c 0
 104 118 171 45 256 45 c 0
 295 45 319 56 351 88 c 0
 354 91 358 93 361 93 c 0
 367 93 372 87 372 79 c 0
 372 71 367 61 357 48 c 0
 325 7 274 -15 213 -15 c 0
EndSplineSet
EndChar

StartChar: Ccaron
Encoding: 268 268 126
Width: 710
GlyphClass: 2
Flags: W
TeX: 823 15
HStem: -15 31<339.76 506.413> 632 31<330.78 512.297>
VStem: 46 101<225.428 434.419> 614 34<476.228 539.064>
LayerCount: 2
Fore
SplineSet
271 822 m 0
 284 822 366 782 392 767 c 0
 401 762 403 762 412 767 c 0
 438 782 520 823 533 823 c 0
 542 823 547 818 547 812 c 0
 547 808 546 804 541 800 c 2
 443 722 l 2
 423 706 417 700 402 700 c 0
 387 700 381 706 361 722 c 2
 263 800 l 2
 258 804 256 808 256 812 c 0
 256 818 262 822 271 822 c 0
407 -15 m 0
 220 -15 46 119 46 323 c 0
 46 517 227 663 432 663 c 0
 509 663 542 654 610 637 c 0
 630 632 637 621 639 603 c 0
 642 572 646 540 648 488 c 0
 649 473 620 464 614 487 c 0
 601 538 587 574 552 598 c 0
 519 620 470 632 415 632 c 0
 259 632 147 494 147 347 c 0
 147 184 256 16 422 16 c 0
 518 16 577 62 621 141 c 0
 630 158 655 159 655 138 c 0
 655 122 640 70 628 41 c 0
 618 22 617 21 596 14 c 0
 547 -6 472 -15 407 -15 c 0
EndSplineSet
EndChar

StartChar: ccaron
Encoding: 269 269 127
Width: 407
GlyphClass: 2
Flags: W
TeX: 648 15
HStem: -15 60<180.332 307.274> 377 37<164.065 263.89> 455 21G<233 241>
VStem: 35 69<125.033 282.32>
LayerCount: 2
Fore
SplineSet
237 455 m 0
 229 455 222 465 217 473 c 0
 197 504 129 622 129 635 c 0
 129 644 129 648 138 648 c 0
 146 648 160 635 168 626 c 0
 181 611 212 571 234 541 c 0
 237 537 238 537 241 541 c 0
 263 571 294 611 307 626 c 0
 315 635 328 648 336 648 c 0
 345 648 345 644 345 635 c 0
 345 622 277 504 257 473 c 0
 252 465 245 455 237 455 c 0
213 -15 m 0
 112 -15 35 69 35 180 c 0
 35 310 129 414 246 414 c 0
 289 414 328 402 360 379 c 0
 368 373 372 367 372 360 c 0
 372 343 346 319 329 319 c 0
 322 319 316 324 308 330 c 0
 279 352 238 377 214 377 c 0
 149 377 104 310 104 212 c 0
 104 118 171 45 256 45 c 0
 295 45 319 56 351 88 c 0
 354 91 358 93 361 93 c 0
 367 93 372 87 372 79 c 0
 372 71 367 61 357 48 c 0
 325 7 274 -15 213 -15 c 0
EndSplineSet
EndChar

StartChar: Dcaron
Encoding: 270 270 128
Width: 754
GlyphClass: 2
Flags: W
TeX: 823 7
HStem: -7 35<29.2661 112.208 209.995 451.599> 628 31<29.7439 95.0725 230.398 425.508>
VStem: 129 80<62.1482 605.889> 624 95<224.093 444.954>
LayerCount: 2
Fore
SplineSet
234 822 m 0
 247 822 329 782 355 767 c 0
 364 762 366 762 375 767 c 0
 401 782 483 823 496 823 c 0
 505 823 510 818 510 812 c 0
 510 808 509 804 504 800 c 2
 406 722 l 2
 386 706 380 700 365 700 c 0
 350 700 344 706 324 722 c 2
 226 800 l 2
 221 804 219 808 219 812 c 0
 219 818 225 822 234 822 c 0
371 -7 m 0
 351 -7 242 0 163 0 c 0
 123 0 111 -5 58 -5 c 0
 41 -5 29 -2 29 8 c 0
 29 19 39 20 62 24 c 0
 112 33 129 51 129 99 c 2
 129 549 l 2
 129 597 112 613 62 622 c 0
 39 626 29 629 29 640 c 0
 29 649 41 653 58 653 c 0
 109 653 121 651 169 651 c 0
 212 651 313 659 340 659 c 0
 611 659 719 517 719 342 c 0
 719 150 562 -7 371 -7 c 0
359 28 m 0
 515 28 624 151 624 325 c 0
 624 517 482 628 345 628 c 0
 258 628 209 627 209 567 c 2
 209 121 l 2
 209 40 284 28 359 28 c 0
EndSplineSet
EndChar

StartChar: dcaron
Encoding: 271 271 129
Width: 519
GlyphClass: 2
Flags: W
TeX: 705 19
ItalicCorrection: 131
HStem: -14 52<179.572 299.052> 21 24<433.488 502.885> 379 35<170.44 293.672> 639 25<293.013 331.248>
VStem: 35 71<114.478 287.604> 352 70<67.1094 328.417 400.004 628.241> 481 61<564.592 694.402>
LayerCount: 2
Fore
SplineSet
488 512 m 0x3e
 484 512 481 522 481 535 c 0
 481 540 484 569 484 584 c 0
 484 621 479 641 479 657 c 0
 479 678 508 705 529 705 c 0
 541 705 542 691 542 675 c 0
 542 638 527 574 509 537 c 0
 501 520 494 512 488 512 c 0x3e
357 -19 m 0
 354 -19 346 -12 346 -9 c 0
 346 4 351 34 351 51 c 2
 351 57 l 1
 331 26 286 -14 220 -14 c 0xbe
 106 -14 35 89 35 190 c 0
 35 306 120 414 260 414 c 0
 287 414 317 408 332 403 c 0
 338 401 342 400 345 400 c 0
 348 400 352 406 352 424 c 2
 352 566 l 2
 352 620 334 633 302 639 c 0
 296 640 293 646 293 652 c 0
 293 657 295 662 301 664 c 0
 360 679 390 693 409 701 c 0
 414 703 419 704 422 704 c 0
 426 704 428 702 429 698 c 0
 429 686 422 652 422 562 c 2
 422 110 l 2
 422 64 428 45 443 45 c 0
 450 45 469 46 486 48 c 0
 499 49 504 47 504 39 c 0
 504 30 497 21 490 21 c 0x7e
 453 16 420 7 373 -13 c 0
 362 -19 361 -19 357 -19 c 0
256 38 m 0
 291 38 326 58 351 87 c 1
 352 267 l 2
 352 321 303 379 229 379 c 0
 183 379 106 346 106 213 c 0
 106 62 212 38 256 38 c 0
EndSplineSet
EndChar

StartChar: ebreve
Encoding: 277 277 130
Width: 390
GlyphClass: 2
Flags: W
TeX: 608 15
HStem: -15 61<174.086 299.389> 257 31<109.637 284.97> 385 29<161.117 258.964> 478 60<159.4 284.6>
VStem: 30 64<133.835 256.062> 115 30<560.36 607.992> 294 66<277.5 358.559> 299 30<560.36 607.992>
LayerCount: 2
Fore
SplineSet
222 478 m 0xfd
 152 478 115 534 115 584 c 0
 115 597 120 608 130 608 c 0
 140 608 143 597 145 587 c 0
 150 562 172 538 222 538 c 0
 272 538 294 562 299 587 c 0
 301 597 304 608 314 608 c 0
 324 608 329 597 329 584 c 0
 329 534 292 478 222 478 c 0xfd
213 -15 m 0
 103 -15 30 72 30 203 c 0
 30 318 118 414 223 414 c 0
 303 414 360 362 360 288 c 0xfe
 360 267 351 257 330 257 c 2
 119 257 l 2
 100 257 94 249 94 220 c 0
 94 124 163 46 248 46 c 0
 288 46 321 62 346 91 c 0
 351 98 353 99 357 99 c 0
 362 99 365 95 365 89 c 0
 365 76 359 62 347 47 c 0
 317 8 266 -15 213 -15 c 0
121 288 m 2
 212 288 l 2
 244 288 264 289 286 293 c 0
 292 294 294 301 294 315 c 0
 294 353 255 385 208 385 c 0
 162 385 109 338 109 298 c 0
 109 291 113 288 121 288 c 2
EndSplineSet
EndChar

StartChar: eogonek
Encoding: 281 281 131
Width: 383
GlyphClass: 2
Flags: W
TeX: 414 287
ItalicCorrection: 8
HStem: -287 66<231.324 300.883> -14 60<170.037 268.589> 257 31<111.332 284.014> 383 31<163.177 267.455>
VStem: 30 62<133.034 255.743> 142 74<-206.017 -103.966> 295 63<292.115 363.238>
LayerCount: 2
Fore
SplineSet
243 -287 m 0
 185 -287 142 -253 142 -179 c 0
 142 -107 204 -43 245 -9 c 1
 231 -12 215 -14 198 -14 c 0
 107 -14 30 70 30 203 c 0
 30 316 116 414 229 414 c 0
 310 414 358 376 358 323 c 0
 358 272 339 257 281 257 c 2
 117 257 l 2
 101 257 92 254 92 220 c 0
 92 130 153 46 243 46 c 0
 268 46 311 56 337 90 c 0
 340 93 345 97 348 97 c 0
 352 97 354 93 355 88 c 0
 355 85 355 81 354 77 c 0
 349 59 331 35 303 16 c 0
 287 4 216 -55 216 -152 c 0
 216 -196 242 -221 276 -221 c 0
 311 -221 330 -200 335 -200 c 0
 339 -200 343 -201 343 -207 c 0
 343 -226 299 -287 243 -287 c 0
130 288 m 2
 212 288 l 2
 241 288 264 289 285 293 c 0
 292 294 295 310 295 321 c 0
 295 361 252 383 213 383 c 0
 157 383 111 329 111 303 c 0
 111 295 116 288 130 288 c 2
EndSplineSet
EndChar

StartChar: ecaron
Encoding: 283 283 132
Width: 390
GlyphClass: 2
Flags: W
TeX: 648 15
ItalicCorrection: 8
HStem: -15 61<174.086 299.389> 257 31<109.637 284.97> 385 29<161.117 258.964> 455 21G<218 226>
VStem: 30 64<133.835 256.062> 294 66<277.5 358.559>
LayerCount: 2
Fore
SplineSet
222 455 m 0
 214 455 207 465 202 473 c 0
 182 504 114 622 114 635 c 0
 114 644 114 648 123 648 c 0
 131 648 145 635 153 626 c 0
 166 611 197 571 219 541 c 0
 222 537 223 537 226 541 c 0
 248 571 279 611 292 626 c 0
 300 635 313 648 321 648 c 0
 330 648 330 644 330 635 c 0
 330 622 262 504 242 473 c 0
 237 465 230 455 222 455 c 0
213 -15 m 0
 103 -15 30 72 30 203 c 0
 30 318 118 414 223 414 c 0
 303 414 360 362 360 288 c 0
 360 267 351 257 330 257 c 2
 119 257 l 2
 100 257 94 249 94 220 c 0
 94 124 163 46 248 46 c 0
 288 46 321 62 346 91 c 0
 351 98 353 99 357 99 c 0
 362 99 365 95 365 89 c 0
 365 76 359 62 347 47 c 0
 317 8 266 -15 213 -15 c 0
121 288 m 2
 212 288 l 2
 244 288 264 289 286 293 c 0
 292 294 294 301 294 315 c 0
 294 353 255 385 208 385 c 0
 162 385 109 338 109 298 c 0
 109 291 113 288 121 288 c 2
EndSplineSet
EndChar

StartChar: gbreve
Encoding: 287 287 133
Width: 435
GlyphClass: 2
Flags: W
TeX: 608 290
HStem: -290 40<135.317 276.047> 106 35<159.887 251.359> 349 39<366.1 440.191> 386 30<158.849 244.218> 478 60<152.4 277.6>
VStem: 11 75<-208.451 -105.888> 40 66<25 79.9028 198.608 332.983> 108 30<560.36 607.992> 292 30<560.36 607.992> 295 65<201.982 340.571> 357 61<-155.235 -68.0179>
LayerCount: 2
Fore
SplineSet
215 478 m 0xc980
 145 478 108 534 108 584 c 0
 108 597 113 608 123 608 c 0
 133 608 136 597 138 587 c 0
 143 562 165 538 215 538 c 0
 265 538 287 562 292 587 c 0
 294 597 297 608 307 608 c 0
 317 608 322 597 322 584 c 0
 322 534 285 478 215 478 c 0xc980
428 388 m 0xeb
 435 388 441 382 441 373 c 0
 441 368 437 360 431 354 c 0
 428 351 425 349 423 349 c 2
 396 349 l 2
 378 349 368 346 366 341 c 0
 363 332 360 313 360 295 c 0
 360 193 287 106 201 106 c 0
 183 106 165 109 148 116 c 1
 124 104 106 86 106 74 c 0xeb40
 106 46 151 29 236 24 c 0
 359 17 418 -16 418 -77 c 0
 418 -180 303 -290 195 -290 c 0
 81 -290 11 -244 11 -170 c 0xed20
 11 -135 21 -113 44 -95 c 0
 63 -79 96 -54 128 -28 c 1
 64 -16 40 6 40 44 c 0
 40 57 47 68 63 81 c 0
 102 110 111 117 119 129 c 1
 73 156 39 205 39 258 c 0
 39 351 122 416 213 416 c 0xdb
 252 416 278 403 306 395 c 0
 338 386 353 385 373 385 c 0
 389 385 418 388 428 388 c 0xeb
207 141 m 0
 257 141 295 199 295 275 c 0
 295 333 249 386 200 386 c 0xd940
 153 386 111 331 111 270 c 0
 111 200 155 141 207 141 c 0
357 -109 m 0xcd20
 357 -65 313 -44 207 -37 c 0
 191 -36 177 -35 164 -33 c 1
 106 -72 86 -104 86 -155 c 0
 86 -208 140 -250 209 -250 c 0
 249 -250 280 -241 304 -223 c 0
 337 -198 357 -155 357 -109 c 0xcd20
EndSplineSet
EndChar

StartChar: gdotaccent
Encoding: 289 289 134
Width: 435
GlyphClass: 2
Flags: W
TeX: 617 290
HStem: -290 40<135.317 276.047> 106 35<159.887 251.359> 349 39<366.1 440.191> 386 30<158.849 244.218> 516 101<174.117 256.823>
VStem: 11 75<-208.451 -105.888> 40 66<25 79.9028 198.608 332.983> 165 101<525.117 607.823> 295 65<201.982 340.571> 357 61<-155.235 -68.0179>
LayerCount: 2
Fore
SplineSet
215 516 m 0xc9
 187 516 165 538 165 566 c 0
 165 595 187 617 215 617 c 0
 244 617 266 595 266 566 c 0
 266 538 244 516 215 516 c 0xc9
428 388 m 0xeb
 435 388 441 382 441 373 c 0
 441 368 437 360 431 354 c 0
 428 351 425 349 423 349 c 2
 396 349 l 2
 378 349 368 346 366 341 c 0
 363 332 360 313 360 295 c 0
 360 193 287 106 201 106 c 0
 183 106 165 109 148 116 c 1
 124 104 106 86 106 74 c 0xeb80
 106 46 151 29 236 24 c 0
 359 17 418 -16 418 -77 c 0
 418 -180 303 -290 195 -290 c 0
 81 -290 11 -244 11 -170 c 0xed40
 11 -135 21 -113 44 -95 c 0
 63 -79 96 -54 128 -28 c 1
 64 -16 40 6 40 44 c 0
 40 57 47 68 63 81 c 0
 102 110 111 117 119 129 c 1
 73 156 39 205 39 258 c 0
 39 351 122 416 213 416 c 0xdb
 252 416 278 403 306 395 c 0
 338 386 353 385 373 385 c 0
 389 385 418 388 428 388 c 0xeb
207 141 m 0
 257 141 295 199 295 275 c 0
 295 333 249 386 200 386 c 0xd980
 153 386 111 331 111 270 c 0
 111 200 155 141 207 141 c 0
357 -109 m 0xcd40
 357 -65 313 -44 207 -37 c 0
 191 -36 177 -35 164 -33 c 1
 106 -72 86 -104 86 -155 c 0
 86 -208 140 -250 209 -250 c 0
 249 -250 280 -241 304 -223 c 0
 337 -198 357 -155 357 -109 c 0xcd40
EndSplineSet
EndChar

StartChar: gcommaaccent
Encoding: 291 291 135
Width: 435
GlyphClass: 2
Flags: W
TeX: 689 290
HStem: -290 40<135.317 276.047> 106 35<159.887 251.359> 349 39<366.1 440.191> 386 30<158.849 244.218> 469 78<199.516 266.433> 668 21<245.024 285.96>
VStem: 11 75<-208.451 -105.888> 40 66<25 79.9028 198.608 332.983> 142 52<549.828 626.215> 295 65<201.982 340.571> 357 61<-155.235 -68.0179>
LayerCount: 2
Fore
SplineSet
225 469 m 0xcc80
 177 469 142 510 142 566 c 0
 142 630 216 689 268 689 c 0
 280 689 286 684 286 679 c 0
 286 675 281 670 272 668 c 0
 228 658 194 626 194 592 c 0
 194 571 206 547 225 547 c 0
 254 547 272 527 272 505 c 0
 272 489 254 469 225 469 c 0xcc80
428 388 m 0xed80
 435 388 441 382 441 373 c 0
 441 368 437 360 431 354 c 0
 428 351 425 349 423 349 c 2
 396 349 l 2
 378 349 368 346 366 341 c 0
 363 332 360 313 360 295 c 0
 360 193 287 106 201 106 c 0
 183 106 165 109 148 116 c 1
 124 104 106 86 106 74 c 0xedc0
 106 46 151 29 236 24 c 0
 359 17 418 -16 418 -77 c 0
 418 -180 303 -290 195 -290 c 0
 81 -290 11 -244 11 -170 c 0xeea0
 11 -135 21 -113 44 -95 c 0
 63 -79 96 -54 128 -28 c 1
 64 -16 40 6 40 44 c 0
 40 57 47 68 63 81 c 0
 102 110 111 117 119 129 c 1
 73 156 39 205 39 258 c 0
 39 351 122 416 213 416 c 0xdd80
 252 416 278 403 306 395 c 0
 338 386 353 385 373 385 c 0
 389 385 418 388 428 388 c 0xed80
207 141 m 0
 257 141 295 199 295 275 c 0
 295 333 249 386 200 386 c 0xdcc0
 153 386 111 331 111 270 c 0
 111 200 155 141 207 141 c 0
357 -109 m 0xcea0
 357 -65 313 -44 207 -37 c 0
 191 -36 177 -35 164 -33 c 1
 106 -72 86 -104 86 -155 c 0
 86 -208 140 -250 209 -250 c 0
 249 -250 280 -241 304 -223 c 0
 337 -198 357 -155 357 -109 c 0xcea0
EndSplineSet
EndChar

StartChar: hcircumflex
Encoding: 293 293 136
Width: 515
GlyphClass: 2
Flags: W
TeX: 870 3
HStem: -3 27<19.291 71.3797 166.714 215.629 296.286 344.612 441.734 491.586> 362 52<228.455 321.254>
VStem: 85 70<32.0327 335.273 351.42 626.703> 358 70<31.9098 325.919>
LayerCount: 2
Fore
SplineSet
-10 759 m 0
 -19 759 -25 763 -25 769 c 0
 -25 773 -23 777 -18 781 c 2
 68 848 l 2
 80 857 95 870 106 870 c 0
 117 870 132 857 144 848 c 2
 230 782 l 2
 235 778 236 774 236 770 c 0
 236 764 231 759 222 759 c 0
 203 759 176 773 116 803 c 0
 108 807 104 807 96 803 c 0
 26 768 8 759 -10 759 c 0
39 -3 m 0
 27 -3 19 0 19 8 c 0
 19 16 25 19 42 24 c 0
 62 30 84 38 85 65 c 2
 85 566 l 2
 85 602 75 632 41 638 c 0
 35 639 32 644 32 652 c 0
 32 658 34 662 40 664 c 0
 68 673 118 689 151 703 c 0
 153 704 155 705 157 705 c 0
 161 705 164 702 164 698 c 0
 164 686 155 669 155 562 c 2
 155 388 l 2
 155 367 157 360 162 351 c 1
 193 374 251 414 314 414 c 0
 379 414 428 356 428 278 c 2
 428 68 l 2
 428 41 449 30 469 24 c 0
 483 20 492 16 492 8 c 0
 492 0 486 -3 472 -3 c 0
 432 -3 429 2 394 2 c 0
 359 2 356 -3 316 -3 c 0
 302 -3 296 0 296 8 c 0
 296 17 304 19 319 24 c 0
 339 31 358 41 358 68 c 2
 358 272 l 2
 358 322 308 362 265 362 c 0
 240 362 201 355 182 340 c 0
 161 323 155 309 155 268 c 2
 155 65 l 2
 156 38 174 30 194 24 c 0
 208 20 216 16 216 8 c 0
 216 0 211 -3 196 -3 c 0
 156 -3 155 2 120 2 c 0
 85 2 79 -3 39 -3 c 0
EndSplineSet
EndChar

StartChar: hbar
Encoding: 295 295 137
Width: 519
GlyphClass: 2
Flags: W
TeX: 705 3
HStem: -3 27<23.291 75.3797 170.328 219.629 300.286 348.612 445.734 495.586> 347 52<232.455 325.254> 516 34<19.0087 89 159 307.479>
VStem: 89 70<32.0327 320.273 336.42 516 550 626.703> 362 70<31.9098 310.919>
LayerCount: 2
Fore
SplineSet
473 24 m 0
 487 20 496 16 496 8 c 0
 496 0 490 -3 476 -3 c 0
 436 -3 433 2 398 2 c 0
 363 2 360 -3 320 -3 c 0
 306 -3 300 0 300 8 c 0
 300 17 308 19 323 24 c 0
 343 31 362 41 362 68 c 2
 362 257 l 2
 362 307 312 347 269 347 c 0
 244 347 205 340 186 325 c 0
 165 308 159 294 159 253 c 2
 159 65 l 2
 159 38 178 30 198 24 c 0
 212 20 220 16 220 8 c 0
 220 0 215 -3 200 -3 c 0
 160 -3 159 2 124 2 c 0
 89 2 83 -3 43 -3 c 0
 31 -3 23 0 23 8 c 0
 23 16 29 19 46 24 c 0
 66 30 88 38 89 65 c 2
 89 516 l 1
 33 516 l 2
 24 516 19 527 19 533 c 0
 19 542 31 550 43 550 c 2
 89 550 l 1
 89 566 l 2
 89 602 79 632 45 638 c 0
 39 639 36 644 36 652 c 0
 36 658 38 662 44 664 c 0
 72 673 122 689 155 703 c 0
 157 704 159 705 161 705 c 0
 165 705 168 702 168 698 c 0
 168 686 159 669 159 562 c 2
 159 550 l 1
 297 550 l 2
 303 550 311 545 311 540 c 0
 311 539 310 538 310 537 c 0
 303 524 294 516 279 516 c 2
 159 516 l 1
 159 373 l 2
 159 352 161 345 166 336 c 1
 197 359 255 399 318 399 c 0
 383 399 432 341 432 263 c 2
 432 68 l 2
 432 41 453 30 473 24 c 0
EndSplineSet
EndChar

StartChar: itilde
Encoding: 297 297 138
Width: 245
GlyphClass: 2
Flags: W
TeX: 605 3
ItalicCorrection: 52
HStem: -3 27<24.3057 79.6694 171.375 225.674> 458 21G<4 11> 492 66<80.3633 216.992> 500 67<52.2093 187.188>
VStem: 90 70<31.0813 341.886>
LayerCount: 2
Fore
SplineSet
9 458 m 0xd8
 -1 458 -7 463 -7 473 c 0
 -7 483 62 567 87 567 c 0xd8
 109 567 119 564 138 562 c 0
 160 560 176 558 194 558 c 0
 209 558 223 567 233 577 c 0
 247 591 257 605 261 605 c 0
 271 605 280 598 280 588 c 0
 280 584 272 576 258 562 c 0
 242 547 224 522 211 506 c 0
 203 496 186 492 182 492 c 0xe8
 166 492 107 500 71 500 c 0
 57 500 43 488 32 478 c 0
 23 470 13 458 9 458 c 0xd8
44 -3 m 0
 32 -3 24 0 24 8 c 0
 24 18 36 21 47 24 c 0
 75 31 90 38 90 62 c 2
 90 279 l 2
 90 315 79 347 45 352 c 0
 38 353 35 357 35 365 c 0
 35 372 38 376 44 377 c 0
 97 389 132 413 149 427 c 0
 154 431 159 434 163 434 c 0
 167 434 169 432 169 429 c 0
 169 413 160 339 160 294 c 2
 160 62 l 2
 160 39 176 31 203 24 c 0
 214 21 226 18 226 8 c 0
 226 0 219 -3 206 -3 c 0
 168 -3 160 2 125 2 c 0
 90 2 83 -3 44 -3 c 0
EndSplineSet
EndChar

StartChar: imacron
Encoding: 299 299 139
Width: 245
GlyphClass: 2
Flags: W
TeX: 555 3
ItalicCorrection: 43
HStem: -3 27<24.3057 79.6694 171.375 225.674> 500 55<7.66051 240.414>
VStem: 90 70<31.0813 341.886>
LayerCount: 2
Fore
SplineSet
18 500 m 2
 11 500 4 506 4 512 c 0
 4 521 9 555 28 555 c 2
 231 555 l 2
 237 555 244 549 244 543 c 0
 244 521 234 500 213 500 c 2
 18 500 l 2
44 -3 m 0
 32 -3 24 0 24 8 c 0
 24 18 36 21 47 24 c 0
 75 31 90 38 90 62 c 2
 90 279 l 2
 90 315 79 347 45 352 c 0
 38 353 35 357 35 365 c 0
 35 372 38 376 44 377 c 0
 97 389 132 413 149 427 c 0
 154 431 159 434 163 434 c 0
 167 434 169 432 169 429 c 0
 169 413 160 339 160 294 c 2
 160 62 l 2
 160 39 176 31 203 24 c 0
 214 21 226 18 226 8 c 0
 226 0 219 -3 206 -3 c 0
 168 -3 160 2 125 2 c 0
 90 2 83 -3 44 -3 c 0
EndSplineSet
EndChar

StartChar: ibreve
Encoding: 301 301 140
Width: 245
GlyphClass: 2
Flags: W
TeX: 608 3
HStem: -3 27<24.3057 79.6694 171.375 225.674> 478 60<61.3999 186.6>
VStem: 17 30<560.36 607.992> 90 70<31.0813 341.886> 201 30<560.36 607.992>
LayerCount: 2
Fore
SplineSet
124 478 m 0
 54 478 17 534 17 584 c 0
 17 597 22 608 32 608 c 0
 42 608 45 597 47 587 c 0
 52 562 74 538 124 538 c 0
 174 538 196 562 201 587 c 0
 203 597 206 608 216 608 c 0
 226 608 231 597 231 584 c 0
 231 534 194 478 124 478 c 0
44 -3 m 0
 32 -3 24 0 24 8 c 0
 24 18 36 21 47 24 c 0
 75 31 90 38 90 62 c 2
 90 279 l 2
 90 315 79 347 45 352 c 0
 38 353 35 357 35 365 c 0
 35 372 38 376 44 377 c 0
 97 389 132 413 149 427 c 0
 154 431 159 434 163 434 c 0
 167 434 169 432 169 429 c 0
 169 413 160 339 160 294 c 2
 160 62 l 2
 160 39 176 31 203 24 c 0
 214 21 226 18 226 8 c 0
 226 0 219 -3 206 -3 c 0
 168 -3 160 2 125 2 c 0
 90 2 83 -3 44 -3 c 0
EndSplineSet
EndChar

StartChar: iogonek
Encoding: 303 303 141
Width: 245
GlyphClass: 2
Flags: W
TeX: 617 287
ItalicCorrection: 3
HStem: -287 66<109.324 178.883> -3 27<24.3057 79.6694 172.245 225.674> 516 101<83.1171 165.823>
VStem: 20 74<-206.017 -106.532> 74 101<525.117 607.823> 90 70<31.0813 341.886>
LayerCount: 2
Fore
SplineSet
124 516 m 0xe8
 96 516 74 538 74 566 c 0
 74 595 96 617 124 617 c 0
 153 617 175 595 175 566 c 0
 175 538 153 516 124 516 c 0xe8
176 -2 m 1
 136 -40 94 -84 94 -152 c 0
 94 -196 120 -221 154 -221 c 0
 189 -221 208 -200 213 -200 c 0
 217 -200 221 -201 221 -207 c 0
 221 -226 177 -287 121 -287 c 0
 63 -287 20 -253 20 -179 c 0xf0
 20 -99 102 -29 144 1 c 1
 138 2 132 2 125 2 c 0
 90 2 83 -3 44 -3 c 0
 32 -3 24 0 24 8 c 0
 24 18 36 21 47 24 c 0
 75 31 90 38 90 62 c 2
 90 279 l 2
 90 315 79 347 45 352 c 0
 38 353 35 357 35 365 c 0
 35 372 38 376 44 377 c 0
 97 389 132 413 149 427 c 0
 154 431 159 434 163 434 c 0
 167 434 169 432 169 429 c 0
 169 413 160 339 160 294 c 2
 160 62 l 2xe4
 160 39 176 31 203 24 c 0
 214 21 226 18 226 8 c 0
 226 0 219 -3 206 -3 c 0
 193 -3 184 -2 176 -2 c 1
EndSplineSet
EndChar

StartChar: dotlessi
Encoding: 305 305 142
Width: 245
GlyphClass: 2
Flags: W
TeX: 434 3
ItalicCorrection: 3
TopAccentHorizontal: 139
HStem: -3 27<24.3057 79.6694 171.375 225.674>
VStem: 90 70<31.0813 341.886>
LayerCount: 2
Fore
SplineSet
44 -3 m 0
 32 -3 24 0 24 8 c 0
 24 18 36 21 47 24 c 0
 75 31 90 38 90 62 c 2
 90 279 l 2
 90 315 79 347 45 352 c 0
 38 353 35 357 35 365 c 0
 35 372 38 376 44 377 c 0
 97 389 132 413 149 427 c 0
 154 431 159 434 163 434 c 0
 167 434 169 432 169 429 c 0
 169 413 160 339 160 294 c 2
 160 62 l 2
 160 39 176 31 203 24 c 0
 214 21 226 18 226 8 c 0
 226 0 219 -3 206 -3 c 0
 168 -3 160 2 125 2 c 0
 90 2 83 -3 44 -3 c 0
EndSplineSet
EndChar

StartChar: i_j
Encoding: 307 307 143
Width: 463
GlyphClass: 2
Flags: W
TeX: 617 287
HStem: -287 27<217.615 255.488> -3 27<24.3057 79.6694 171.375 225.674> 516 101<83.1171 165.823 312.117 394.823>
VStem: 74 101<525.117 607.823> 90 70<31.0813 341.886> 303 101<525.117 607.823> 326 70<-125.075 340.129>
LayerCount: 2
Fore
SplineSet
124 516 m 0xf0
 96 516 74 538 74 566 c 0
 74 595 96 617 124 617 c 0
 153 617 175 595 175 566 c 0
 175 538 153 516 124 516 c 0xf0
353 516 m 0
 325 516 303 538 303 566 c 0
 303 595 325 617 353 617 c 0
 382 617 404 595 404 566 c 0xe4
 404 538 382 516 353 516 c 0
44 -3 m 0
 32 -3 24 0 24 8 c 0
 24 18 36 21 47 24 c 0
 75 31 90 38 90 62 c 2
 90 279 l 2
 90 315 79 347 45 352 c 0
 38 353 35 357 35 365 c 0
 35 372 38 376 44 377 c 0
 97 389 132 413 149 427 c 0
 154 431 159 434 163 434 c 0
 167 434 169 432 169 429 c 0
 169 413 160 339 160 294 c 2
 160 62 l 2xe8
 160 39 176 31 203 24 c 0
 214 21 226 18 226 8 c 0
 226 0 219 -3 206 -3 c 0
 168 -3 160 2 125 2 c 0
 90 2 83 -3 44 -3 c 0
238 -287 m 0
 231 -287 217 -284 217 -277 c 0
 217 -269 226 -261 228 -260 c 0
 252 -254 275 -237 294 -197 c 0
 323 -136 326 0 326 69 c 2
 326 279 l 2
 326 315 314 345 280 352 c 0
 275 353 272 359 272 365 c 0
 272 370 275 376 279 377 c 0
 329 389 364 415 383 427 c 0
 390 431 394 434 396 434 c 0
 400 434 403 432 403 429 c 0
 399 388 396 320 396 275 c 2
 396 91 l 2xe2
 396 29 395 -72 366 -152 c 0
 341 -220 278 -287 238 -287 c 0
EndSplineSet
EndChar

StartChar: jcircumflex
Encoding: 309 309 144
Width: 226
GlyphClass: 2
Flags: W
TeX: 648 287
HStem: -287 27<-19.3848 18.4884> 455 21G<12.5 21 211 219.5>
VStem: 89 70<-125.075 340.129>
LayerCount: 2
Fore
SplineSet
116 648 m 0
 124 648 131 638 136 630 c 0
 156 599 224 481 224 468 c 0
 224 459 224 455 215 455 c 0
 207 455 194 468 186 477 c 0
 173 492 142 532 120 562 c 0
 117 566 116 566 113 562 c 0
 91 532 60 492 47 477 c 0
 39 468 25 455 17 455 c 0
 8 455 8 459 8 468 c 0
 8 481 76 599 96 630 c 0
 101 638 108 648 116 648 c 0
1 -287 m 0
 -6 -287 -20 -284 -20 -277 c 0
 -20 -269 -11 -261 -9 -260 c 0
 15 -254 38 -237 57 -197 c 0
 86 -136 89 0 89 69 c 2
 89 279 l 2
 89 315 77 345 43 352 c 0
 38 353 35 359 35 365 c 0
 35 370 38 376 42 377 c 0
 92 389 127 415 146 427 c 0
 153 431 157 434 159 434 c 0
 163 434 166 432 166 429 c 0
 162 388 159 320 159 275 c 2
 159 91 l 2
 159 29 158 -72 129 -152 c 0
 104 -220 41 -287 1 -287 c 0
EndSplineSet
EndChar

StartChar: kcommaaccent
Encoding: 311 311 145
Width: 469
GlyphClass: 2
Flags: W
TeX: 705 275
ItalicCorrection: 33
HStem: -141 84<171.8 243.667> -3 27<19.3057 71.766 164.421 212.685 254.143 293.768 423.515 478.593> 206 19<155 171.891> 378 22<273.093 309.401> 384 28<389.323 447.893>
VStem: 85 70<32.0327 205.999 225.002 627.924> 248 52<-222.636 -148.737>
LayerCount: 2
Fore
SplineSet
42 -3 m 0xee
 27 -3 19 0 19 8 c 0
 19 18 31 20 42 24 c 0
 62 30 85 38 85 65 c 2
 85 566 l 2
 85 613 73 631 40 639 c 0
 34 640 31 646 31 652 c 0
 31 658 34 663 39 664 c 0
 90 676 119 689 149 702 c 0
 153 704 155 705 158 705 c 0
 162 705 164 702 164 696 c 0
 164 682 155 647 155 562 c 2
 155 234 l 2
 155 228 157 225 160 225 c 0
 168 225 181 232 196 245 c 0
 250 292 289 333 302 348 c 0
 309 356 311 360 311 363 c 0
 311 370 297 375 285 378 c 0
 276 380 273 382 273 388 c 0
 273 395 281 400 295 400 c 2
 344 400 l 2xf6
 375 400 416 412 435 412 c 0
 444 412 449 408 449 402 c 0
 449 394 438 388 424 384 c 0
 399 377 376 364 358 353 c 0
 345 345 278 289 230 247 c 0
 226 243 224 240 224 237 c 0
 224 235 225 232 227 230 c 0
 278 166 353 91 374 72 c 0
 396 51 429 33 449 26 c 0
 463 21 479 18 479 8 c 0
 479 -1 471 -3 459 -3 c 0
 407 -3 340 0 272 0 c 0
 258 0 254 4 254 9 c 0
 254 17 262 22 271 25 c 0
 286 30 298 36 298 48 c 0
 298 52 295 57 291 62 c 2
 170 199 l 2
 166 204 164 206 160 206 c 0
 157 206 155 204 155 199 c 0
 154 180 154 158 154 135 c 0
 154 112 154 88 155 65 c 0
 155 38 170 30 190 24 c 0
 201 20 213 18 213 8 c 0
 213 -2 195 -3 190 -3 c 0
 151 -3 155 2 120 2 c 0
 85 2 81 -3 42 -3 c 0xee
192 -275 m 0
 184 -275 179 -271 179 -266 c 0
 179 -261 184 -256 193 -253 c 0
 229 -241 248 -210 248 -183 c 0
 248 -155 233 -148 205 -141 c 0
 181 -135 167 -124 167 -97 c 0
 167 -74 185 -57 212 -57 c 0
 260 -57 300 -98 300 -158 c 0
 300 -232 226 -275 192 -275 c 0
EndSplineSet
EndChar

StartChar: kgreenlandic
Encoding: 312 312 146
Width: 474
GlyphClass: 2
Flags: W
TeX: 434 5
HStem: -3 27<24.9975 76.766 169.421 217.003 259.126 299.249 426.448 481.704> 378 22<278.492 311.513> 384 28<394.276 450.679>
VStem: 90 70<32.0327 205.138 223.955 339.165>
LayerCount: 2
Fore
SplineSet
47 -3 m 0xb0
 42 -3 24 -4 24 6 c 0
 24 16 36 20 47 24 c 0
 67 30 90 38 90 65 c 2
 90 279 l 2
 90 315 77 345 43 352 c 0
 38 353 35 359 35 365 c 0
 35 370 38 376 42 377 c 0
 93 389 131 416 150 428 c 0
 156 432 160 434 162 434 c 0
 166 434 169 432 169 429 c 0
 165 388 160 339 160 294 c 2
 160 231 l 2
 160 224 162 223 166 224 c 0
 175 226 186 235 201 248 c 0
 255 295 302 342 313 358 c 0
 314 359 314 360 314 361 c 0
 314 368 304 375 290 378 c 0
 287 379 278 383 278 386 c 0
 278 398 296 400 300 400 c 2
 349 400 l 2xd0
 385 400 418 409 445 412 c 0
 448 412 453 409 453 405 c 0
 453 397 442 386 433 384 c 0
 408 379 381 364 363 353 c 0
 350 345 283 289 235 247 c 0
 231 244 229 240 229 236 c 0
 229 232 232 228 237 224 c 0
 289 161 358 89 379 70 c 0
 401 49 441 28 461 22 c 0
 472 18 484 14 484 4 c 0
 484 -4 471 -5 464 -5 c 0
 423 -5 387 0 340 0 c 2
 282 0 l 2
 277 0 259 -1 259 9 c 0
 259 19 270 24 281 28 c 0
 292 32 303 36 303 46 c 0
 303 50 300 55 296 60 c 2
 170 205 l 2
 167 208 160 207 160 195 c 2
 160 65 l 2
 160 38 175 30 195 24 c 0
 206 20 218 16 218 6 c 0
 218 -4 200 -3 195 -3 c 0
 156 -3 160 2 125 2 c 0
 90 2 86 -3 47 -3 c 0xb0
EndSplineSet
EndChar

StartChar: lacute
Encoding: 314 314 147
Width: 240
GlyphClass: 2
Flags: W
TeX: 860 3
ItalicCorrection: 33
HStem: -3 27<20.0556 73.9702 166.03 219.944>
VStem: 85 70<31.1488 627.687>
LayerCount: 2
Fore
SplineSet
34 739 m 0
 27 739 20 742 20 747 c 0
 20 750 20 753 24 757 c 0
 43 776 145 840 179 854 c 0
 186 857 193 860 200 860 c 0
 224 860 240 822 240 810 c 0
 240 807 239 803 236 801 c 0
 213 789 105 755 61 744 c 0
 53 742 43 739 34 739 c 0
39 -3 m 0
 32 -3 19 -2 19 6 c 0
 19 16 31 20 42 24 c 0
 62 30 85 35 85 62 c 2
 85 566 l 2
 85 605 72 632 39 639 c 0
 34 640 31 646 31 652 c 0
 31 658 34 663 38 664 c 0
 89 676 119 691 151 703 c 0
 153 704 155 705 157 705 c 0
 160 705 162 701 162 698 c 0
 162 686 155 652 155 562 c 2
 155 62 l 2
 155 35 178 30 198 24 c 0
 209 20 221 16 221 6 c 0
 221 -2 208 -3 201 -3 c 0
 162 -3 155 2 120 2 c 0
 85 2 78 -3 39 -3 c 0
EndSplineSet
EndChar

StartChar: lcaron
Encoding: 318 318 148
Width: 254
GlyphClass: 2
Flags: W
TeX: 705 3
ItalicCorrection: 111
HStem: -3 27<20.0556 73.9702 166.03 219.944>
VStem: 85 70<31.1488 627.687> 216 61<564.592 694.402>
LayerCount: 2
Fore
SplineSet
39 -3 m 0
 32 -3 19 -2 19 6 c 0
 19 16 31 20 42 24 c 0
 62 30 85 35 85 62 c 2
 85 566 l 2
 85 605 72 632 39 639 c 0
 34 640 31 646 31 652 c 0
 31 658 34 663 38 664 c 0
 89 676 119 691 151 703 c 0
 153 704 155 705 157 705 c 0
 160 705 162 701 162 698 c 0
 162 686 155 652 155 562 c 2
 155 62 l 2
 155 35 178 30 198 24 c 0
 209 20 221 16 221 6 c 0
 221 -2 208 -3 201 -3 c 0
 162 -3 155 2 120 2 c 0
 85 2 78 -3 39 -3 c 0
223 512 m 0
 219 512 216 522 216 535 c 0
 216 540 219 569 219 584 c 0
 219 621 214 641 214 657 c 0
 214 678 243 705 264 705 c 0
 276 705 277 691 277 675 c 0
 277 638 262 574 244 537 c 0
 236 520 229 512 223 512 c 0
EndSplineSet
EndChar

StartChar: ldot
Encoding: 320 320 149
Width: 334
GlyphClass: 2
Flags: W
TeX: 705 3
HStem: -3 27<20.0556 73.9702 166.03 219.944> 301 110<240.847 327.153>
VStem: 85 70<31.1488 627.687> 229 110<312.847 399.153>
LayerCount: 2
Fore
SplineSet
39 -3 m 0
 32 -3 19 -2 19 6 c 0
 19 16 31 20 42 24 c 0
 62 30 85 35 85 62 c 2
 85 566 l 2
 85 605 72 632 39 639 c 0
 34 640 31 646 31 652 c 0
 31 658 34 663 38 664 c 0
 89 676 119 691 151 703 c 0
 153 704 155 705 157 705 c 0
 160 705 162 701 162 698 c 0
 162 686 155 652 155 562 c 2
 155 62 l 2
 155 35 178 30 198 24 c 0
 209 20 221 16 221 6 c 0
 221 -2 208 -3 201 -3 c 0
 162 -3 155 2 120 2 c 0
 85 2 78 -3 39 -3 c 0
284 301 m 0
 254 301 229 326 229 356 c 0
 229 386 254 411 284 411 c 0
 314 411 339 386 339 356 c 0
 339 326 314 301 284 301 c 0
EndSplineSet
EndChar

StartChar: lslash
Encoding: 322 322 150
Width: 280
GlyphClass: 2
Flags: W
TeX: 705 3
ItalicCorrection: 14
HStem: -3 27<39.0556 92.9702 185.03 238.944>
VStem: 104 70<31.1488 322 392 627.687>
LayerCount: 2
Fore
SplineSet
232 385 m 2
 174 354 l 1
 174 62 l 2
 174 35 197 30 217 24 c 0
 228 20 240 16 240 6 c 0
 240 -2 227 -3 220 -3 c 0
 181 -3 174 2 139 2 c 0
 104 2 97 -3 58 -3 c 0
 51 -3 38 -2 38 6 c 0
 38 16 50 20 61 24 c 0
 81 30 104 35 104 62 c 2
 104 322 l 1
 50 293 l 2
 42 289 30 301 30 309 c 0
 30 318 38 324 43 327 c 2
 104 360 l 1
 104 566 l 2
 104 605 91 632 58 639 c 0
 53 640 50 646 50 652 c 0
 50 658 53 663 57 664 c 0
 108 676 138 691 170 703 c 0
 172 704 174 705 176 705 c 0
 179 705 181 701 181 698 c 0
 181 686 174 652 174 562 c 2
 174 392 l 1
 232 423 l 2
 234 424 237 425 239 425 c 0
 245 425 250 420 250 405 c 0
 250 398 241 390 232 385 c 2
EndSplineSet
EndChar

StartChar: nacute
Encoding: 324 324 151
Width: 528
GlyphClass: 2
Flags: W
TeX: 649 3
ItalicCorrection: 13
HStem: -3 27<24.2101 78.9702 171.03 225.668 304.056 357.97 450.03 504.003> 366 48<228.999 338.812> 457 21G<244.5 250.5>
VStem: 90 70<30.7063 325.762> 369 70<31.1488 335.799>
LayerCount: 2
Fore
SplineSet
247 457 m 0
 242 457 239 459 239 466 c 0
 239 470 240 476 243 484 c 0
 257 521 304 604 320 631 c 0
 326 641 337 649 347 649 c 0
 372 649 396 642 396 628 c 0
 396 620 392 616 386 607 c 0
 362 572 304 504 278 478 c 0
 264 464 254 457 247 457 c 0
44 -3 m 0
 32 -3 24 0 24 8 c 0
 24 18 32 20 47 24 c 0
 67 29 90 35 90 62 c 2
 90 277 l 2
 90 313 87 340 53 349 c 0
 47 351 43 354 43 362 c 0
 43 369 46 373 52 374 c 0
 98 386 124 404 152 425 c 0
 156 428 159 430 163 430 c 0
 166 430 168 427 168 423 c 0
 168 414 163 378 163 359 c 0
 163 353 164 348 165 347 c 0
 212 392 263 414 326 414 c 0
 391 414 439 353 439 275 c 2
 439 62 l 2
 439 35 462 30 482 24 c 0
 493 20 505 16 505 6 c 0
 505 -2 493 -3 485 -3 c 0
 445 -3 440 2 405 2 c 0
 370 2 363 -3 323 -3 c 0
 316 -3 303 -2 303 6 c 0
 303 16 315 20 326 24 c 0
 346 30 369 35 369 62 c 2
 369 272 l 2
 369 330 333 365 279 366 c 0
 231 366 196 349 168 326 c 0
 163 321 160 311 160 303 c 2
 160 62 l 2
 160 35 183 29 203 24 c 0
 219 20 226 16 226 8 c 0
 226 0 219 -3 206 -3 c 0
 166 -3 160 2 125 2 c 0
 90 2 84 -3 44 -3 c 0
EndSplineSet
EndChar

StartChar: ncommaaccent
Encoding: 326 326 152
Width: 528
GlyphClass: 2
Flags: W
TeX: 430 275
ItalicCorrection: 13
HStem: -141 84<203.8 275.667> -3 27<24.2101 78.9702 171.03 225.668 304.056 357.97 450.03 504.003> 366 48<228.999 338.812>
VStem: 90 70<30.7063 325.762> 280 52<-222.636 -148.737> 369 70<31.1488 335.799>
LayerCount: 2
Fore
SplineSet
44 -3 m 0
 32 -3 24 0 24 8 c 0
 24 18 32 20 47 24 c 0
 67 29 90 35 90 62 c 2
 90 277 l 2
 90 313 87 340 53 349 c 0
 47 351 43 354 43 362 c 0
 43 369 46 373 52 374 c 0
 98 386 124 404 152 425 c 0
 156 428 159 430 163 430 c 0
 166 430 168 427 168 423 c 0
 168 414 163 378 163 359 c 0
 163 353 164 348 165 347 c 0
 212 392 263 414 326 414 c 0
 391 414 439 353 439 275 c 2
 439 62 l 2
 439 35 462 30 482 24 c 0
 493 20 505 16 505 6 c 0
 505 -2 493 -3 485 -3 c 0
 445 -3 440 2 405 2 c 0
 370 2 363 -3 323 -3 c 0
 316 -3 303 -2 303 6 c 0
 303 16 315 20 326 24 c 0
 346 30 369 35 369 62 c 2
 369 272 l 2
 369 330 333 365 279 366 c 0
 231 366 196 349 168 326 c 0
 163 321 160 311 160 303 c 2
 160 62 l 2
 160 35 183 29 203 24 c 0
 219 20 226 16 226 8 c 0
 226 0 219 -3 206 -3 c 0
 166 -3 160 2 125 2 c 0
 90 2 84 -3 44 -3 c 0
224 -275 m 0
 216 -275 211 -271 211 -266 c 0
 211 -261 216 -256 225 -253 c 0
 261 -241 280 -210 280 -183 c 0
 280 -155 265 -148 237 -141 c 0
 213 -135 199 -124 199 -97 c 0
 199 -74 217 -57 244 -57 c 0
 292 -57 332 -98 332 -158 c 0
 332 -232 258 -275 224 -275 c 0
EndSplineSet
EndChar

StartChar: ncaron
Encoding: 328 328 153
Width: 528
GlyphClass: 2
Flags: W
TeX: 648 3
ItalicCorrection: 13
HStem: -3 27<24.2101 78.9702 171.03 225.668 304.056 357.97 450.03 504.003> 366 48<228.999 338.812> 455 21G<267 275>
VStem: 90 70<30.7063 325.762> 369 70<31.1488 335.799>
LayerCount: 2
Fore
SplineSet
271 455 m 0
 263 455 256 465 251 473 c 0
 231 504 163 622 163 635 c 0
 163 644 163 648 172 648 c 0
 180 648 194 635 202 626 c 0
 215 611 246 571 268 541 c 0
 271 537 272 537 275 541 c 0
 297 571 328 611 341 626 c 0
 349 635 362 648 370 648 c 0
 379 648 379 644 379 635 c 0
 379 622 311 504 291 473 c 0
 286 465 279 455 271 455 c 0
44 -3 m 0
 32 -3 24 0 24 8 c 0
 24 18 32 20 47 24 c 0
 67 29 90 35 90 62 c 2
 90 277 l 2
 90 313 87 340 53 349 c 0
 47 351 43 354 43 362 c 0
 43 369 46 373 52 374 c 0
 98 386 124 404 152 425 c 0
 156 428 159 430 163 430 c 0
 166 430 168 427 168 423 c 0
 168 414 163 378 163 359 c 0
 163 353 164 348 165 347 c 0
 212 392 263 414 326 414 c 0
 391 414 439 353 439 275 c 2
 439 62 l 2
 439 35 462 30 482 24 c 0
 493 20 505 16 505 6 c 0
 505 -2 493 -3 485 -3 c 0
 445 -3 440 2 405 2 c 0
 370 2 363 -3 323 -3 c 0
 316 -3 303 -2 303 6 c 0
 303 16 315 20 326 24 c 0
 346 30 369 35 369 62 c 2
 369 272 l 2
 369 330 333 365 279 366 c 0
 231 366 196 349 168 326 c 0
 163 321 160 311 160 303 c 2
 160 62 l 2
 160 35 183 29 203 24 c 0
 219 20 226 16 226 8 c 0
 226 0 219 -3 206 -3 c 0
 166 -3 160 2 125 2 c 0
 90 2 84 -3 44 -3 c 0
EndSplineSet
EndChar

StartChar: napostrophe
Encoding: 329 329 154
Width: 609
GlyphClass: 2
Flags: W
TeX: 690 3
HStem: -3 27<105.21 159.97 252.03 306.668 385.056 438.97 531.03 585.003> 366 48<309.999 419.812> 426 23<-20.9671 26.1406> 602 88<11.4428 81.3876>
VStem: 89 52<512.908 622.187> 171 70<30.7063 325.762> 450 70<31.1488 335.799>
LayerCount: 2
Fore
SplineSet
-3 426 m 0
 -15 426 -21 431 -21 437 c 0
 -21 442 -16 447 -7 449 c 0
 36 458 89 488 89 558 c 0
 89 574 72 600 50 602 c 0
 21 605 3 622 3 644 c 0
 3 671 29 690 58 690 c 0
 106 690 141 649 141 593 c 0
 141 492 48 426 -3 426 c 0
125 -3 m 0
 113 -3 105 0 105 8 c 0
 105 18 113 20 128 24 c 0
 148 29 171 35 171 62 c 2
 171 277 l 2
 171 313 168 340 134 349 c 0
 128 351 124 354 124 362 c 0
 124 369 127 373 133 374 c 0
 179 386 205 404 233 425 c 0
 237 428 240 430 244 430 c 0
 247 430 249 427 249 423 c 0
 249 414 244 378 244 359 c 0
 244 353 245 348 246 347 c 0
 293 392 344 414 407 414 c 0
 472 414 520 353 520 275 c 2
 520 62 l 2
 520 35 543 30 563 24 c 0
 574 20 586 16 586 6 c 0
 586 -2 574 -3 566 -3 c 0
 526 -3 521 2 486 2 c 0
 451 2 444 -3 404 -3 c 0
 397 -3 384 -2 384 6 c 0
 384 16 396 20 407 24 c 0
 427 30 450 35 450 62 c 2
 450 272 l 2
 450 330 414 365 360 366 c 0
 312 366 277 349 249 326 c 0
 244 321 241 311 241 303 c 2
 241 62 l 2
 241 35 264 29 284 24 c 0
 300 20 307 16 307 8 c 0
 307 0 300 -3 287 -3 c 0
 247 -3 241 2 206 2 c 0
 171 2 165 -3 125 -3 c 0
EndSplineSet
EndChar

StartChar: eng
Encoding: 331 331 155
Width: 513
GlyphClass: 2
Flags: W
TeX: 430 285
HStem: -3 27<24.9975 76.5168 176.029 225.003> 349 25<42.0133 72.149> 365 49<231.919 339.984>
VStem: 42 119<348.549 397.23> 91 70<32.543 331.355> 373 69<-142.093 329.625>
LayerCount: 2
Fore
SplineSet
296 -285 m 0xb4
 286 -286 255 -274 255 -258 c 0
 255 -234 264 -220 276 -220 c 0
 283 -220 294 -223 305 -227 c 0
 318 -231 332 -235 341 -235 c 0
 347 -235 352 -231 355 -215 c 0
 365 -171 374 -99 373 -10 c 2
 370 272 l 2
 369 330 332 365 279 365 c 0
 245 365 211 353 186 334 c 0
 171 323 161 309 161 268 c 2
 161 69 l 2
 161 41 183 30 203 24 c 0
 214 20 226 16 226 6 c 0
 226 -4 208 -3 203 -3 c 0
 164 -3 160 2 125 2 c 0
 90 2 86 -3 47 -3 c 0
 42 -3 24 -4 24 6 c 0
 24 16 36 20 47 24 c 0
 67 30 89 38 91 66 c 2
 91 277 l 2xac
 89 313 84 342 50 349 c 0
 45 350 42 356 42 362 c 0xd4
 42 367 44 373 49 374 c 0
 101 386 136 412 159 429 c 0
 160 430 160 430 161 430 c 0xcc
 164 430 167 424 168 421 c 0
 168 411 161 373 161 356 c 0
 161 352 161 349 162 348 c 1
 181 367 255 414 318 414 c 0
 383 414 442 373 442 255 c 2
 442 32 l 2
 442 -102 407 -272 296 -285 c 0xb4
EndSplineSet
EndChar

StartChar: omacron
Encoding: 333 333 156
Width: 495
GlyphClass: 2
Flags: W
TeX: 555 14
HStem: -14 30<203.025 317.686> 383 31<177.889 291.342> 500 55<137.661 370.414>
VStem: 35 82<109.934 279.37> 378 82<111.572 289.08>
LayerCount: 2
Fore
SplineSet
148 500 m 2
 141 500 134 506 134 512 c 0
 134 521 139 555 158 555 c 2
 361 555 l 2
 367 555 374 549 374 543 c 0
 374 521 364 500 343 500 c 2
 148 500 l 2
234 -14 m 0
 122 -14 35 70 35 187 c 0
 35 298 131 414 254 414 c 0
 370 414 460 321 460 213 c 0
 460 96 384 -14 234 -14 c 0
255 16 m 0
 300 16 338 32 358 71 c 0
 374 102 378 150 378 189 c 0
 378 284 322 383 237 383 c 0
 201 383 173 374 149 343 c 0
 122 309 117 258 117 210 c 0
 117 111 175 16 255 16 c 0
EndSplineSet
EndChar

StartChar: obreve
Encoding: 335 335 157
Width: 495
GlyphClass: 2
Flags: W
TeX: 608 14
HStem: -14 30<203.025 317.686> 383 31<177.889 291.342> 478 60<191.4 316.6>
VStem: 35 82<109.934 279.37> 147 30<560.36 607.992> 331 30<560.36 607.992> 378 82<111.572 289.08>
LayerCount: 2
Fore
SplineSet
254 478 m 0
 184 478 147 534 147 584 c 0
 147 597 152 608 162 608 c 0
 172 608 175 597 177 587 c 0
 182 562 204 538 254 538 c 0
 304 538 326 562 331 587 c 0
 333 597 336 608 346 608 c 0
 356 608 361 597 361 584 c 0
 361 534 324 478 254 478 c 0
234 -14 m 0
 122 -14 35 70 35 187 c 0
 35 298 131 414 254 414 c 0
 370 414 460 321 460 213 c 0
 460 96 384 -14 234 -14 c 0
255 16 m 0
 300 16 338 32 358 71 c 0
 374 102 378 150 378 189 c 0
 378 284 322 383 237 383 c 0
 201 383 173 374 149 343 c 0
 122 309 117 258 117 210 c 0
 117 111 175 16 255 16 c 0
EndSplineSet
EndChar

StartChar: ohungarumlaut
Encoding: 337 337 158
Width: 495
GlyphClass: 2
Flags: W
TeX: 649 14
ItalicCorrection: 39
HStem: -14 30<203.025 317.686> 383 31<177.889 291.342> 456 21G<161.5 170 285.5 294>
VStem: 35 82<109.934 279.37> 378 82<111.572 289.08>
LayerCount: 2
Fore
SplineSet
166 456 m 0
 157 456 157 460 157 469 c 0
 157 473 162 485 169 500 c 0
 188 540 224 607 238 631 c 0
 244 641 255 649 265 649 c 0
 290 649 314 642 314 626 c 0
 314 623 310 616 304 607 c 0
 281 572 220 505 196 478 c 0
 188 469 174 456 166 456 c 0
290 456 m 0
 281 456 281 460 281 469 c 0
 281 472 284 481 290 493 c 0
 310 532 347 606 362 631 c 0
 368 641 379 649 389 649 c 0
 414 649 438 642 438 626 c 0
 438 623 434 616 427 606 c 0
 402 571 344 504 320 478 c 0
 312 469 298 456 290 456 c 0
234 -14 m 0
 122 -14 35 70 35 187 c 0
 35 298 131 414 254 414 c 0
 370 414 460 321 460 213 c 0
 460 96 384 -14 234 -14 c 0
255 16 m 0
 300 16 338 32 358 71 c 0
 374 102 378 150 378 189 c 0
 378 284 322 383 237 383 c 0
 201 383 173 374 149 343 c 0
 122 309 117 258 117 210 c 0
 117 111 175 16 255 16 c 0
EndSplineSet
EndChar

StartChar: oe
Encoding: 339 339 159
Width: 758
GlyphClass: 2
Flags: W
TeX: 414 15
HStem: -15 61<542.667 667.389> -14 30<203.025 318.212> 257 31<477.637 652.97> 383 31<177.889 291.664 524.81 631.059>
VStem: 35 82<109.934 279.37> 378 84<133.434 255.13> 662 66<277.5 358.559>
LayerCount: 2
Fore
SplineSet
725 99 m 0xbe
 730 99 733 95 733 89 c 0
 733 76 727 62 715 47 c 0
 685 8 634 -15 581 -15 c 0xbe
 510 -15 454 21 424 83 c 1
 387 26 324 -14 234 -14 c 0x7e
 122 -14 35 70 35 187 c 0
 35 298 131 414 254 414 c 0
 329 414 394 375 430 318 c 1
 464 375 524 414 591 414 c 0
 671 414 728 362 728 288 c 0
 728 267 719 257 698 257 c 2
 487 257 l 2
 468 257 462 249 462 220 c 0
 462 124 531 46 616 46 c 0
 656 46 689 62 714 91 c 0
 719 98 721 99 725 99 c 0xbe
576 385 m 0
 530 385 477 338 477 298 c 0
 477 291 481 288 489 288 c 2
 580 288 l 2
 612 288 632 289 654 293 c 0
 660 294 662 301 662 315 c 0
 662 353 623 385 576 385 c 0
358 71 m 0
 374 102 378 150 378 189 c 0
 378 284 322 383 237 383 c 0
 201 383 173 374 149 343 c 0
 122 309 117 258 117 210 c 0
 117 111 175 16 255 16 c 0x7e
 300 16 338 32 358 71 c 0
EndSplineSet
EndChar

StartChar: rcaron
Encoding: 345 345 160
Width: 334
GlyphClass: 2
Flags: W
TeX: 648 3
ItalicCorrection: 30
HStem: -3 27<29.2179 79.1431 179.701 236.682> 348 66<217.503 308.124> 455 21G<187 195>
VStem: 90 71<35.8108 329.917>
LayerCount: 2
Fore
SplineSet
191 455 m 0
 183 455 176 465 171 473 c 0
 151 504 83 622 83 635 c 0
 83 644 83 648 92 648 c 0
 100 648 114 635 122 626 c 0
 135 611 166 571 188 541 c 0
 191 537 192 537 195 541 c 0
 217 571 248 611 261 626 c 0
 269 635 282 648 290 648 c 0
 299 648 299 644 299 635 c 0
 299 622 231 504 211 473 c 0
 206 465 199 455 191 455 c 0
49 -3 m 0
 35 -3 29 0 29 8 c 0
 29 18 37 20 52 24 c 0
 77 30 90 43 90 62 c 2
 90 277 l 2
 90 313 82 342 49 349 c 0
 44 350 39 356 39 362 c 0
 39 368 44 373 48 374 c 0
 83 385 126 410 147 423 c 0
 155 428 159 430 162 430 c 0
 165 430 167 427 167 423 c 0
 167 416 166 380 164 348 c 0
 164 347 165 346 166 346 c 0
 198 385 242 414 281 414 c 0
 309 414 329 400 329 382 c 0
 329 362 310 330 290 330 c 0
 282 330 272 334 262 339 c 0
 251 343 240 348 230 348 c 0
 198 348 161 331 161 264 c 2
 161 62 l 2
 161 44 181 34 214 24 c 0
 228 20 237 17 237 8 c 0
 237 0 231 -3 217 -3 c 0
 177 -3 165 2 130 2 c 0
 95 2 89 -3 49 -3 c 0
EndSplineSet
EndChar

StartChar: scaron
Encoding: 353 353 161
Width: 323
GlyphClass: 2
Flags: W
TeX: 648 14
HStem: -14 27<106.123 194.213> 386 28<129.148 214.037> 455 21G<172 180>
VStem: 47 60<278.853 366.281> 223 68<40.6028 130.779>
LayerCount: 2
Fore
SplineSet
176 455 m 0
 168 455 161 465 156 473 c 0
 136 504 68 622 68 635 c 0
 68 644 68 648 77 648 c 0
 85 648 99 635 107 626 c 0
 120 611 151 571 173 541 c 0
 176 537 177 537 180 541 c 0
 202 571 233 611 246 626 c 0
 254 635 267 648 275 648 c 0
 284 648 284 644 284 635 c 0
 284 622 216 504 196 473 c 0
 191 465 184 455 176 455 c 0
144 -14 m 0
 103 -14 65 -1 40 22 c 1
 33 36 30 79 29 102 c 0
 29 108 35 111 42 111 c 0
 47 111 53 109 54 104 c 0
 71 38 114 13 153 13 c 0
 192 13 223 42 223 81 c 0
 223 117 202 138 142 175 c 0
 74 217 47 249 47 299 c 0
 47 363 92 414 182 414 c 0
 222 414 249 404 262 395 c 1
 272 380 281 344 281 316 c 0
 281 311 276 309 271 309 c 0
 263 309 254 313 252 318 c 0
 234 362 209 386 171 386 c 0
 138 386 107 365 107 327 c 0
 107 296 122 276 176 245 c 0
 253 201 291 170 291 108 c 0
 291 36 231 -14 144 -14 c 0
EndSplineSet
EndChar

StartChar: tcedilla
Encoding: 355 355 162
Width: 314
GlyphClass: 2
Flags: W
TeX: 475 274
ItalicCorrection: 29
HStem: -274 49<102.602 180.545> 352 48<156.312 303.775>
VStem: 85 70<59.6742 351.595> 200 50<-205.712 -133.987>
LayerCount: 2
Fore
SplineSet
205 -13 m 1
 183 -42 l 2
 180 -46 178 -49 178 -52 c 0
 178 -56 182 -60 189 -63 c 0
 221 -77 250 -106 250 -139 c 0
 250 -219 161 -274 125 -274 c 0
 104 -274 95 -264 95 -233 c 0
 95 -221 100 -214 108 -214 c 0
 118 -214 130 -225 161 -225 c 0
 187 -225 200 -206 200 -180 c 0
 200 -141 173 -123 141 -123 c 0
 128 -123 122 -129 115 -129 c 0
 108 -129 97 -123 97 -114 c 0
 97 -111 99 -107 102 -103 c 2
 173 -13 l 1
 118 -7 85 33 85 105 c 2
 85 337 l 2
 85 348 79 352 53 352 c 2
 47 352 l 2
 40 352 35 362 35 372 c 0
 35 375 40 382 42 383 c 0
 81 410 113 441 131 463 c 0
 137 470 141 475 148 475 c 0
 154 475 162 473 161 464 c 2
 156 419 l 2
 154 404 163 400 180 400 c 2
 294 400 l 2
 299 400 304 390 304 378 c 0
 304 366 299 352 294 352 c 2
 195 352 l 2
 161 352 155 351 155 324 c 2
 155 127 l 2
 155 73 178 41 221 41 c 0
 260 41 278 47 295 59 c 0
 296 60 298 61 299 61 c 0
 304 61 306 54 306 47 c 0
 306 37 260 -5 205 -13 c 1
EndSplineSet
EndChar

StartChar: tcaron
Encoding: 357 357 163
Width: 314
GlyphClass: 2
Flags: W
TeX: 646 14
ItalicCorrection: 63
HStem: -14 55<173.591 262.431> 352 48<156.312 303.775> 453 21G<229 234>
VStem: 85 70<58.7654 351.595> 224 61<505.592 635.402>
LayerCount: 2
Fore
SplineSet
231 453 m 0
 227 453 224 463 224 476 c 0
 224 481 227 510 227 525 c 0
 227 562 222 582 222 598 c 0
 222 619 251 646 272 646 c 0
 284 646 285 632 285 616 c 0
 285 579 270 515 252 478 c 0
 244 461 237 453 231 453 c 0
189 -14 m 0
 124 -14 85 26 85 105 c 2
 85 337 l 2
 85 348 79 352 53 352 c 2
 47 352 l 2
 40 352 35 362 35 372 c 0
 35 375 40 382 42 383 c 0
 81 410 113 441 131 463 c 0
 137 470 141 475 148 475 c 0
 154 475 162 473 161 464 c 2
 156 419 l 2
 154 404 163 400 180 400 c 2
 294 400 l 2
 299 400 304 390 304 378 c 0
 304 366 299 352 294 352 c 2
 195 352 l 2
 161 352 155 351 155 324 c 2
 155 127 l 2
 155 73 178 41 221 41 c 0
 260 41 278 47 295 59 c 0
 296 60 298 61 299 61 c 0
 304 61 306 54 306 47 c 0
 306 36 250 -14 189 -14 c 0
EndSplineSet
EndChar

StartChar: tbar
Encoding: 359 359 164
Width: 351
GlyphClass: 2
Flags: W
TeX: 475 14
HStem: -14 55<184.591 273.431> 210 34<40.0087 96 166 272.479> 352 48<167.312 314.775>
VStem: 96 70<58.7654 210 244 351.595>
LayerCount: 2
Fore
SplineSet
310 61 m 0
 315 61 317 54 317 47 c 0
 317 36 261 -14 200 -14 c 0
 135 -14 96 26 96 105 c 2
 96 210 l 1
 54 210 l 2
 45 210 40 221 40 227 c 0
 40 236 52 244 64 244 c 2
 96 244 l 1
 96 337 l 2
 96 348 90 352 64 352 c 2
 58 352 l 2
 51 352 46 362 46 372 c 0
 46 375 51 382 53 383 c 0
 92 410 124 441 142 463 c 0
 148 470 152 475 159 475 c 0
 165 475 173 473 172 464 c 2
 167 419 l 2
 165 404 174 400 191 400 c 2
 305 400 l 2
 310 400 315 390 315 378 c 0
 315 366 310 352 305 352 c 2
 206 352 l 2
 172 352 166 351 166 324 c 2
 166 244 l 1
 262 244 l 2
 268 244 276 239 276 234 c 0
 276 233 275 232 275 231 c 0
 268 218 259 210 244 210 c 2
 166 210 l 1
 166 127 l 2
 166 73 189 41 232 41 c 0
 271 41 289 47 306 59 c 0
 307 60 309 61 310 61 c 0
EndSplineSet
EndChar

StartChar: longs
Encoding: 383 383 165
Width: 261
GlyphClass: 2
Flags: W
TeX: 706 3
ItalicCorrection: 78
HStem: -3 27<24.9975 75.2193 175.575 225.003> 352 24<26.3029 63.8123> 665 41<226.876 332.425>
VStem: 90 70<33.1648 350 390.261 542.665>
LayerCount: 2
Fore
SplineSet
44 -3 m 0
 36 -3 24 -2 24 6 c 0
 24 16 36 20 47 24 c 0
 67 30 90 41 90 68 c 2
 90 350 l 1
 77 350 59 350 38 352 c 0
 34 353 25 362 25 369 c 0
 25 372 29 375 31 376 c 0
 61 384 71 392 90 402 c 1
 90 633 221 706 308 706 c 0
 353 706 373 705 402 681 c 0
 413 672 418 660 418 647 c 0
 418 630 411 606 384 606 c 0
 355 606 345 665 266 665 c 0
 204 665 160 610 160 475 c 2
 160 68 l 2
 160 42 183 30 203 24 c 0
 214 20 226 16 226 6 c 0
 226 -2 214 -3 206 -3 c 0
 166 -3 162 2 127 2 c 0
 92 2 84 -3 44 -3 c 0
EndSplineSet
EndChar

StartChar: florin
Encoding: 402 402 166
Width: 313
GlyphClass: 2
Flags: W
TeX: 663 207
ItalicCorrection: 18
HStem: -207 40<-49.6369 25.2313> 362 38<16.176 99 178.144 280> 622 41<219.985 300.741>
LayerCount: 2
Fore
SplineSet
-35 -207 m 0
 -86 -207 -124 -189 -124 -155 c 0
 -124 -135 -102 -115 -90 -115 c 0
 -80 -115 -70 -129 -55 -143 c 0
 -41 -156 -24 -167 0 -167 c 0
 38 -167 64 -146 74 -32 c 2
 106 339 l 2
 107 352 103 357 90 357 c 2
 28 356 l 2
 19 356 15 361 14 368 c 0
 14 380 19 393 30 394 c 2
 99 398 l 2
 108 399 114 406 116 418 c 2
 120 450 l 2
 138 596 208 663 280 663 c 0
 344 663 383 629 383 583 c 0
 383 556 364 542 348 542 c 0
 338 542 328 559 316 581 c 0
 301 608 281 622 259 622 c 0
 214 622 197 569 188 503 c 0
 184 472 181 440 178 409 c 0
 179 402 183 400 189 400 c 0
 229 400 263 403 297 403 c 0
 301 403 305 400 305 390 c 0
 305 381 297 363 280 363 c 2
 189 362 l 2
 175 362 167 358 166 346 c 0
 157 195 152 129 137 -27 c 0
 127 -134 21 -207 -35 -207 c 0
EndSplineSet
EndChar

StartChar: ohorn
Encoding: 417 417 167
Width: 506
GlyphClass: 2
Flags: W
TeX: 500 14
HStem: -14 30<203.025 317.686> 337 34<428.689 459.207> 383 31<177.889 291.789>
VStem: 35 82<109.934 279.37> 378 82<111.572 289.7> 461 45<375.463 449.5>
LayerCount: 2
Fore
SplineSet
234 -14 m 0
 122 -14 35 70 35 187 c 0
 35 298 131 414 254 414 c 0
 280 414 308 407 327 401 c 0
 358 390 400 371 419 371 c 0
 451 371 461 381 461 397 c 0
 461 409 449 428 424 437 c 0
 419 439 408 447 408 454 c 0
 408 470 432 500 459 500 c 0
 482 500 506 467 506 432 c 0
 506 390 462 337 422 337 c 0
 417 337 421 327 424 323 c 0
 450 289 460 248 460 213 c 0
 460 96 384 -14 234 -14 c 0
255 16 m 0
 300 16 338 32 358 71 c 0
 374 102 378 150 378 189 c 0
 378 284 322 383 237 383 c 0
 201 383 173 374 149 343 c 0
 122 309 117 258 117 210 c 0
 117 111 175 16 255 16 c 0
EndSplineSet
EndChar

StartChar: dotlessj
Encoding: 567 567 168
Width: 226
GlyphClass: 2
Flags: W
TeX: 434 287
TopAccentHorizontal: 139
HStem: -287 27<-19.3848 18.4884>
VStem: 89 70<-125.075 340.129>
LayerCount: 2
Fore
SplineSet
1 -287 m 0
 -6 -287 -20 -284 -20 -277 c 0
 -20 -269 -11 -261 -9 -260 c 0
 15 -254 38 -237 57 -197 c 0
 86 -136 89 0 89 69 c 2
 89 279 l 2
 89 315 77 345 43 352 c 0
 38 353 35 359 35 365 c 0
 35 370 38 376 42 377 c 0
 92 389 127 415 146 427 c 0
 153 431 157 434 159 434 c 0
 163 434 166 432 166 429 c 0
 162 388 159 320 159 275 c 2
 159 91 l 2
 159 29 158 -72 129 -152 c 0
 104 -220 41 -287 1 -287 c 0
EndSplineSet
EndChar

StartChar: circumflex
Encoding: 710 710 169
Width: 300
GlyphClass: 2
Flags: W
TeX: 748 -555
ItalicCorrection: 17
TopAccentHorizontal: 150
HStem: 555 193
VStem: 42 216<559 581>
LayerCount: 2
Fore
SplineSet
150 748 m 0
 158 748 165 738 170 730 c 0
 190 699 258 581 258 568 c 0
 258 559 258 555 249 555 c 0
 241 555 228 568 220 577 c 0
 207 592 176 632 154 662 c 0
 151 666 150 666 147 662 c 0
 125 632 94 592 81 577 c 0
 73 568 59 555 51 555 c 0
 42 555 42 559 42 568 c 0
 42 581 110 699 130 730 c 0
 135 738 142 748 150 748 c 0
EndSplineSet
EndChar

StartChar: caron
Encoding: 711 711 170
Width: 300
GlyphClass: 2
Flags: W
TeX: 748 -555
ItalicCorrection: 17
TopAccentHorizontal: 150
HStem: 555 193
VStem: 42 216<722 744>
LayerCount: 2
Fore
SplineSet
150 555 m 0
 142 555 135 565 130 573 c 0
 110 604 42 722 42 735 c 0
 42 744 42 748 51 748 c 0
 59 748 73 735 81 726 c 0
 94 711 125 671 147 641 c 0
 150 637 151 637 154 641 c 0
 176 671 207 711 220 726 c 0
 228 735 241 748 249 748 c 0
 258 748 258 744 258 735 c 0
 258 722 190 604 170 573 c 0
 165 565 158 555 150 555 c 0
EndSplineSet
EndChar

StartChar: breve
Encoding: 728 728 171
Width: 300
GlyphClass: 2
Flags: W
TeX: 708 -578
TopAccentHorizontal: 150
HStem: 578 60<87.3999 212.6>
VStem: 43 30<660.36 707.992> 227 30<660.36 707.992>
LayerCount: 2
Fore
SplineSet
150 578 m 0
 80 578 43 634 43 684 c 0
 43 697 48 708 58 708 c 0
 68 708 71 697 73 687 c 0
 78 662 100 638 150 638 c 0
 200 638 222 662 227 687 c 0
 229 697 232 708 242 708 c 0
 252 708 257 697 257 684 c 0
 257 634 220 578 150 578 c 0
EndSplineSet
EndChar

StartChar: dotaccent
Encoding: 729 729 172
Width: 200
GlyphClass: 2
Flags: W
TeX: 717 -616
TopAccentHorizontal: 100
HStem: 616 101<59.1171 141.823>
VStem: 50 101<625.117 707.823>
LayerCount: 2
Fore
SplineSet
100 616 m 0
 72 616 50 638 50 666 c 0
 50 695 72 717 100 717 c 0
 129 717 151 695 151 666 c 0
 151 638 129 616 100 616 c 0
EndSplineSet
EndChar

StartChar: ring
Encoding: 730 730 173
Width: 333
GlyphClass: 2
Flags: W
TeX: 690 -491
TopAccentHorizontal: 100
HStem: 491 34<122.88 209.651> 656 34<123.088 209.213>
VStem: 67 34<547.056 633.602> 232 34<547.18 633.132>
LayerCount: 2
Fore
SplineSet
266 590 m 0
 266 535 221 491 166 491 c 0
 110 491 67 535 67 591 c 0
 67 645 112 690 166 690 c 0
 221 690 266 645 266 590 c 0
232 590 m 0
 232 626 202 656 167 656 c 0
 131 656 101 627 101 591 c 0
 101 555 130 525 165 525 c 0
 202 525 232 554 232 590 c 0
EndSplineSet
EndChar

StartChar: ogonek
Encoding: 731 731 174
Width: 300
GlyphClass: 2
Flags: W
TeX: 18 287
HStem: -287 66<139.324 208.883>
VStem: 50 74<-206.017 -107.299>
LayerCount: 2
Fore
SplineSet
151 -287 m 0
 93 -287 50 -253 50 -179 c 0
 50 -72 198 18 198 18 c 1
 226 18 l 1
 182 -25 124 -72 124 -152 c 0
 124 -196 150 -221 184 -221 c 0
 219 -221 238 -200 243 -200 c 0
 247 -200 251 -201 251 -207 c 0
 251 -226 207 -287 151 -287 c 0
EndSplineSet
EndChar

StartChar: tilde
Encoding: 732 732 175
Width: 300
GlyphClass: 2
Flags: W
TeX: 705 -558
ItalicCorrection: 26
TopAccentHorizontal: 150
HStem: 592 66<93.3633 229.992> 600 67<65.2093 200.188>
VStem: 6 287
LayerCount: 2
Fore
SplineSet
22 558 m 0x60
 12 558 6 563 6 573 c 0
 6 583 75 667 100 667 c 0x60
 122 667 132 664 151 662 c 0
 173 660 189 658 207 658 c 0
 222 658 236 667 246 677 c 0
 260 691 270 705 274 705 c 0
 284 705 293 698 293 688 c 0
 293 684 285 676 271 662 c 0
 255 647 237 622 224 606 c 0
 216 596 199 592 195 592 c 0xa0
 179 592 120 600 84 600 c 0
 70 600 56 588 45 578 c 0
 36 570 26 558 22 558 c 0x60
EndSplineSet
EndChar

StartChar: hungarumlaut
Encoding: 733 733 176
Width: 300
GlyphClass: 2
Flags: W
TeX: 749 -556
ItalicCorrection: 122
TopAccentHorizontal: 150
HStem: 556 193<134 143>
VStem: 10 281
LayerCount: 2
Fore
SplineSet
19 556 m 0
 10 556 10 560 10 569 c 0
 10 573 15 585 22 600 c 0
 41 640 77 707 91 731 c 0
 97 741 108 749 118 749 c 0
 143 749 167 742 167 726 c 0
 167 723 163 716 157 707 c 0
 134 672 73 605 49 578 c 0
 41 569 27 556 19 556 c 0
143 556 m 0
 134 556 134 560 134 569 c 0
 134 572 137 581 143 593 c 0
 163 632 200 706 215 731 c 0
 221 741 232 749 242 749 c 0
 267 749 291 742 291 726 c 0
 291 723 287 716 280 706 c 0
 255 671 197 604 173 578 c 0
 165 569 151 556 143 556 c 0
EndSplineSet
EndChar

StartChar: circumflexcmb
Encoding: 770 770 177
Width: 0
GlyphClass: 2
Flags: W
TeX: 748 -547
TopAccentHorizontal: 0
GlyphVariantsHorizontal: circumflexcmb circumflexcmb.h1 circumflexcmb.h2 circumflexcmb.h3 circumflexcmb.h4 circumflexcmb.h5 circumflexcmb.h6 circumflexcmb.h7 circumflexcmb.h8 circumflexcmb.h9 circumflexcmb.h10 circumflexcmb.h11 circumflexcmb.h12 circumflexcmb.h13 circumflexcmb.h14 circumflexcmb.h15 circumflexcmb.h16 circumflexcmb.h17 circumflexcmb.h18 circumflexcmb.h19 circumflexcmb.h20 circumflexcmb.h21 circumflexcmb.h22 circumflexcmb.h23 circumflexcmb.h24 circumflexcmb.h25 circumflexcmb.h26 circumflexcmb.h27 circumflexcmb.h28 circumflexcmb.h29 circumflexcmb.h30 circumflexcmb.h31
HStem: 547 201
LayerCount: 2
Fore
SplineSet
-100 547 m 0
 -108 547 -111 559 -103 577 c 0
 -86 616 -36 703 -21 730 c 0
 -16 739 -8 748 0 748 c 0
 8 748 15 739 20 730 c 0
 35 703 83 615 102 577 c 0
 111 559 107 547 99 547 c 0
 91 547 76 560 69 569 c 0
 57 585 28 623 3 653 c 0
 0 657 -1 657 -4 653 c 0
 -27 622 -58 585 -70 569 c 0
 -77 560 -92 547 -100 547 c 0
EndSplineSet
EndChar

StartChar: tildecomb
Encoding: 771 771 178
Width: 0
GlyphClass: 2
Flags: W
TeX: 705 -558
TopAccentHorizontal: 4
GlyphVariantsHorizontal: tildecomb tildecomb.h1 tildecomb.h2 tildecomb.h3 tildecomb.h4 tildecomb.h5 tildecomb.h6 tildecomb.h7 tildecomb.h8 tildecomb.h9 tildecomb.h10 tildecomb.h11 tildecomb.h12 tildecomb.h13 tildecomb.h14 tildecomb.h15 tildecomb.h16 tildecomb.h17 tildecomb.h18 tildecomb.h19 tildecomb.h20 tildecomb.h21 tildecomb.h22 tildecomb.h23 tildecomb.h24 tildecomb.h25 tildecomb.h26 tildecomb.h27 tildecomb.h28 tildecomb.h29 tildecomb.h30 tildecomb.h31
HStem: 592 66<-52.6367 83.9915> 600 67<-80.7907 54.1882>
VStem: -140 287
LayerCount: 2
Fore
SplineSet
-124 558 m 0x60
 -134 558 -140 563 -140 573 c 0
 -140 583 -71 667 -46 667 c 0x60
 -24 667 -14 664 5 662 c 0
 27 660 43 658 61 658 c 0
 76 658 90 667 100 677 c 0
 114 691 124 705 128 705 c 0
 138 705 147 698 147 688 c 0
 147 684 139 676 125 662 c 0
 109 647 91 622 78 606 c 0
 70 596 53 592 49 592 c 0xa0
 33 592 -26 600 -62 600 c 0
 -76 600 -90 588 -101 578 c 0
 -110 570 -120 558 -124 558 c 0x60
EndSplineSet
EndChar

StartChar: overlinecmb
Encoding: 773 773 179
Width: 0
GlyphClass: 2
Flags: W
TeX: 673 -623
TopAccentHorizontal: 0
GlyphVariantsHorizontal: overlinecmb overlinecmb.h1
GlyphCompositionHorizontal: 3  overlinecmb.lft%0,0,83,167 overlinecmb.ex%1,166,166,166 overlinecmb.rt%0,83,0,167
HStem: 623 50<-196.896 197.469>
LayerCount: 2
Fore
SplineSet
-186 623 m 2
 -193 623 -200 629 -200 635 c 0
 -200 644 -194 673 -176 673 c 2
 187 673 l 2
 193 673 200 667 200 661 c 0
 200 639 188 623 169 623 c 2
 -186 623 l 2
EndSplineSet
EndChar

StartChar: brevecmb
Encoding: 774 774 180
Width: 0
GlyphClass: 2
Flags: W
TeX: 708 -578
TopAccentHorizontal: 0
GlyphVariantsHorizontal: brevecmb brevecmb.h1 brevecmb.h2 brevecmb.h3 brevecmb.h4 brevecmb.h5 brevecmb.h6
HStem: 578 60<-62.6001 62.6001>
VStem: -107 30<660.36 707.992> 77 30<660.36 707.992>
LayerCount: 2
Fore
SplineSet
0 578 m 0
 -70 578 -107 634 -107 684 c 0
 -107 697 -102 708 -92 708 c 0
 -82 708 -79 697 -77 687 c 0
 -72 662 -50 638 0 638 c 0
 50 638 72 662 77 687 c 0
 79 697 82 708 92 708 c 0
 102 708 107 697 107 684 c 0
 107 634 70 578 0 578 c 0
EndSplineSet
EndChar

StartChar: caroncmb
Encoding: 780 780 181
Width: 0
GlyphClass: 2
Flags: W
TeX: 748 -555
TopAccentHorizontal: 0
GlyphVariantsHorizontal: caroncmb caroncmb.h1 caroncmb.h2 caroncmb.h3 caroncmb.h4 caroncmb.h5 caroncmb.h6 caroncmb.h7 caroncmb.h8 caroncmb.h9 caroncmb.h10 caroncmb.h11 caroncmb.h12 caroncmb.h13 caroncmb.h14 caroncmb.h15 caroncmb.h16 caroncmb.h17 caroncmb.h18 caroncmb.h19 caroncmb.h20 caroncmb.h21 caroncmb.h22 caroncmb.h23 caroncmb.h24 caroncmb.h25 caroncmb.h26 caroncmb.h27 caroncmb.h28 caroncmb.h29 caroncmb.h30 caroncmb.h31
HStem: 555 193
VStem: -108 216<722 744>
LayerCount: 2
Fore
SplineSet
0 555 m 0
 -8 555 -15 565 -20 573 c 0
 -40 604 -108 722 -108 735 c 0
 -108 744 -108 748 -99 748 c 0
 -91 748 -77 735 -69 726 c 0
 -56 711 -25 671 -3 641 c 0
 0 637 1 637 4 641 c 0
 26 671 57 711 70 726 c 0
 78 735 91 748 99 748 c 0
 108 748 108 744 108 735 c 0
 108 722 40 604 20 573 c 0
 15 565 8 555 0 555 c 0
EndSplineSet
EndChar

StartChar: breveinvertedcmb
Encoding: 785 785 182
Width: 0
GlyphClass: 2
Flags: W
TeX: 712 -572
TopAccentHorizontal: 0
GlyphVariantsHorizontal: breveinvertedcmb breveinvertedcmb.h1 breveinvertedcmb.h2 breveinvertedcmb.h3 breveinvertedcmb.h4 breveinvertedcmb.h5 breveinvertedcmb.h6
HStem: 657 55<-53.5566 53.5566>
VStem: -107 32<572.078 625.604> 75 32<572.078 626.867>
LayerCount: 2
Fore
SplineSet
-92 572 m 0
 -102 572 -107 583 -107 596 c 0
 -107 671 -70 712 0 712 c 0
 70 712 107 660 107 596 c 0
 107 583 102 572 92 572 c 0
 82 572 80 584 75 593 c 0
 63 615 60 657 0 657 c 0
 -60 657 -63 615 -75 593 c 0
 -80 584 -82 572 -92 572 c 0
EndSplineSet
EndChar

StartChar: caronbelowcmb
Encoding: 812 812 183
Width: 0
GlyphClass: 2
Flags: W
TeX: -55 248
TopAccentHorizontal: 0
GlyphVariantsHorizontal: caronbelowcmb caronbelowcmb.h1 caronbelowcmb.h2 caronbelowcmb.h3 caronbelowcmb.h4 caronbelowcmb.h5 caronbelowcmb.h6 caronbelowcmb.h7 caronbelowcmb.h8 caronbelowcmb.h9 caronbelowcmb.h10 caronbelowcmb.h11 caronbelowcmb.h12 caronbelowcmb.h13 caronbelowcmb.h14 caronbelowcmb.h15 caronbelowcmb.h16 caronbelowcmb.h17 caronbelowcmb.h18 caronbelowcmb.h19 caronbelowcmb.h20 caronbelowcmb.h21 caronbelowcmb.h22 caronbelowcmb.h23 caronbelowcmb.h24 caronbelowcmb.h25 caronbelowcmb.h26 caronbelowcmb.h27 caronbelowcmb.h28 caronbelowcmb.h29 caronbelowcmb.h30 caronbelowcmb.h31
HStem: -248 193
VStem: -108 216<-81 -59>
LayerCount: 2
Fore
SplineSet
0 -248 m 0
 -8 -248 -15 -238 -20 -230 c 0
 -40 -199 -108 -81 -108 -68 c 0
 -108 -59 -108 -55 -99 -55 c 0
 -91 -55 -77 -68 -69 -77 c 0
 -56 -92 -25 -132 -3 -162 c 0
 0 -166 1 -166 4 -162 c 0
 26 -132 57 -92 70 -77 c 0
 78 -68 91 -55 99 -55 c 0
 108 -55 108 -59 108 -68 c 0
 108 -81 40 -199 20 -230 c 0
 15 -238 8 -248 0 -248 c 0
EndSplineSet
EndChar

StartChar: circumflexbelowcmb
Encoding: 813 813 184
Width: 0
GlyphClass: 2
Flags: W
TeX: -58 259
TopAccentHorizontal: 0
GlyphVariantsHorizontal: circumflexbelowcmb circumflexbelowcmb.h1 circumflexbelowcmb.h2 circumflexbelowcmb.h3 circumflexbelowcmb.h4 circumflexbelowcmb.h5 circumflexbelowcmb.h6 circumflexbelowcmb.h7 circumflexbelowcmb.h8 circumflexbelowcmb.h9 circumflexbelowcmb.h10 circumflexbelowcmb.h11 circumflexbelowcmb.h12 circumflexbelowcmb.h13 circumflexbelowcmb.h14 circumflexbelowcmb.h15 circumflexbelowcmb.h16 circumflexbelowcmb.h17 circumflexbelowcmb.h18 circumflexbelowcmb.h19 circumflexbelowcmb.h20 circumflexbelowcmb.h21 circumflexbelowcmb.h22 circumflexbelowcmb.h23 circumflexbelowcmb.h24 circumflexbelowcmb.h25 circumflexbelowcmb.h26 circumflexbelowcmb.h27 circumflexbelowcmb.h28 circumflexbelowcmb.h29 circumflexbelowcmb.h30 circumflexbelowcmb.h31
HStem: -259 201
LayerCount: 2
Fore
SplineSet
-100 -259 m 0
 -108 -259 -111 -247 -103 -229 c 0
 -86 -190 -36 -103 -21 -76 c 0
 -16 -67 -8 -58 0 -58 c 0
 8 -58 15 -67 20 -76 c 0
 35 -103 83 -191 102 -229 c 0
 111 -247 107 -259 99 -259 c 0
 91 -259 76 -246 69 -237 c 0
 57 -221 28 -183 3 -153 c 0
 0 -149 -1 -149 -4 -153 c 0
 -27 -184 -58 -221 -70 -237 c 0
 -77 -246 -92 -259 -100 -259 c 0
EndSplineSet
EndChar

StartChar: brevebelowcmb
Encoding: 814 814 185
Width: 0
GlyphClass: 2
Flags: W
TeX: -85 215
TopAccentHorizontal: 0
GlyphVariantsHorizontal: brevebelowcmb brevebelowcmb.h1 brevebelowcmb.h2 brevebelowcmb.h3 brevebelowcmb.h4 brevebelowcmb.h5 brevebelowcmb.h6
HStem: -215 60<-62.6001 62.6001>
VStem: -107 30<-132.64 -85.008> 77 30<-132.64 -85.008>
LayerCount: 2
Fore
SplineSet
0 -215 m 0
 -70 -215 -107 -159 -107 -109 c 0
 -107 -96 -102 -85 -92 -85 c 0
 -82 -85 -79 -96 -77 -106 c 0
 -72 -131 -50 -155 0 -155 c 0
 50 -155 72 -131 77 -106 c 0
 79 -96 82 -85 92 -85 c 0
 102 -85 107 -96 107 -109 c 0
 107 -159 70 -215 0 -215 c 0
EndSplineSet
EndChar

StartChar: breveinvertedbelowcmb
Encoding: 815 815 186
Width: 0
GlyphClass: 2
Flags: W
TeX: -85 215
TopAccentHorizontal: 0
GlyphVariantsHorizontal: breveinvertedbelowcmb breveinvertedbelowcmb.h1 breveinvertedbelowcmb.h2 breveinvertedbelowcmb.h3 breveinvertedbelowcmb.h4 breveinvertedbelowcmb.h5 breveinvertedbelowcmb.h6
HStem: -145 60<-62.6001 62.6001>
VStem: -107 30<-214.992 -167.36> 77 30<-214.992 -167.36>
LayerCount: 2
Fore
SplineSet
0 -85 m 0
 70 -85 107 -141 107 -191 c 0
 107 -204 102 -215 92 -215 c 0
 82 -215 79 -204 77 -194 c 0
 72 -169 50 -145 0 -145 c 0
 -50 -145 -72 -169 -77 -194 c 0
 -79 -204 -82 -215 -92 -215 c 0
 -102 -215 -107 -204 -107 -191 c 0
 -107 -141 -70 -85 0 -85 c 0
EndSplineSet
EndChar

StartChar: tildebelowcmb
Encoding: 816 816 187
Width: 0
GlyphClass: 2
Flags: W
TeX: -56 203
TopAccentHorizontal: -8
GlyphVariantsHorizontal: tildebelowcmb tildebelowcmb.h1 tildebelowcmb.h2 tildebelowcmb.h3 tildebelowcmb.h4 tildebelowcmb.h5 tildebelowcmb.h6 tildebelowcmb.h7 tildebelowcmb.h8 tildebelowcmb.h9 tildebelowcmb.h10 tildebelowcmb.h11 tildebelowcmb.h12 tildebelowcmb.h13 tildebelowcmb.h14 tildebelowcmb.h15 tildebelowcmb.h16 tildebelowcmb.h17 tildebelowcmb.h18 tildebelowcmb.h19 tildebelowcmb.h20 tildebelowcmb.h21 tildebelowcmb.h22 tildebelowcmb.h23 tildebelowcmb.h24 tildebelowcmb.h25 tildebelowcmb.h26 tildebelowcmb.h27 tildebelowcmb.h28 tildebelowcmb.h29 tildebelowcmb.h30 tildebelowcmb.h31
HStem: -169 66<-64.6367 71.9915> -161 67<-92.7907 42.1882>
VStem: -152 287
LayerCount: 2
Fore
SplineSet
-136 -203 m 0x60
 -146 -203 -152 -198 -152 -188 c 0
 -152 -178 -83 -94 -58 -94 c 0x60
 -36 -94 -26 -97 -7 -99 c 0
 15 -101 31 -103 49 -103 c 0
 64 -103 78 -94 88 -84 c 0
 102 -70 112 -56 116 -56 c 0
 126 -56 135 -63 135 -73 c 0
 135 -77 127 -85 113 -99 c 0
 97 -114 79 -139 66 -155 c 0
 58 -165 41 -169 37 -169 c 0xa0
 21 -169 -38 -161 -74 -161 c 0
 -88 -161 -102 -173 -113 -183 c 0
 -122 -191 -132 -203 -136 -203 c 0x60
EndSplineSet
EndChar

StartChar: lowlinecmb
Encoding: 818 818 188
Width: 0
GlyphClass: 2
Flags: W
TeX: -92 142
TopAccentHorizontal: 0
GlyphVariantsHorizontal: lowlinecmb lowlinecmb.h1
GlyphCompositionHorizontal: 3  lowlinecmb.lft%0,0,83,167 lowlinecmb.ex%1,166,166,166 lowlinecmb.rt%0,83,0,167
HStem: -142 50<-196.896 197.469>
LayerCount: 2
Fore
SplineSet
-186 -142 m 2
 -193 -142 -200 -136 -200 -130 c 0
 -200 -121 -194 -92 -176 -92 c 2
 187 -92 l 2
 193 -92 200 -98 200 -104 c 0
 200 -126 188 -142 169 -142 c 2
 -186 -142 l 2
EndSplineSet
EndChar

StartChar: dbllowlinecmb
Encoding: 819 819 189
Width: 0
GlyphClass: 2
Flags: W
TeX: -92 248
TopAccentHorizontal: 0
GlyphVariantsHorizontal: dbllowlinecmb dbllowlinecmb.h1
GlyphCompositionHorizontal: 3  dbllowlinecmb.lft%0,0,83,167 dbllowlinecmb.ex%1,166,166,166 dbllowlinecmb.rt%0,83,0,167
HStem: -248 50<-196.896 197.469> -142 50<-196.896 197.469>
LayerCount: 2
Fore
SplineSet
-186 -142 m 2
 -193 -142 -200 -136 -200 -130 c 0
 -200 -121 -194 -92 -176 -92 c 2
 187 -92 l 2
 193 -92 200 -98 200 -104 c 0
 200 -126 188 -142 169 -142 c 2
 -186 -142 l 2
-186 -248 m 2
 -193 -248 -200 -242 -200 -236 c 0
 -200 -227 -194 -198 -176 -198 c 2
 187 -198 l 2
 193 -198 200 -204 200 -210 c 0
 200 -232 188 -248 169 -248 c 2
 -186 -248 l 2
EndSplineSet
EndChar

StartChar: dbloverlinecmb
Encoding: 831 831 190
Width: 0
GlyphClass: 2
Flags: W
TeX: 746 -588
TopAccentHorizontal: -250
GlyphVariantsHorizontal: dbloverlinecmb dbloverlinecmb.h1
GlyphCompositionHorizontal: 3  dbloverlinecmb.lft%0,0,83,167 dbloverlinecmb.ex%1,166,166,166 dbloverlinecmb.rt%0,83,0,167
HStem: 588 44<-418.53 -80.4703> 702 44<-418.53 -80.4703>
LayerCount: 2
Fore
SplineSet
-105 588 m 2
 -407 588 l 2
 -414 588 -420 593 -420 599 c 0
 -420 615 -411 632 -394 632 c 2
 -92 632 l 2
 -85 632 -79 627 -79 621 c 0
 -79 605 -88 588 -105 588 c 2
-105 702 m 2
 -407 702 l 2
 -414 702 -420 707 -420 713 c 0
 -420 729 -411 746 -394 746 c 2
 -92 746 l 2
 -85 746 -79 741 -79 735 c 0
 -79 719 -88 702 -105 702 c 2
EndSplineSet
EndChar

StartChar: alpha
Encoding: 945 945 191
Width: 452
GlyphClass: 2
Flags: W
TeX: 419 15
TopAccentHorizontal: 261
HStem: -15 83<330.222 413.487> -15 46<88.4956 170.931> 321 80<154.785 233.393>
VStem: 35 40<42.1801 208.25> 328 62<310.513 411.406>
LayerCount: 2
Fore
SplineSet
124 -15 m 0x78
 74 -15 35 54 35 131 c 0
 35 252 107 401 190 401 c 0
 236 401 260 349 285 254 c 0
 286 250 288 250 289 254 c 0
 304 299 317 347 328 395 c 0
 332 411 335 419 352 419 c 0
 376 419 390 372 390 359 c 0
 390 329 353 232 301 144 c 1
 319 89 346 68 373 68 c 0
 400 68 425 86 438 101 c 0
 443 107 445 111 449 111 c 0
 458 111 457 105 457 96 c 0
 457 25 398 -15 359 -15 c 0xb8
 328 -15 289 25 280 111 c 1
 233 42 177 -15 124 -15 c 0x78
114 31 m 0x78
 166 31 213 83 251 160 c 0
 259 176 267 194 274 213 c 1
 244 292 231 321 199 321 c 0
 144 321 75 212 75 114 c 0
 75 68 93 31 114 31 c 0x78
EndSplineSet
AlternateSubs2: "'ssty' Script Style in Mathematical Alphanumeric Symbols lookup 2 subtable" alpha.s alpha.ss
EndChar

StartChar: beta
Encoding: 946 946 192
Width: 510
GlyphClass: 2
Flags: W
TeX: 705 285
TopAccentHorizontal: 246
HStem: -14 64<193.05 344.085> 227 105<232.02 281.629> 636 69<185.021 313.156>
VStem: 60 41<-153.246 66.9934 109.393 526.257> 354 32<429.429 585.164> 425 49<125.408 256.199>
LayerCount: 2
Fore
SplineSet
111 -285 m 0
 81 -285 60 -254 60 -163 c 2
 60 377 l 2
 60 558 98 705 240 705 c 0
 330 705 386 624 386 522 c 0
 386 444 361 378 346 357 c 0
 344 355 342 350 342 346 c 0
 342 343 350 338 361 333 c 0
 437 298 474 247 474 165 c 0
 474 59 380 -14 273 -14 c 0
 211 -14 160 23 131 57 c 0
 125 64 120 67 117 67 c 0
 111 67 101 58 101 50 c 2
 101 -78 l 2
 101 -158 169 -209 169 -236 c 0
 169 -265 130 -285 111 -285 c 0
261 50 m 0
 345 50 425 112 425 193 c 0
 425 243 385 293 340 293 c 0
 325 293 303 272 288 255 c 0
 273 239 257 224 246 227 c 0
 235 230 202 261 203 281 c 0
 204 303 247 314 269 332 c 0
 328 381 354 444 354 530 c 0
 354 574 318 636 257 636 c 0
 158 636 102 544 102 415 c 2
 101 163 l 2
 101 90 194 50 261 50 c 0
EndSplineSet
AlternateSubs2: "'ssty' Script Style in Mathematical Alphanumeric Symbols lookup 2 subtable" beta.s beta.ss
EndChar

StartChar: gamma
Encoding: 947 947 193
Width: 430
GlyphClass: 2
Flags: W
TeX: 426 285
TopAccentHorizontal: 237
HStem: 330 84<22.8839 107.088>
VStem: 197 33<-42.1174 32.73> 352 63<322.773 413.545>
LayerCount: 2
Fore
SplineSet
183 -285 m 0
 161 -285 132 -254 132 -228 c 0
 132 -160 176 -54 188 -26 c 0
 202 7 199 53 197 84 c 0
 186 231 131 327 52 330 c 0
 12 331 -13 307 -20 307 c 0
 -27 307 -30 309 -30 319 c 0
 -30 346 20 414 87 414 c 0
 176 414 223 261 223 107 c 0
 223 102 223 94 228 94 c 0
 232 94 235 96 237 100 c 0
 291 192 338 332 352 406 c 0
 354 414 359 426 367 426 c 0
 389 426 415 398 415 363 c 0
 415 327 310 165 237 19 c 0
 232 8 230 -7 230 -11 c 0
 229 -40 215 -232 211 -254 c 0
 208 -273 194 -285 183 -285 c 0
EndSplineSet
AlternateSubs2: "'ssty' Script Style in Mathematical Alphanumeric Symbols lookup 2 subtable" gamma.s gamma.ss
EndChar

StartChar: delta
Encoding: 948 948 194
Width: 418
GlyphClass: 2
Flags: W
TeX: 701 14
TopAccentHorizontal: 225
HStem: -14 51<126.224 225.165> 338 58<184.945 285.5> 630 71<146.365 240.359>
VStem: 35 47<78.449 226.697> 79 67<604.061 665.5> 311 69<136.905 324.546>
LayerCount: 2
Fore
SplineSet
194 -14 m 0xec
 126 -14 35 61 35 158 c 0xf4
 35 244 100 396 194 396 c 0
 215 396 251 372 265 364 c 0
 274 359 281 363 278 367 c 0
 243 424 173 522 127 570 c 0
 116 582 79 627 79 658 c 0
 79 673 121 701 148 701 c 0
 258 701 408 588 408 482 c 0
 408 477 405 474 400 474 c 0
 382 474 339 555 263 600 c 0
 234 618 199 630 160 630 c 0
 156 630 146 628 146 622 c 0
 146 610 160 585 170 572 c 0
 202 534 260 464 306 410 c 0
 337 374 383 321 380 235 c 0
 375 81 276 -14 194 -14 c 0xec
170 37 m 0
 227 37 311 118 311 230 c 0
 311 264 304 338 267 338 c 0
 169 338 82 249 82 131 c 0
 82 74 132 37 170 37 c 0
EndSplineSet
AlternateSubs2: "'ssty' Script Style in Mathematical Alphanumeric Symbols lookup 2 subtable" delta.s delta.ss
EndChar

StartChar: epsilon
Encoding: 949 949 195
Width: 334
GlyphClass: 2
Flags: W
TeX: 412 14
TopAccentHorizontal: 170
HStem: -14 66<99.3997 236.368> 180 81<176.307 257.606> 348 64<133.34 264.493>
VStem: 45 50<218.029 311.085> 45 40<68.2605 144.254>
LayerCount: 2
Fore
SplineSet
156 -14 m 0xe8
 99 -14 45 26 45 81 c 0xe8
 45 137 83 170 93 177 c 0
 102 184 105 190 95 195 c 0
 68 208 45 220 45 268 c 0
 45 346 130 412 224 412 c 0
 245 412 268 398 268 381 c 0
 268 364 245 348 221 348 c 0
 144 348 95 315 95 252 c 0xf0
 95 230 110 216 127 216 c 0
 147 216 200 261 228 261 c 0
 249 261 270 246 270 231 c 0
 270 203 238 180 215 180 c 0
 197 180 170 179 142 169 c 0
 109 157 85 129 85 100 c 0
 85 79 115 52 154 52 c 0
 200 52 257 81 280 101 c 0
 292 110 299 117 301 117 c 0
 309 117 311 113 311 100 c 0
 311 37 235 -14 156 -14 c 0xe8
EndSplineSet
AlternateSubs2: "'ssty' Script Style in Mathematical Alphanumeric Symbols lookup 2 subtable" epsilon.s epsilon.ss
EndChar

StartChar: eta
Encoding: 951 951 196
Width: 460
GlyphClass: 2
Flags: W
TeX: 414 285
TopAccentHorizontal: 225
HStem: -14 21G<114 126> 328 86<52.9908 115.778> 335 79<274.806 347.388>
VStem: 122 35<194.538 320.254> 300 92<-271.125 -131.398> 357 35<79.006 322.371>
LayerCount: 2
Fore
SplineSet
368 -285 m 0xb8
 334 -285 299 -266 300 -231 c 0xb8
 300 -217 309 -191 316 -161 c 0
 329 -108 357 169 357 274 c 0
 357 310 339 335 313 335 c 0xb4
 263 335 198 211 145 28 c 0
 139 8 133 -14 119 -14 c 0
 109 -14 83 1 83 20 c 0
 83 41 93 80 104 119 c 0
 114 156 122 204 122 256 c 0
 122 313 113 328 74 328 c 0
 43 328 34 315 27 315 c 0
 20 315 17 317 17 327 c 0
 17 359 60 414 95 414 c 0xd4
 144 414 157 376 157 307 c 0
 157 255 154 238 149 201 c 0
 148 197 151 194 154 194 c 0
 157 194 159 193 164 205 c 0
 219 341 277 414 314 414 c 0
 352 414 392 340 392 284 c 2xb4
 392 -235 l 2
 392 -265 384 -285 368 -285 c 0xb8
EndSplineSet
AlternateSubs2: "'ssty' Script Style in Mathematical Alphanumeric Symbols lookup 2 subtable" eta.s eta.ss
EndChar

StartChar: theta
Encoding: 952 952 197
Width: 430
GlyphClass: 2
Flags: W
TeX: 697 14
TopAccentHorizontal: 225
HStem: -14 74<157.639 248.758> 339 48<102.957 323.468> 620 77<174.078 274.23>
VStem: 45 45<183.487 392.664> 334 51<307.814 516.318>
LayerCount: 2
Fore
SplineSet
207 -14 m 0
 115 -14 45 196 45 331 c 0
 45 507 136 697 223 697 c 0
 311 697 385 510 385 375 c 0
 385 220 324 -14 207 -14 c 0
113 387 m 2
 322 387 l 2
 329 387 334 393 334 400 c 0
 334 537 307 620 231 620 c 0
 174 620 135 586 103 400 c 0
 102 394 106 387 113 387 c 2
201 60 m 0
 280 60 313 198 324 323 c 0
 325 334 323 338 311 338 c 2
 102 339 l 2
 94 339 90 331 90 324 c 0
 90 169 119 60 201 60 c 0
EndSplineSet
AlternateSubs2: "'ssty' Script Style in Mathematical Alphanumeric Symbols lookup 2 subtable" theta.s theta.ss
EndChar

StartChar: iota
Encoding: 953 953 198
Width: 238
GlyphClass: 2
Flags: W
TeX: 411 14
TopAccentHorizontal: 111
HStem: -14 78<104 177.843>
VStem: 65 60<65.2345 320.785> 68 85<183.684 409.146>
LayerCount: 2
Fore
SplineSet
121 -14 m 0xa0
 87 -14 64 19 65 86 c 2xc0
 68 394 l 2
 68 406 76 411 129 411 c 0
 152 411 153 405 153 394 c 0xa0
 153 358 125 155 125 95 c 0xc0
 125 70 139 64 153 64 c 0
 174 64 200 78 203 78 c 0
 212 78 213 73 213 62 c 0
 213 36 171 -14 121 -14 c 0xa0
EndSplineSet
AlternateSubs2: "'ssty' Script Style in Mathematical Alphanumeric Symbols lookup 2 subtable" iota.s iota.ss
EndChar

